<svg width="169" height="171" viewBox="0 0 169 171" fill="none" xmlns="http://www.w3.org/2000/svg">
<rect x="12.0005" y="19" width="152" height="152" rx="76" fill="#2E94FE" fill-opacity="0.3"/>
<mask id="mask0_215_928" style="mask-type:alpha" maskUnits="userSpaceOnUse" x="12" y="19" width="153" height="152">
<rect x="12.0005" y="19" width="152" height="152" rx="76" fill="#2E94FE"/>
</mask>
<g mask="url(#mask0_215_928)">
<path d="M122.187 88.5657L85.0455 225.567H79.4946L116.626 88.5657H122.187Z" fill="#757575" stroke="#263238" stroke-linecap="round" stroke-linejoin="round"/>
<path d="M0.980431 57.7962L46.4662 225.613H51.9986L6.52209 57.7962C4.84392 51.6091 8.68894 46.5746 15.0973 46.5746H54.2853C60.6845 46.5746 67.2681 51.6091 68.9462 57.7962L114.441 225.613H119.974L74.4879 57.7962C72.0075 48.6401 62.3073 41.199 52.8285 41.199H13.6312C4.18002 41.199 -1.49994 48.6309 0.980431 57.7962Z" fill="#757575" stroke="#263238" stroke-linecap="round" stroke-linejoin="round"/>
<path d="M0.261055 57.8422L11.5472 99.5014C12.091 101.255 13.1652 102.797 14.6216 103.915C16.0781 105.033 17.8452 105.672 19.6799 105.744H84.0772C84.8538 105.805 85.6332 105.67 86.3444 105.353C87.0557 105.035 87.6761 104.545 88.1492 103.926C88.6222 103.307 88.9328 102.58 89.0526 101.81C89.1724 101.041 89.0977 100.253 88.8351 99.5198L77.5398 57.8607C76.9916 56.1112 75.9158 54.574 74.4599 53.4598C73.0039 52.3455 71.2391 51.7088 69.4071 51.6367H5.01894C4.40495 51.5928 3.78832 51.6703 3.20432 51.8648C2.62031 52.0593 2.08038 52.3671 1.61537 52.7704C1.15038 53.1738 0.769432 53.6648 0.494331 54.2155C0.219231 54.7661 0.0553665 55.3656 0.0121078 55.9796C-0.029808 56.6109 0.0548248 57.2441 0.261055 57.8422Z" fill="#2E94FE"/>
<path opacity="0.2" d="M0.261047 57.8423L11.5472 99.5015C12.091 101.255 13.1652 102.797 14.6216 103.915C16.078 105.033 17.8452 105.672 19.6798 105.744H84.0772C84.8538 105.805 85.6332 105.67 86.3444 105.353C87.0557 105.035 87.6761 104.545 88.1492 103.926C88.6222 103.307 88.9328 102.58 89.0526 101.81C89.1724 101.041 89.0977 100.253 88.8351 99.5199L77.5398 57.8608C76.9916 56.1113 75.9158 54.5741 74.4599 53.4599C73.0039 52.3457 71.2391 51.7089 69.4071 51.6368H36.1111C21.7176 66.39 23.5525 93.5818 24.4931 101.788C22.9909 101.426 21.6076 100.682 20.4769 99.6293C19.3462 98.5761 18.5064 97.249 18.0386 95.7763L6.77087 54.108C6.54078 53.3018 6.49353 52.4544 6.63256 51.6276H5.01894C4.24487 51.5721 3.46914 51.7098 2.76145 52.0283C2.05377 52.3468 1.43631 52.8361 0.964561 53.4523C0.492805 54.0685 0.181549 54.7923 0.058754 55.5586C-0.0640411 56.3248 0.00547028 57.1096 0.261047 57.8423Z" fill="black" fill-opacity="0.7"/>
<path d="M0.261053 57.8422L11.5472 99.5014C12.0911 101.255 13.1652 102.797 14.6216 103.915C16.0781 105.033 17.8452 105.672 19.6799 105.744H84.0772C84.8538 105.805 85.6332 105.67 86.3444 105.353C87.0557 105.035 87.6761 104.545 88.1492 103.926C88.6222 103.307 88.9328 102.58 89.0526 101.81C89.1724 101.041 89.0977 100.253 88.8351 99.5198L77.5398 57.8607C76.9916 56.1112 75.9158 54.574 74.4599 53.4598C73.0039 52.3455 71.2391 51.7088 69.4071 51.6367H5.01894C4.40495 51.5928 3.78833 51.6703 3.20432 51.8648C2.62031 52.0593 2.08037 52.3671 1.61537 52.7704C1.15037 53.1738 0.76943 53.6648 0.494329 54.2155C0.219227 54.7661 0.0553686 55.3656 0.0121045 55.9796C-0.029808 56.6109 0.0548252 57.2441 0.261053 57.8422V57.8422Z" stroke="#263238" stroke-linecap="round" stroke-linejoin="round"/>
<path d="M38.1213 147.892L17.0613 225.567H11.5104L32.5613 147.892H38.1213Z" fill="#757575" stroke="#263238" stroke-linecap="round" stroke-linejoin="round"/>
<path d="M32.543 138.938V146.536H115.456V138.938C115.456 137.456 114.867 136.035 113.819 134.987C112.771 133.939 111.35 133.351 109.868 133.351H38.14C37.4051 133.348 36.6769 133.491 35.9974 133.771C35.3178 134.051 34.7002 134.462 34.1802 134.981C33.6601 135.5 33.2477 136.117 32.9668 136.796C32.6858 137.476 32.5418 138.203 32.543 138.938Z" fill="#2E94FE"/>
<path opacity="0.2" d="M32.7366 137.509C35.4199 140.663 40.2331 143.871 48.5133 146.573H115.456V138.938C115.456 137.456 114.867 136.035 113.819 134.987C112.771 133.939 111.35 133.351 109.868 133.351H38.14C36.9071 133.352 35.709 133.76 34.732 134.512C33.7549 135.264 33.0535 136.318 32.7366 137.509Z" fill="black" fill-opacity="0.7"/>
<path d="M32.543 138.938V146.536H115.456V138.938C115.456 137.456 114.867 136.035 113.819 134.987C112.771 133.939 111.35 133.351 109.868 133.351H38.14C37.4051 133.348 36.6769 133.491 35.9974 133.771C35.3178 134.051 34.7003 134.462 34.1802 134.981C33.6601 135.5 33.2477 136.117 32.9668 136.796C32.6858 137.476 32.5418 138.203 32.543 138.938V138.938Z" stroke="#263238" stroke-linecap="round" stroke-linejoin="round"/>
<path d="M29.7305 144.24H117.549C118.419 144.24 119.125 144.946 119.125 145.817V149.791C119.125 150.662 118.419 151.368 117.549 151.368H29.7305C28.8597 151.368 28.1538 150.662 28.1538 149.791V145.817C28.1538 144.946 28.8597 144.24 29.7305 144.24Z" fill="#999999" stroke="#263238" stroke-linecap="round" stroke-linejoin="round"/>
<path d="M118.148 144.471C122.122 148.519 102.86 212.123 102.86 212.123C104.962 213.967 108.06 214.816 110.992 215.203C113.688 215.538 116.412 215.578 119.116 215.323C119.116 215.323 146.723 148.362 139.125 131.746C131.527 115.131 84.3814 107.588 84.3814 107.588L82.3713 102.609L57.9826 99.1787L53.9531 129.045C53.9531 129.045 57.9549 129.432 63.976 130.206C80.1215 132.253 110.845 137.094 118.148 144.471Z" fill="#263238"/>
<path opacity="0.3" d="M102.86 212.16C104.962 214.004 108.061 214.852 110.993 215.24C116.35 195.323 129.987 142.175 124.824 135.674C118.452 127.652 86.9176 120.359 86.9176 120.359C86.7885 116.265 75.7328 112.576 75.7328 112.576L63.9857 130.179C80.1311 132.253 110.855 137.094 118.157 144.471C122.122 148.555 102.86 212.16 102.86 212.16Z" fill="black"/>
<path d="M118.148 144.471C122.122 148.519 102.86 212.123 102.86 212.123C104.962 213.967 108.06 214.816 110.992 215.203C113.688 215.538 116.412 215.578 119.116 215.323C119.116 215.323 146.723 148.362 139.125 131.746C131.527 115.131 84.3814 107.588 84.3814 107.588L82.3713 102.609L57.9826 99.1787L53.9531 129.045C53.9531 129.045 57.9549 129.432 63.976 130.206C80.1215 132.253 110.845 137.094 118.148 144.471Z" stroke="#263238" stroke-linecap="round" stroke-linejoin="round"/>
<path d="M131.795 84.2688C135.842 83.5772 107.028 58.3125 107.028 58.3125L93.1321 67.6623C93.1321 67.6623 116.774 84.3149 120.49 84.7667C124.206 85.2185 131.795 84.2688 131.795 84.2688Z" fill="white"/>
<path opacity="0.2" d="M131.795 84.2688C135.842 83.5772 107.028 58.3125 107.028 58.3125L93.1321 67.6623C93.1321 67.6623 116.774 84.3149 120.49 84.7667C124.206 85.2185 131.795 84.2688 131.795 84.2688Z" fill="black" fill-opacity="0.7"/>
<path d="M131.795 84.2688C135.842 83.5772 107.028 58.3125 107.028 58.3125L93.1321 67.6623C93.1321 67.6623 116.774 84.3149 120.49 84.7667C124.206 85.2185 131.795 84.2688 131.795 84.2688Z" stroke="#263238" stroke-linecap="round" stroke-linejoin="round"/>
<path d="M126.732 73.6465C126.732 73.6465 120.693 75.1495 118.84 76.4127C116.986 77.6759 117.521 82.2402 117.521 82.2402C117.521 82.2402 125.571 79.9719 126.732 73.6465Z" fill="white" stroke="#263238" stroke-linecap="round" stroke-linejoin="round"/>
<path d="M130.586 62.0747L119.356 83.6142H118.028L128.696 61.0143L130.586 62.0747Z" fill="#263238"/>
<path d="M120.462 77.6484C120.462 77.6484 127.544 72.6139 129.277 72.6139C131.011 72.6139 136.202 78.7457 136.202 81.8346C136.202 84.9235 124.879 86.6109 122.666 84.0015C121.56 82.7013 123.754 79.5663 123.754 79.5663C122.436 80.9691 121.022 82.2786 119.522 83.4851C118.6 84.0014 116.839 83.3283 116.839 83.3283C116.839 83.3283 119.199 79.5479 120.462 77.6484Z" fill="white" stroke="#263238" stroke-linecap="round" stroke-linejoin="round"/>
<path d="M123.754 84.7115C125.387 82.6384 127.391 80.8874 129.664 79.5479" stroke="#263238" stroke-linecap="round" stroke-linejoin="round"/>
<path d="M123.754 79.5478C123.754 79.5478 126.207 77.4086 127.857 76.9384" stroke="#263238" stroke-linecap="round" stroke-linejoin="round"/>
<path d="M131.471 82.2678C129.757 83.1466 128.103 84.1384 126.52 85.2369" stroke="#263238" stroke-linecap="round" stroke-linejoin="round"/>
<path d="M98.0006 47.2661C101.624 49.7926 117.899 66.5282 117.899 66.5282C117.899 66.5282 110.273 75.2048 103.588 76.4589L85.4697 67.6623L98.0006 47.2661Z" fill="#2E94FE" stroke="#263238" stroke-linecap="round" stroke-linejoin="round"/>
<path opacity="0.4" d="M98.0006 47.2661C101.624 49.7926 117.899 66.5282 117.899 66.5282C117.899 66.5282 110.273 75.2048 103.588 76.4589L85.4697 67.6623L98.0006 47.2661Z" fill="white" stroke="#263238" stroke-linecap="round" stroke-linejoin="round"/>
<path d="M77.411 101.797C69.6011 90.6588 33.6957 104.066 33.6957 104.066C33.6957 104.066 30.2748 130.879 44.5761 138.035C58.8774 145.19 79.4949 144.803 85.0642 150.603L107.729 217.526C107.729 217.526 115.871 220.929 127.71 215.572C127.71 215.572 113.316 165.033 109.093 147.09C104.916 129.33 77.8721 117.279 77.8721 117.279C79.266 115.632 80.3219 113.727 80.9794 111.673" fill="#263238"/>
<path d="M77.411 101.797C69.6011 90.6588 33.6957 104.066 33.6957 104.066C33.6957 104.066 30.2748 130.879 44.5761 138.035C58.8774 145.19 79.4949 144.803 85.0642 150.603L107.729 217.526C107.729 217.526 115.871 220.929 127.71 215.572C127.71 215.572 113.316 165.033 109.093 147.09C104.916 129.33 77.8721 117.279 77.8721 117.279C79.266 115.632 80.3219 113.727 80.9794 111.673" stroke="#263238" stroke-linecap="round" stroke-linejoin="round"/>
<path d="M41.0629 127.431C42.2088 128.446 43.4126 129.395 44.6682 130.271" stroke="white" stroke-linecap="round" stroke-linejoin="round"/>
<path d="M38.1214 104.72C35.1892 111.083 34.9587 119.16 39.0435 125.052" stroke="white" stroke-linecap="round" stroke-linejoin="round"/>
<path d="M46.3 105.744C46.3 105.744 47.0469 110.649 44.8615 112.595C42.6762 114.54 35.9728 115.527 35.9728 115.527" stroke="white" stroke-linecap="round" stroke-linejoin="round"/>
<path d="M75.7328 105.965C75.7328 105.965 75.4286 110.852 77.411 110.622C79.3935 110.391 79.4949 112.576 79.4949 112.576" stroke="white" stroke-linecap="round" stroke-linejoin="round"/>
<path d="M97.521 51.0282C97.8233 49.7965 97.9841 48.5343 98.0005 47.2661C98.0005 47.2661 86.9357 37.9348 72.6897 37.9901C55.7236 38.0454 45.3503 43.3842 41.2009 50.7977C34.6174 62.5264 33.6953 104.066 33.6953 104.066C33.6953 104.066 76.2673 110.631 82.3714 102.581C83.4318 101.18 82.6204 91.2858 82.6204 91.2858C82.6204 91.2858 87.3875 78.7825 88.3925 69.0823C89.7932 67.1518 91.095 65.1514 92.2929 63.0889C93.8089 60.5499 95.1223 57.8953 96.2209 55.1498" fill="#2E94FE"/>
<path d="M97.521 51.0282C97.8233 49.7965 97.9841 48.5343 98.0005 47.2661C98.0005 47.2661 86.9357 37.9348 72.6897 37.9901C55.7236 38.0454 45.3503 43.3842 41.2009 50.7977C34.6174 62.5264 33.6953 104.066 33.6953 104.066C33.6953 104.066 76.2673 110.631 82.3714 102.581C83.4318 101.18 82.6204 91.2858 82.6204 91.2858C82.6204 91.2858 87.3875 78.7825 88.3925 69.0823C89.7932 67.1518 91.095 65.1514 92.2929 63.0889C93.8089 60.5499 95.1223 57.8953 96.2209 55.1498" stroke="#263238" stroke-linecap="round" stroke-linejoin="round"/>
<g opacity="0.6">
<path d="M97.521 51.0282C97.8233 49.7965 97.9841 48.5343 98.0005 47.2661C98.0005 47.2661 86.9357 37.9348 72.6897 37.9901C55.7236 38.0454 45.3503 43.3842 41.2009 50.7977C34.6174 62.5264 33.6953 104.066 33.6953 104.066C33.6953 104.066 76.2673 110.631 82.3714 102.581C83.4318 101.18 82.6204 91.2858 82.6204 91.2858C82.6204 91.2858 87.3875 78.7825 88.3925 69.0823C89.7932 67.1518 91.095 65.1514 92.2929 63.0889C93.8089 60.5499 95.1223 57.8953 96.2209 55.1498" fill="white"/>
<path d="M97.521 51.0282C97.8233 49.7965 97.9841 48.5343 98.0005 47.2661C98.0005 47.2661 86.9357 37.9348 72.6897 37.9901C55.7236 38.0454 45.3503 43.3842 41.2009 50.7977C34.6174 62.5264 33.6953 104.066 33.6953 104.066C33.6953 104.066 76.2673 110.631 82.3714 102.581C83.4318 101.18 82.6204 91.2858 82.6204 91.2858C82.6204 91.2858 87.3875 78.7825 88.3925 69.0823C89.7932 67.1518 91.095 65.1514 92.2929 63.0889C93.8089 60.5499 95.1223 57.8953 96.2209 55.1498" stroke="#263238" stroke-linecap="round" stroke-linejoin="round"/>
</g>
<path d="M81.2188 61.0143C81.2188 61.0143 74.7182 86.2329 75.6863 91.7838C75.9175 93.6991 75.5977 95.6407 74.7643 97.3807C75.6137 98.2741 76.16 99.4125 76.3255 100.634C76.491 101.856 76.2674 103.098 75.6863 104.186" stroke="#263238" stroke-linecap="round" stroke-linejoin="round"/>
<path d="M63.9762 81.8807C65.1374 81.8365 66.2651 81.4798 67.2404 80.848L69.1675 72.4018C65.344 72.7496 61.4895 72.4787 57.7522 71.5996L55.6868 80.8203C56.848 81.1441 58.0272 81.3996 59.2183 81.5856" stroke="#263238" stroke-linecap="round" stroke-linejoin="round"/>
<path d="M85.8383 64.2968C85.8383 64.2968 91.3708 40.7287 77.4106 37.9901C63.4505 35.2516 60.5828 41.7706 61.4035 46.1873C62.5007 52.0793 74.0727 66.5282 74.0727 66.5282L81.2188 60.9958L85.8383 64.2968Z" fill="#2E94FE" stroke="#263238" stroke-linecap="round" stroke-linejoin="round"/>
<path opacity="0.4" d="M85.8383 64.2968C85.8383 64.2968 91.3708 40.7287 77.4106 37.9901C63.4505 35.2516 60.5828 41.7706 61.4035 46.1873C62.5007 52.0793 74.0727 66.5282 74.0727 66.5282L81.2188 60.9958L85.8383 64.2968Z" fill="white" stroke="#263238" stroke-linecap="round" stroke-linejoin="round"/>
<path d="M104.151 137.094C104.151 137.094 95.1328 126.684 74.7735 118.819C74.7735 118.819 80.0477 117.205 81.228 115.011" stroke="white" stroke-linecap="round" stroke-linejoin="round"/>
<path d="M114.754 168.952L122.998 198.882" stroke="white" stroke-linecap="round" stroke-linejoin="round"/>
<path d="M51.0579 82.692C51.0579 82.692 47.3696 88.916 32.1831 88.3443C35.0094 85.3181 38.5846 83.0916 42.5472 81.8898C48.7527 80.2301 51.0579 82.692 51.0579 82.692Z" fill="#2E94FE" stroke="#263238" stroke-linecap="round" stroke-linejoin="round"/>
<path d="M109.979 85.1909C109.979 85.1909 106.456 79.7323 103.229 78.635C100.002 77.5377 90.5229 77.4455 89.0568 77.4086C87.5907 77.3717 61.5422 83.9922 49.3155 88.0677L50.3851 67.6624L33.9538 68.9624C33.9538 68.9624 34.6177 93.8584 37.1718 100.451C39.726 107.044 43.3866 105.44 49.629 102.747C74.1838 92.171 88.5681 84.8036 89.9051 85.2278C91.2421 85.6519 109.979 85.1909 109.979 85.1909Z" fill="white" stroke="#263238" stroke-linecap="round" stroke-linejoin="round"/>
<path d="M54.4881 55.8044C54.9174 57.4961 55.0546 59.2486 54.8938 60.9865C54.1653 67.3672 51.058 82.692 51.058 82.692C51.058 82.692 35.7424 84.8773 32.1832 88.3443C32.1832 88.3443 29.6567 68.0587 34.8019 57.7592C39.947 47.4597 45.2674 46.3255 45.2674 46.3255C48.6329 45.4957 51.7219 48.6307 53.4277 52.6602" fill="#2E94FE"/>
<path d="M54.4881 55.8044C54.9174 57.4961 55.0546 59.2486 54.8938 60.9865C54.1653 67.3672 51.058 82.692 51.058 82.692C51.058 82.692 35.7424 84.8773 32.1832 88.3443C32.1832 88.3443 29.6567 68.0587 34.8019 57.7592C39.947 47.4597 45.2674 46.3255 45.2674 46.3255C48.6329 45.4957 51.7219 48.6307 53.4277 52.6602" stroke="#263238" stroke-linecap="round" stroke-linejoin="round"/>
<g opacity="0.4">
<g opacity="0.4">
<path d="M54.4881 55.8044C54.9174 57.4961 55.0546 59.2486 54.8938 60.9865C54.1653 67.3672 51.058 82.692 51.058 82.692C51.058 82.692 35.7424 84.8773 32.1832 88.3443C32.1832 88.3443 29.6567 68.0587 34.8019 57.7592C39.947 47.4597 45.2674 46.3255 45.2674 46.3255C48.6329 45.4957 51.7219 48.6307 53.4277 52.6602" fill="white"/>
<path d="M54.4881 55.8044C54.9174 57.4961 55.0546 59.2486 54.8938 60.9865C54.1653 67.3672 51.058 82.692 51.058 82.692C51.058 82.692 35.7424 84.8773 32.1832 88.3443C32.1832 88.3443 29.6567 68.0587 34.8019 57.7592C39.947 47.4597 45.2674 46.3255 45.2674 46.3255C48.6329 45.4957 51.7219 48.6307 53.4277 52.6602" stroke="#263238" stroke-linecap="round" stroke-linejoin="round"/>
</g>
</g>
<path d="M99.4849 63.6974C97.1919 65.5735 94.5172 66.9267 91.6473 67.6623" stroke="#263238" stroke-linecap="round" stroke-linejoin="round"/>
<path d="M51.0579 63.6974C51.0579 63.6974 45.5255 74.1537 38.5362 76.4588" stroke="#263238" stroke-linecap="round" stroke-linejoin="round"/>
<path d="M86.9082 144.24C86.9082 144.24 85.8847 145.015 85.4698 147.809" stroke="white" stroke-linecap="round" stroke-linejoin="round"/>
<path d="M90.6978 147.809C89.8069 147.905 88.9458 148.187 88.1695 148.634C87.3933 149.082 86.7187 149.686 86.1888 150.409" stroke="white" stroke-linecap="round" stroke-linejoin="round"/>
<path d="M121.2 137.094C121.2 137.094 118.249 138.588 118.886 142.82" stroke="white" stroke-linecap="round" stroke-linejoin="round"/>
<path d="M124.307 140.69C124.307 140.69 120.278 143.078 119.992 145.218" stroke="white" stroke-linecap="round" stroke-linejoin="round"/>
<path d="M77.6042 114.891C77.6042 114.891 68.6325 116.145 66.6224 114.891" stroke="white" stroke-linecap="round" stroke-linejoin="round"/>
<path d="M81.2191 59.9998C81.9936 57.8037 82.3075 55.4716 82.1412 53.1488C82.1043 52.3609 82.0212 51.5758 81.8922 50.7976L83.4505 48.3264L85.4514 45.1453L83.137 35.9246C83.137 35.9246 68.3839 38.7645 67.2774 42.877C66.1709 46.9894 81.2191 59.9998 81.2191 59.9998Z" fill="white"/>
<path opacity="0.2" d="M82.1597 53.1859C82.1228 52.398 82.0397 51.6128 81.9107 50.8346L83.469 48.3635C80.6603 47.929 78.103 46.4948 76.2676 44.3248C76.1901 46.2344 76.7182 48.1196 77.7764 49.711C78.8346 51.3024 80.3688 52.5187 82.1597 53.1859Z" fill="black" fill-opacity="0.7"/>
<path d="M81.2191 59.9998C81.9936 57.8037 82.3075 55.4716 82.1412 53.1488C82.1043 52.3609 82.0212 51.5758 81.8922 50.7976L83.4505 48.3264L85.4514 45.1453L83.137 35.9246C83.137 35.9246 68.3839 38.7645 67.2774 42.877C66.1709 46.9894 81.2191 59.9998 81.2191 59.9998Z" stroke="#263238" stroke-linecap="round" stroke-linejoin="round"/>
<path d="M71.9611 36.6992C67.3507 24.7123 70.412 4.30689 92.5417 8.21646C105.524 10.5216 107.092 26.2153 102.758 33.1861C98.4245 40.157 103.026 40.3783 96.5066 45.5419C93.8602 47.635 91.7302 51.1849 88.5768 51.4155C84.8239 51.6736 80.02 48.1237 76.4331 44.2879" fill="white"/>
<path d="M71.9611 36.6992C67.3507 24.7123 70.412 4.30689 92.5417 8.21646C105.524 10.5216 107.092 26.2153 102.758 33.1861C98.4245 40.157 103.026 40.3783 96.5066 45.5419C93.8602 47.635 91.7302 51.1849 88.5768 51.4155C84.8239 51.6736 80.02 48.1237 76.4331 44.2879" stroke="#263238" stroke-linecap="round" stroke-linejoin="round"/>
<path d="M93.7683 33.1861C93.7683 33.1861 90.5042 30.217 86.6223 31.4434" stroke="#263238" stroke-linecap="round" stroke-linejoin="round"/>
<path d="M99.8815 33.186C100.319 32.4159 100.929 31.7573 101.663 31.2615C102.397 30.7657 103.236 30.4461 104.114 30.3276" stroke="#263238" stroke-linecap="round" stroke-linejoin="round"/>
<path d="M97.7239 37.5106C97.7239 37.5106 98.1942 39.8988 98.8119 42.3146C99.4297 44.7304 94.9393 43.4119 95.1237 43.043" fill="white"/>
<path d="M97.7239 37.5106C97.7239 37.5106 98.1942 39.8988 98.8119 42.3146C99.4297 44.7304 94.9393 43.4119 95.1237 43.043" stroke="#263238" stroke-linecap="round" stroke-linejoin="round"/>
<path d="M92.8093 46.0582C90.9054 45.5131 89.2112 44.404 87.95 42.8771" stroke="#263238" stroke-linecap="round" stroke-linejoin="round"/>
<path d="M89.2225 36.2197C89.157 36.3359 89.115 36.4639 89.099 36.5964C89.0829 36.7288 89.0932 36.8631 89.1292 36.9916C89.1652 37.1201 89.2261 37.2402 89.3086 37.3451C89.3911 37.45 89.4934 37.5376 89.6098 37.6028C89.8461 37.732 90.1239 37.7628 90.3828 37.6886C90.6417 37.6144 90.8609 37.4411 90.9929 37.2063C91.0774 37.064 91.122 36.9016 91.122 36.7361C91.1876 36.6199 91.2296 36.4919 91.2456 36.3594C91.2616 36.227 91.2513 36.0926 91.2153 35.9642C91.1794 35.8357 91.1184 35.7156 91.0359 35.6107C90.9535 35.5058 90.8511 35.4182 90.7347 35.353C90.4984 35.2238 90.2207 35.1929 89.9618 35.2672C89.7029 35.3414 89.4836 35.5147 89.3516 35.7495C89.2672 35.8918 89.2226 36.0542 89.2225 36.2197Z" fill="#263238"/>
<path d="M99.0702 36.0168C98.8858 36.6807 99.0149 37.3077 99.3653 37.3999C99.7157 37.4921 100.149 37.0311 100.287 36.358C100.426 35.6849 100.333 35.0671 99.9831 34.9749C99.6327 34.8827 99.2731 35.3437 99.0702 36.0168Z" fill="#263238"/>
<path d="M85.608 20.8396C85.608 20.8396 89.0381 29.8113 97.5211 29.6085C97.5211 29.6085 94.5797 27.3678 93.7683 25.2286C93.7683 25.2286 100.297 31.6831 106.816 28.4006C113.335 25.118 110.135 9.84851 100.131 3.81817C90.1261 -2.21217 79.8911 -0.59855 76.4241 5.16439C76.4241 5.16439 69.4164 4.51894 66.3275 14.8185C63.5612 24.0392 67.9872 38.0178 72.3117 38.1745C79.0152 38.4235 80.3614 31.1483 80.3614 31.1483C83.129 28.3336 84.9611 24.7337 85.608 20.8396Z" fill="#263238" stroke="#263238" stroke-linecap="round" stroke-linejoin="round"/>
<path d="M78.2589 36.7453C78.2589 36.7453 78.4709 28.2807 73.6485 29.3042C68.8261 30.3277 72.3208 40.1109 75.9445 40.0095" fill="white"/>
<path d="M78.2589 36.7453C78.2589 36.7453 78.4709 28.2807 73.6485 29.3042C68.8261 30.3277 72.3208 40.1109 75.9445 40.0095" stroke="#263238" stroke-linecap="round" stroke-linejoin="round"/>
<path d="M93.1505 84.2688H167.497C168.327 84.2688 169 84.9417 169 85.7718V88.3628C169 89.1929 168.327 89.8658 167.497 89.8658H93.1505C92.3204 89.8658 91.6475 89.1929 91.6475 88.3628V85.7718C91.6475 84.9417 92.3204 84.2688 93.1505 84.2688Z" fill="#2E94FE" stroke="#263238" stroke-linecap="round" stroke-linejoin="round"/>
</g>
<g clip-path="url(#clip0_215_928)">
<path d="M122.187 88.5657L85.0458 225.567H79.4949L116.627 88.5657H122.187Z" fill="#757575" stroke="#263238" stroke-linecap="round" stroke-linejoin="round"/>
<path d="M0.980675 57.7962L46.4664 225.613H51.9988L6.52233 57.7962C4.84416 51.6091 8.68919 46.5746 15.0976 46.5746H54.2856C60.6847 46.5746 67.2683 51.6091 68.9465 57.7962L114.441 225.613H119.974L74.4881 57.7962C72.0078 48.6401 62.3076 41.199 52.8287 41.199H13.6315C4.18026 41.199 -1.49969 48.6309 0.980675 57.7962Z" fill="#757575" stroke="#263238" stroke-linecap="round" stroke-linejoin="round"/>
<path d="M0.261299 57.8422L11.5474 99.5014C12.0913 101.255 13.1654 102.797 14.6218 103.915C16.0783 105.033 17.8455 105.672 19.6801 105.744H84.0775C84.854 105.805 85.6334 105.67 86.3447 105.353C87.0559 105.035 87.6764 104.545 88.1494 103.926C88.6225 103.307 88.933 102.58 89.0529 101.81C89.1727 101.041 89.0979 100.253 88.8354 99.5198L77.54 57.8607C76.9918 56.1112 75.916 54.574 74.4601 53.4598C73.0042 52.3455 71.2393 51.7088 69.4073 51.6367H5.01918C4.4052 51.5928 3.78857 51.6703 3.20456 51.8648C2.62055 52.0593 2.08062 52.3671 1.61562 52.7704C1.15062 53.1738 0.769676 53.6648 0.494576 54.2155C0.219475 54.7661 0.0556107 55.3656 0.012352 55.9796C-0.0295639 56.6109 0.055069 57.2441 0.261299 57.8422Z" fill="#2E94FE"/>
<path opacity="0.2" d="M0.261292 57.8423L11.5474 99.5015C12.0913 101.255 13.1654 102.797 14.6218 103.915C16.0783 105.033 17.8455 105.672 19.6801 105.744H84.0775C84.854 105.805 85.6334 105.67 86.3447 105.353C87.0559 105.035 87.6764 104.545 88.1494 103.926C88.6225 103.307 88.933 102.58 89.0529 101.81C89.1727 101.041 89.0979 100.253 88.8354 99.5199L77.54 57.8608C76.9918 56.1113 75.916 54.5741 74.4601 53.4599C73.0042 52.3457 71.2393 51.7089 69.4073 51.6368H36.1114C21.7179 66.39 23.5528 93.5818 24.4933 101.788C22.9911 101.426 21.6078 100.682 20.4771 99.6293C19.3464 98.5761 18.5066 97.249 18.0388 95.7763L6.77111 54.108C6.54102 53.3018 6.49377 52.4544 6.6328 51.6276H5.01918C4.24512 51.5721 3.46938 51.7098 2.7617 52.0283C2.05402 52.3468 1.43655 52.8361 0.964806 53.4523C0.49305 54.0685 0.181793 54.7923 0.0589981 55.5586C-0.063797 56.3248 0.00571442 57.1096 0.261292 57.8423Z" fill="black" fill-opacity="0.7"/>
<path d="M0.261298 57.8422L11.5474 99.5014C12.0913 101.255 13.1654 102.797 14.6219 103.915C16.0783 105.033 17.8455 105.672 19.6801 105.744H84.0775C84.854 105.805 85.6334 105.67 86.3447 105.353C87.0559 105.035 87.6764 104.545 88.1494 103.926C88.6225 103.307 88.933 102.58 89.0529 101.81C89.1727 101.041 89.0979 100.253 88.8354 99.5198L77.54 57.8607C76.9918 56.1112 75.916 54.574 74.4601 53.4598C73.0042 52.3455 71.2393 51.7088 69.4073 51.6367H5.01918C4.4052 51.5928 3.78857 51.6703 3.20456 51.8648C2.62055 52.0593 2.08062 52.3671 1.61562 52.7704C1.15062 53.1738 0.769674 53.6648 0.494573 54.2155C0.219471 54.7661 0.0556127 55.3656 0.0123486 55.9796C-0.0295639 56.6109 0.0550693 57.2441 0.261298 57.8422V57.8422Z" stroke="#263238" stroke-linecap="round" stroke-linejoin="round"/>
<path d="M118.148 144.471C122.122 148.519 102.86 212.123 102.86 212.123C104.962 213.967 108.06 214.816 110.993 215.203C113.688 215.538 116.412 215.578 119.116 215.323C119.116 215.323 146.723 148.362 139.125 131.746C131.527 115.131 84.3817 107.588 84.3817 107.588L82.3716 102.609L57.9828 99.1787L53.9534 129.045C53.9534 129.045 57.9551 129.432 63.9763 130.206C80.1217 132.253 110.845 137.094 118.148 144.471Z" fill="#263238"/>
<path d="M118.148 144.471C122.122 148.519 102.86 212.123 102.86 212.123C104.962 213.967 108.06 214.816 110.993 215.203C113.688 215.538 116.412 215.578 119.116 215.323C119.116 215.323 146.723 148.362 139.125 131.746C131.527 115.131 84.3817 107.588 84.3817 107.588L82.3716 102.609L57.9828 99.1787L53.9534 129.045C53.9534 129.045 57.9551 129.432 63.9763 130.206C80.1217 132.253 110.845 137.094 118.148 144.471Z" stroke="#263238" stroke-linecap="round" stroke-linejoin="round"/>
<path d="M131.795 84.2688C135.843 83.5772 107.028 58.3125 107.028 58.3125L93.1324 67.6623C93.1324 67.6623 116.774 84.3149 120.49 84.7667C124.206 85.2185 131.795 84.2688 131.795 84.2688Z" fill="white"/>
<path opacity="0.2" d="M131.795 84.2688C135.843 83.5772 107.028 58.3125 107.028 58.3125L93.1324 67.6623C93.1324 67.6623 116.774 84.3149 120.49 84.7667C124.206 85.2185 131.795 84.2688 131.795 84.2688Z" fill="black" fill-opacity="0.7"/>
<path d="M131.795 84.2688C135.843 83.5772 107.028 58.3125 107.028 58.3125L93.1324 67.6623C93.1324 67.6623 116.774 84.3149 120.49 84.7667C124.206 85.2185 131.795 84.2688 131.795 84.2688Z" stroke="#263238" stroke-linecap="round" stroke-linejoin="round"/>
<path d="M126.733 73.6465C126.733 73.6465 120.693 75.1495 118.84 76.4127C116.986 77.6759 117.521 82.2402 117.521 82.2402C117.521 82.2402 125.571 79.9719 126.733 73.6465Z" fill="white" stroke="#263238" stroke-linecap="round" stroke-linejoin="round"/>
<path d="M130.587 62.0747L119.356 83.6142H118.028L128.696 61.0143L130.587 62.0747Z" fill="#263238"/>
<path d="M120.463 77.6484C120.463 77.6484 127.544 72.6139 129.278 72.6139C131.011 72.6139 136.202 78.7457 136.202 81.8346C136.202 84.9235 124.879 86.6109 122.666 84.0015C121.56 82.7013 123.754 79.5663 123.754 79.5663C122.436 80.9691 121.022 82.2786 119.522 83.4851C118.6 84.0014 116.839 83.3283 116.839 83.3283C116.839 83.3283 119.199 79.5479 120.463 77.6484Z" fill="white" stroke="#263238" stroke-linecap="round" stroke-linejoin="round"/>
<path d="M123.754 84.7115C125.387 82.6384 127.391 80.8874 129.665 79.5479" stroke="#263238" stroke-linecap="round" stroke-linejoin="round"/>
<path d="M123.754 79.5478C123.754 79.5478 126.207 77.4086 127.857 76.9384" stroke="#263238" stroke-linecap="round" stroke-linejoin="round"/>
<path d="M131.472 82.2678C129.757 83.1466 128.103 84.1384 126.52 85.2369" stroke="#263238" stroke-linecap="round" stroke-linejoin="round"/>
<path d="M98.0009 47.2661C101.625 49.7926 117.899 66.5282 117.899 66.5282C117.899 66.5282 110.274 75.2048 103.589 76.4589L85.4699 67.6623L98.0009 47.2661Z" fill="#2E94FE" stroke="#263238" stroke-linecap="round" stroke-linejoin="round"/>
<path opacity="0.4" d="M98.0009 47.2661C101.625 49.7926 117.899 66.5282 117.899 66.5282C117.899 66.5282 110.274 75.2048 103.589 76.4589L85.4699 67.6623L98.0009 47.2661Z" fill="white" stroke="#263238" stroke-linecap="round" stroke-linejoin="round"/>
<path d="M77.4113 101.797C69.6013 90.6588 33.6959 104.066 33.6959 104.066C33.6959 104.066 30.275 130.879 44.5763 138.035C58.8776 145.19 79.4951 144.803 85.0644 150.603L107.729 217.526C107.729 217.526 115.871 220.929 127.71 215.572C127.71 215.572 113.317 165.033 109.094 147.09C104.917 129.33 77.8723 117.279 77.8723 117.279C79.2663 115.632 80.3222 113.727 80.9797 111.673" fill="#263238"/>
<path d="M77.4113 101.797C69.6013 90.6588 33.6959 104.066 33.6959 104.066C33.6959 104.066 30.275 130.879 44.5763 138.035C58.8776 145.19 79.4951 144.803 85.0644 150.603L107.729 217.526C107.729 217.526 115.871 220.929 127.71 215.572C127.71 215.572 113.317 165.033 109.094 147.09C104.917 129.33 77.8723 117.279 77.8723 117.279C79.2663 115.632 80.3222 113.727 80.9797 111.673" stroke="#263238" stroke-linecap="round" stroke-linejoin="round"/>
<path d="M38.1216 104.72C35.1894 111.083 34.9589 119.16 39.0437 125.052" stroke="white" stroke-linecap="round" stroke-linejoin="round"/>
<path d="M46.3002 105.744C46.3002 105.744 47.0471 110.649 44.8618 112.595C42.6765 114.54 35.973 115.527 35.973 115.527" stroke="white" stroke-linecap="round" stroke-linejoin="round"/>
<path d="M75.7331 105.965C75.7331 105.965 75.4288 110.852 77.4113 110.622C79.3937 110.391 79.4951 112.576 79.4951 112.576" stroke="white" stroke-linecap="round" stroke-linejoin="round"/>
<path d="M97.5213 51.0282C97.8235 49.7965 97.9844 48.5343 98.0007 47.2661C98.0007 47.2661 86.9359 37.9348 72.6899 37.9901C55.7238 38.0454 45.3505 43.3842 41.2012 50.7977C34.6176 62.5264 33.6955 104.066 33.6955 104.066C33.6955 104.066 76.2675 110.631 82.3717 102.581C83.432 101.18 82.6206 91.2858 82.6206 91.2858C82.6206 91.2858 87.3877 78.7825 88.3928 69.0823C89.7935 67.1518 91.0952 65.1514 92.2931 63.0889C93.8091 60.5499 95.1225 57.8953 96.2211 55.1498" fill="#2E94FE"/>
<path d="M97.5213 51.0282C97.8235 49.7965 97.9844 48.5343 98.0007 47.2661C98.0007 47.2661 86.9359 37.9348 72.6899 37.9901C55.7238 38.0454 45.3505 43.3842 41.2012 50.7977C34.6176 62.5264 33.6955 104.066 33.6955 104.066C33.6955 104.066 76.2675 110.631 82.3717 102.581C83.432 101.18 82.6206 91.2858 82.6206 91.2858C82.6206 91.2858 87.3877 78.7825 88.3928 69.0823C89.7935 67.1518 91.0952 65.1514 92.2931 63.0889C93.8091 60.5499 95.1225 57.8953 96.2211 55.1498" stroke="#263238" stroke-linecap="round" stroke-linejoin="round"/>
<g opacity="0.6">
<path d="M97.5213 51.0282C97.8235 49.7965 97.9844 48.5343 98.0007 47.2661C98.0007 47.2661 86.9359 37.9348 72.6899 37.9901C55.7238 38.0454 45.3505 43.3842 41.2012 50.7977C34.6176 62.5264 33.6955 104.066 33.6955 104.066C33.6955 104.066 76.2675 110.631 82.3717 102.581C83.432 101.18 82.6206 91.2858 82.6206 91.2858C82.6206 91.2858 87.3877 78.7825 88.3928 69.0823C89.7935 67.1518 91.0952 65.1514 92.2931 63.0889C93.8091 60.5499 95.1225 57.8953 96.2211 55.1498" fill="white"/>
<path d="M97.5213 51.0282C97.8235 49.7965 97.9844 48.5343 98.0007 47.2661C98.0007 47.2661 86.9359 37.9348 72.6899 37.9901C55.7238 38.0454 45.3505 43.3842 41.2012 50.7977C34.6176 62.5264 33.6955 104.066 33.6955 104.066C33.6955 104.066 76.2675 110.631 82.3717 102.581C83.432 101.18 82.6206 91.2858 82.6206 91.2858C82.6206 91.2858 87.3877 78.7825 88.3928 69.0823C89.7935 67.1518 91.0952 65.1514 92.2931 63.0889C93.8091 60.5499 95.1225 57.8953 96.2211 55.1498" stroke="#263238" stroke-linecap="round" stroke-linejoin="round"/>
</g>
<path d="M81.219 61.0143C81.219 61.0143 74.7184 86.2329 75.6866 91.7838C75.9178 93.6991 75.5979 95.6407 74.7645 97.3807C75.6139 98.2741 76.1602 99.4125 76.3257 100.634C76.4913 101.856 76.2676 103.098 75.6866 104.186" stroke="#263238" stroke-linecap="round" stroke-linejoin="round"/>
<path d="M63.9765 81.8807C65.1376 81.8365 66.2654 81.4798 67.2406 80.848L69.1677 72.4018C65.3443 72.7496 61.4897 72.4787 57.7525 71.5996L55.6871 80.8203C56.8483 81.1441 58.0275 81.3996 59.2186 81.5856" stroke="#263238" stroke-linecap="round" stroke-linejoin="round"/>
<path d="M85.8386 64.2968C85.8386 64.2968 91.371 40.7287 77.4109 37.9901C63.4507 35.2516 60.5831 41.7706 61.4037 46.1873C62.501 52.0793 74.073 66.5282 74.073 66.5282L81.219 60.9958L85.8386 64.2968Z" fill="#2E94FE" stroke="#263238" stroke-linecap="round" stroke-linejoin="round"/>
<path opacity="0.4" d="M85.8386 64.2968C85.8386 64.2968 91.371 40.7287 77.4109 37.9901C63.4507 35.2516 60.5831 41.7706 61.4037 46.1873C62.501 52.0793 74.073 66.5282 74.073 66.5282L81.219 60.9958L85.8386 64.2968Z" fill="white" stroke="#263238" stroke-linecap="round" stroke-linejoin="round"/>
<path d="M51.0581 82.692C51.0581 82.692 47.3698 88.916 32.1833 88.3443C35.0097 85.3181 38.5848 83.0916 42.5474 81.8898C48.7529 80.2301 51.0581 82.692 51.0581 82.692Z" fill="#2E94FE" stroke="#263238" stroke-linecap="round" stroke-linejoin="round"/>
<path d="M109.979 85.1909C109.979 85.1909 106.456 79.7323 103.229 78.635C100.002 77.5377 90.5231 77.4455 89.057 77.4086C87.5909 77.3717 61.5424 83.9922 49.3158 88.0677L50.3854 67.6624L33.9541 68.9624C33.9541 68.9624 34.618 93.8584 37.1721 100.451C39.7262 107.044 43.3869 105.44 49.6293 102.747C74.184 92.171 88.5683 84.8036 89.9053 85.2278C91.2423 85.6519 109.979 85.1909 109.979 85.1909Z" fill="white" stroke="#263238" stroke-linecap="round" stroke-linejoin="round"/>
<path d="M54.4883 55.8044C54.9176 57.4961 55.0549 59.2486 54.894 60.9865C54.1656 67.3672 51.0582 82.692 51.0582 82.692C51.0582 82.692 35.7426 84.8773 32.1834 88.3443C32.1834 88.3443 29.6569 68.0587 34.8021 57.7592C39.9473 47.4597 45.2676 46.3255 45.2676 46.3255C48.6332 45.4957 51.7221 48.6307 53.4279 52.6602" fill="#2E94FE"/>
<path d="M54.4883 55.8044C54.9176 57.4961 55.0549 59.2486 54.894 60.9865C54.1656 67.3672 51.0582 82.692 51.0582 82.692C51.0582 82.692 35.7426 84.8773 32.1834 88.3443C32.1834 88.3443 29.6569 68.0587 34.8021 57.7592C39.9473 47.4597 45.2676 46.3255 45.2676 46.3255C48.6332 45.4957 51.7221 48.6307 53.4279 52.6602" stroke="#263238" stroke-linecap="round" stroke-linejoin="round"/>
<g opacity="0.4">
<g opacity="0.4">
<path d="M54.4883 55.8044C54.9176 57.4961 55.0549 59.2486 54.894 60.9865C54.1656 67.3672 51.0582 82.692 51.0582 82.692C51.0582 82.692 35.7426 84.8773 32.1834 88.3443C32.1834 88.3443 29.6569 68.0587 34.8021 57.7592C39.9473 47.4597 45.2676 46.3255 45.2676 46.3255C48.6332 45.4957 51.7221 48.6307 53.4279 52.6602" fill="white"/>
<path d="M54.4883 55.8044C54.9176 57.4961 55.0549 59.2486 54.894 60.9865C54.1656 67.3672 51.0582 82.692 51.0582 82.692C51.0582 82.692 35.7426 84.8773 32.1834 88.3443C32.1834 88.3443 29.6569 68.0587 34.8021 57.7592C39.9473 47.4597 45.2676 46.3255 45.2676 46.3255C48.6332 45.4957 51.7221 48.6307 53.4279 52.6602" stroke="#263238" stroke-linecap="round" stroke-linejoin="round"/>
</g>
</g>
<path d="M99.4854 63.6974C97.1924 65.5735 94.5177 66.9267 91.6478 67.6623" stroke="#263238" stroke-linecap="round" stroke-linejoin="round"/>
<path d="M51.0581 63.6974C51.0581 63.6974 45.5257 74.1537 38.5364 76.4588" stroke="#263238" stroke-linecap="round" stroke-linejoin="round"/>
<path d="M81.2194 59.9998C81.9939 57.8037 82.3078 55.4716 82.1414 53.1488C82.1046 52.3609 82.0214 51.5758 81.8925 50.7976L83.4508 48.3264L85.4517 45.1453L83.1373 35.9246C83.1373 35.9246 68.3841 38.7645 67.2776 42.877C66.1712 46.9894 81.2194 59.9998 81.2194 59.9998Z" fill="white"/>
<path opacity="0.2" d="M82.1599 53.1859C82.1231 52.398 82.04 51.6128 81.911 50.8346L83.4692 48.3635C80.6606 47.929 78.1033 46.4948 76.2679 44.3248C76.1904 46.2344 76.7185 48.1196 77.7767 49.711C78.8349 51.3024 80.369 52.5187 82.1599 53.1859Z" fill="black" fill-opacity="0.7"/>
<path d="M81.2194 59.9998C81.9939 57.8037 82.3078 55.4716 82.1414 53.1488C82.1046 52.3609 82.0214 51.5758 81.8925 50.7976L83.4508 48.3264L85.4517 45.1453L83.1373 35.9246C83.1373 35.9246 68.3841 38.7645 67.2776 42.877C66.1711 46.9894 81.2194 59.9998 81.2194 59.9998Z" stroke="#263238" stroke-linecap="round" stroke-linejoin="round"/>
<path d="M71.9613 36.6992C67.351 24.7123 70.4122 4.30689 92.5419 8.21646C105.525 10.5216 107.092 26.2153 102.758 33.1861C98.4247 40.157 103.026 40.3783 96.5068 45.5419C93.8605 47.635 91.7305 51.1849 88.577 51.4155C84.8242 51.6736 80.0202 48.1237 76.4333 44.2879" fill="white"/>
<path d="M71.9613 36.6992C67.351 24.7123 70.4122 4.30689 92.5419 8.21646C105.525 10.5216 107.092 26.2153 102.758 33.1861C98.4247 40.157 103.026 40.3783 96.5068 45.5419C93.8605 47.635 91.7305 51.1849 88.577 51.4155C84.8242 51.6736 80.0202 48.1237 76.4334 44.2879" stroke="#263238" stroke-linecap="round" stroke-linejoin="round"/>
<path d="M93.7686 33.1861C93.7686 33.1861 90.5044 30.217 86.6225 31.4434" stroke="#263238" stroke-linecap="round" stroke-linejoin="round"/>
<path d="M99.8817 33.186C100.32 32.4159 100.929 31.7573 101.663 31.2615C102.397 30.7657 103.236 30.4461 104.114 30.3276" stroke="#263238" stroke-linecap="round" stroke-linejoin="round"/>
<path d="M97.7242 37.5106C97.7242 37.5106 98.1944 39.8988 98.8122 42.3146C99.43 44.7304 94.9395 43.4119 95.1239 43.043" fill="white"/>
<path d="M97.7242 37.5106C97.7242 37.5106 98.1944 39.8988 98.8122 42.3146C99.43 44.7304 94.9395 43.4119 95.1239 43.043" stroke="#263238" stroke-linecap="round" stroke-linejoin="round"/>
<path d="M92.8096 46.0582C90.9056 45.5131 89.2115 44.404 87.9503 42.8771" stroke="#263238" stroke-linecap="round" stroke-linejoin="round"/>
<path d="M89.2228 36.2197C89.1572 36.3359 89.1152 36.4639 89.0992 36.5964C89.0832 36.7288 89.0935 36.8631 89.1294 36.9916C89.1654 37.1201 89.2264 37.2402 89.3088 37.3451C89.3913 37.45 89.4937 37.5376 89.61 37.6028C89.8464 37.732 90.1241 37.7628 90.383 37.6886C90.6419 37.6144 90.8612 37.4411 90.9932 37.2063C91.0776 37.064 91.1222 36.9016 91.1223 36.7361C91.1878 36.6199 91.2298 36.4919 91.2458 36.3594C91.2619 36.227 91.2516 36.0926 91.2156 35.9642C91.1796 35.8357 91.1186 35.7156 91.0362 35.6107C90.9537 35.5058 90.8513 35.4182 90.735 35.353C90.4986 35.2238 90.2209 35.1929 89.962 35.2672C89.7031 35.3414 89.4839 35.5147 89.3519 35.7495C89.2674 35.8918 89.2228 36.0542 89.2228 36.2197Z" fill="#263238"/>
<path d="M99.0705 36.0168C98.8861 36.6807 99.0152 37.3077 99.3655 37.3999C99.7159 37.4921 100.149 37.0311 100.288 36.358C100.426 35.6849 100.334 35.0671 99.9833 34.9749C99.6329 34.8827 99.2733 35.3437 99.0705 36.0168Z" fill="#263238"/>
<path d="M85.6082 20.8396C85.6082 20.8396 89.0383 29.8113 97.5214 29.6085C97.5214 29.6085 94.5799 27.3678 93.7685 25.2286C93.7685 25.2286 100.297 31.6831 106.816 28.4006C113.335 25.118 110.135 9.84851 100.131 3.81817C90.1263 -2.21217 79.8914 -0.59855 76.4244 5.16439C76.4244 5.16439 69.4166 4.51894 66.3277 14.8185C63.5615 24.0392 67.9874 38.0178 72.312 38.1745C79.0154 38.4235 80.3616 31.1483 80.3616 31.1483C83.1292 28.3336 84.9613 24.7337 85.6082 20.8396Z" fill="#263238" stroke="#263238" stroke-linecap="round" stroke-linejoin="round"/>
<path d="M78.2591 36.7453C78.2591 36.7453 78.4712 28.2807 73.6488 29.3042C68.8263 30.3277 72.321 40.1109 75.9447 40.0095" fill="white"/>
<path d="M78.2591 36.7453C78.2591 36.7453 78.4712 28.2807 73.6488 29.3042C68.8263 30.3277 72.321 40.1109 75.9447 40.0095" stroke="#263238" stroke-linecap="round" stroke-linejoin="round"/>
<path d="M93.1507 84.2688H167.497C168.327 84.2688 169 84.9417 169 85.7718V88.3628C169 89.1929 168.327 89.8658 167.497 89.8658H93.1507C92.3207 89.8658 91.6478 89.1929 91.6478 88.3628V85.7718C91.6478 84.9417 92.3207 84.2688 93.1507 84.2688Z" fill="#2E94FE" stroke="#263238" stroke-linecap="round" stroke-linejoin="round"/>
</g>
<defs>
<clipPath id="clip0_215_928">
<rect width="169" height="109" fill="white"/>
</clipPath>
</defs>
</svg>
