<svg width="152" height="176" viewBox="0 0 152 176" fill="none" xmlns="http://www.w3.org/2000/svg">
<rect x="0.000732422" y="24" width="152" height="152" rx="76" fill="#199F84" fill-opacity="0.3"/>
<mask id="mask0_215_934" style="mask-type:alpha" maskUnits="userSpaceOnUse" x="0" y="24" width="153" height="152">
<rect x="0.000732422" y="24" width="152" height="152" rx="76" fill="#2E94FE"/>
</mask>
<g mask="url(#mask0_215_934)">
<path d="M37.8636 159.538C37.8636 159.538 33.5338 169.284 35.6987 184.803C37.8636 200.322 45.0875 220.9 45.0875 220.9C56.282 223.806 67.8035 225.261 79.3689 225.229C98.8607 225.229 108.234 220.535 108.234 220.535C108.234 220.535 115.451 193.105 115.451 177.943C115.451 162.781 111.478 154.129 111.478 154.129C111.478 154.129 76.8318 161.726 44.7077 150.878L37.8636 159.538Z" fill="#263238" stroke="#263238" stroke-width="0.950299" stroke-linecap="round" stroke-linejoin="round"/>
<path d="M72.875 81.5786L56.6344 80.4923C56.6344 80.4923 60.6072 106.843 54.8265 123.084C49.0458 139.324 44.7236 150.878 44.7236 150.878L40.7509 158.474C49.1658 161.452 57.8789 163.507 66.7373 164.604C80.0989 166.048 92.3667 166.777 98.8614 165.326C103.276 164.291 107.618 162.967 111.858 161.361C111.858 161.361 99.583 129.943 99.583 112.981C99.6129 102.922 98.3076 92.9042 95.7014 83.1889L89.4497 82.4293L72.875 81.5786Z" fill="white" stroke="#263238" stroke-width="0.950299" stroke-linecap="round" stroke-linejoin="round"/>
<path d="M89.0538 100.949L84.0555 166.025L88.4309 166.648L89.0538 100.949Z" fill="#263238" stroke="#263238" stroke-width="0.950299" stroke-linecap="round" stroke-linejoin="round"/>
<path d="M71.7957 63.3477C72.5553 64.5706 71.7501 75.5015 71.6361 77.6968C71.5222 79.8921 70.5423 81.4948 68.1875 80.8568C63.1209 79.4287 64.2147 82.8394 64.2147 82.8394C64.2147 82.8394 63.4931 90.7849 67.4583 97.272C71.4235 103.759 82.0808 105.028 86.95 101.966C91.8191 98.9052 92.5483 83.994 92.5483 83.994L89.4491 82.4747C88.6491 82.0748 87.9798 81.4551 87.5197 80.6881C87.0595 79.9212 86.8276 79.039 86.8512 78.1449L87.3146 69.5081C87.3146 69.5081 76.6648 70.9286 71.7957 63.3477Z" fill="white" stroke="#263238" stroke-width="0.950299" stroke-linecap="round" stroke-linejoin="round"/>
<path d="M87.3149 69.4853C87.3149 69.4853 76.6803 70.9286 71.796 63.3477C72.51 64.4719 71.8795 73.6936 71.6744 76.9524C73.1037 78.1224 74.8087 78.9069 76.6271 79.2312C80.2201 79.6414 83.9878 78.1373 86.9579 76.2459L87.3149 69.4853Z" fill="#263238" stroke="#263238" stroke-width="0.950299" stroke-linecap="round" stroke-linejoin="round"/>
<path d="M70.1778 80.3175C70.1778 80.3175 61.146 79.9605 53.0257 79.7782C44.9054 79.5959 40.9326 80.3251 37.8334 81.9507C34.7342 83.5763 14.7335 102.156 13.4726 105.225C12.2116 108.294 10.9127 111.948 18.6759 112.13C26.4392 112.313 42.5278 107.39 42.5278 107.39C42.5278 107.39 48.5136 123.084 47.997 130.125C47.4805 137.167 42.7633 147.809 38.7905 154.129C34.8177 160.449 34.8177 163.328 34.8177 163.328C34.8177 163.328 39.1551 170.37 50.519 173.074C57.2092 174.688 64.0392 175.655 70.9146 175.961L69.1067 135.359L70.1778 80.3175Z" fill="#199F84" stroke="#263238" stroke-width="0.950299" stroke-linecap="round" stroke-linejoin="round"/>
<path d="M39.6795 99.2169L42.5584 107.383L38.2666 102.035" stroke="#263238" stroke-width="0.950299" stroke-linecap="round" stroke-linejoin="round"/>
<path d="M35.6989 98.9054L13.2144 110.558C14.0271 111.454 15.6755 112.077 18.7064 112.123C21.2032 112.096 23.6923 111.841 26.143 111.363L35.6989 98.9054Z" fill="#263238" stroke="#263238" stroke-width="0.950299" stroke-linecap="round" stroke-linejoin="round"/>
<path d="M62.9612 80.272C62.9612 85.5893 62.9612 104.625 63.8499 114.06C64.6095 121.99 67.5644 131.781 69.1672 136.651L69.1065 135.359L70.1775 80.3175C70.1775 80.3175 67.1239 80.3175 62.9612 80.272Z" fill="#199F84" stroke="#263238" stroke-width="0.950299" stroke-linecap="round" stroke-linejoin="round"/>
<path d="M89.4495 82.4521C89.4495 82.4521 88.2189 123.988 87.8543 129.943C87.4897 135.899 85.5071 176.5 85.5071 176.5C91.2567 176.493 96.9314 175.195 102.112 172.702C110.772 168.547 115.466 165.478 116.545 163.678C117.624 161.877 115.641 158.444 114.015 153.21C112.39 147.976 110.043 140.031 109.503 137.327C108.964 134.622 109.321 127.945 109.321 127.945C109.321 127.945 117.988 136.423 120.51 135.701C123.032 134.979 140.002 139.856 140.366 138.588C140.731 137.319 126.283 111.34 121.232 99.9689C116.18 88.5974 108.964 85.6121 104.087 84.5259C99.2105 83.4396 89.4495 82.4521 89.4495 82.4521Z" fill="#199F84" stroke="#263238" stroke-width="0.950299" stroke-linecap="round" stroke-linejoin="round"/>
<path d="M95.7009 83.1889C92.3054 82.7484 89.4492 82.4293 89.4492 82.4293C89.4492 82.4293 88.2186 123.965 87.854 129.92C87.7629 131.394 87.573 134.995 87.3451 139.583C88.9555 134.66 92.6624 122.757 93.8094 114.759C94.9488 106.653 95.4578 89.357 95.7009 83.1889Z" fill="#199F84" stroke="#263238" stroke-width="0.950299" stroke-linecap="round" stroke-linejoin="round"/>
<path d="M101.391 93.8463L88.3936 134.82L90.5585 136.438L104.095 95.1149L101.391 93.8463Z" fill="#263238" stroke="#263238" stroke-width="0.950299" stroke-linecap="round" stroke-linejoin="round"/>
<path d="M104.095 95.115L128.82 104.139L114.562 140.775L90.5582 136.438L104.095 95.115Z" fill="white" stroke="#263238" stroke-width="0.950299" stroke-linecap="round" stroke-linejoin="round"/>
<path d="M102.469 99.9841L89.4797 140.95L91.6446 142.576L105.181 101.253L102.469 99.9841Z" fill="#263238" stroke="#263238" stroke-width="0.950299" stroke-linecap="round" stroke-linejoin="round"/>
<path d="M105.181 101.253L129.907 110.269L115.649 146.906L91.6449 142.576L105.181 101.253Z" fill="white" stroke="#263238" stroke-width="0.950299" stroke-linecap="round" stroke-linejoin="round"/>
<path d="M101.93 112.616C101.93 112.616 97.0607 109.73 95.4351 109.578C95.0795 109.515 94.7146 109.528 94.3644 109.617C94.0143 109.705 93.6867 109.866 93.4034 110.09C93.12 110.314 92.8872 110.595 92.7202 110.915C92.5533 111.236 92.4559 111.587 92.4346 111.948C92.4046 112.723 92.5232 113.496 92.7841 114.227C92.7841 114.227 91.0218 114.698 90.2014 119.362C89.9127 121.003 89.1151 122.248 90.2014 123.517C91.9329 125.437 94.3085 126.656 96.8784 126.943C99.5654 127.348 102.219 127.953 104.816 128.751C108.667 132.726 112.778 136.441 117.122 139.871C123.617 144.923 129.39 150.696 134.267 149.792C139.143 148.888 142.205 143.297 140.404 138.603C138.604 133.908 112.792 123.449 111.888 123.084C111.042 122.641 110.253 122.095 109.541 121.458C109.541 121.458 109.541 117.493 108.637 115.685C107.733 113.877 104.839 111.173 104.839 108.651C104.839 106.129 105.021 105.035 103.578 105.4C102.135 105.765 101.208 110.269 101.93 112.616Z" fill="white" stroke="#263238" stroke-width="0.950299" stroke-linecap="round" stroke-linejoin="round"/>
<path d="M67.5494 48.1175C67.5494 48.1175 65.2705 42.3748 63.5918 46.2032C61.5408 50.9432 65.506 55.6453 66.5315 56.2833C67.557 56.9214 67.5494 48.1175 67.5494 48.1175Z" fill="white" stroke="#263238" stroke-width="0.950299" stroke-linecap="round" stroke-linejoin="round"/>
<path d="M100.502 52.2119C100.502 52.2119 103.426 48.6113 104.3 51.7637C105.173 54.9161 102.499 58.0685 100.502 59.4206C98.5039 60.7727 97.7975 62.573 97.7975 60.0967C97.7975 57.6203 100.502 52.2119 100.502 52.2119Z" fill="white" stroke="#263238" stroke-width="0.950299" stroke-linecap="round" stroke-linejoin="round"/>
<path d="M83.6306 3.83962C83.6306 3.83962 78.9058 0.398568 75.7155 4.34856C72.5251 8.29856 75.8446 11.2459 73.543 12.1346C71.2413 13.0234 69.7449 8.94423 64.9973 12.8942C60.2497 16.8442 63.3413 20.0422 63.592 21.4399C63.8427 22.8376 62.9539 22.8452 59.3837 24.3796C55.8135 25.914 53.8993 29.6057 58.6241 33.4342C63.3489 37.2627 65.643 31.7782 66.281 34.3305C66.9191 36.8829 66.281 39.0553 69.4714 38.8882C72.6618 38.7211 79.0426 33.5254 83.0002 35.9485C86.9577 38.3717 91.2875 44.5018 94.2273 42.5876C97.167 40.6733 98.1848 37.3538 100.737 39.0174C103.289 40.6809 106.86 41.4405 108.903 36.2068C110.946 30.9731 106.86 29.188 107.498 26.385C108.136 23.582 111.706 19.8751 108.645 15.5377C105.583 11.2003 102.522 15.7884 99.3319 11.7396C96.1415 7.69087 99.461 3.44462 95.3743 1.14299C94.3933 0.57845 93.3103 0.213672 92.1877 0.0696838C91.065 -0.0743044 89.925 0.00534413 88.8333 0.304041C87.7416 0.602738 86.7199 1.11458 85.8269 1.81004C84.934 2.5055 84.1876 3.37084 83.6306 4.35616" fill="#263238"/>
<path d="M72.5784 33.0316C72.5784 33.0316 67.846 37.0879 67.3979 42.2685C66.9497 47.449 64.9215 59.8307 67.17 64.5631C69.4184 69.2955 75.0396 75.9574 80.0075 76.4967C86.9883 77.3019 94.6452 70.868 95.7695 68.3916C96.8937 65.9153 103.001 48.3454 101.626 40.4606C99.8258 30.107 82.4838 23.3465 72.5784 33.0316Z" fill="white" stroke="#263238" stroke-width="0.950299" stroke-linecap="round" stroke-linejoin="round"/>
<path d="M101.626 40.4606C99.8259 30.107 82.4839 23.3465 72.5785 33.0316C72.5785 33.0316 67.8461 37.0879 67.3979 42.2685C67.2688 43.7345 67.0181 45.7779 66.7675 48.0643C68.1641 46.8925 69.0406 45.2159 69.2058 43.4003C69.4641 40.2099 72.1455 36.8904 82.3547 35.4851C92.564 34.0798 98.3066 41.6152 99.1954 44.289C100.084 46.9629 98.8156 50.5407 99.4537 52.3334C99.5102 52.5882 99.6191 52.8285 99.7734 53.039C99.9277 53.2495 100.124 53.4257 100.35 53.5563C101.474 48.7024 102.196 43.7421 101.626 40.4606Z" fill="#263238"/>
<path d="M81.2149 20.4219C81.1081 20.5313 81.0091 20.6481 80.9186 20.7713C80.0755 21.9715 79.3994 22.0475 78.0093 21.5765C74.9709 20.5586 72.3958 21.9639 72.5249 24.5162C72.654 27.0685 73.8011 26.6811 71.507 28.3143C69.213 29.9475 67.2912 31.1249 68.5673 34.1861C69.8435 37.2474 73.0642 35.6142 73.0642 37.7791C73.0642 39.944 72.9351 42.7546 76.1027 42.7546C79.2703 42.7546 81.4656 38.9565 82.3619 40.9695C83.2583 42.9825 84.2761 45.945 87.0791 45.4284C89.8821 44.9119 91.4165 40.4529 94.2271 42.6254C97.0377 44.7979 98.5645 46.7046 100.099 44.9043C101.633 43.104 99.9698 40.4377 102.013 39.2907C104.057 38.1437 105.963 37.6348 104.816 33.8063C103.669 29.9779 102.013 31.8921 100.737 28.9524C99.4608 26.0127 99.7115 22.8299 97.2883 22.3209C94.8652 21.812 93.7182 23.468 91.4165 23.2173C89.4567 22.997 88.6819 20.6118 87.0259 19.8142C85.37 19.0166 82.5974 19.0546 81.2149 20.4219Z" fill="#263238" stroke="#787878" stroke-width="0.950299" stroke-linecap="round" stroke-linejoin="round"/>
<path d="M84.7927 51.2927C84.7927 51.2927 83.6684 54.4451 84.1166 56.4733C84.5648 58.5015 85.6966 60.2714 83.8887 60.5296C82.0808 60.7879 80.7363 59.6257 80.7363 58.5015" stroke="#263238" stroke-width="0.950299" stroke-linecap="round" stroke-linejoin="round"/>
<path d="M76.6497 61.3273C77.3695 62.2662 78.287 63.0353 79.3371 63.5801C80.3873 64.1248 81.5445 64.432 82.7266 64.4797C85.0554 64.4627 87.3276 63.7599 89.2593 62.4591" stroke="#263238" stroke-width="0.950299" stroke-linecap="round" stroke-linejoin="round"/>
<path d="M79.5133 51.2472C79.4069 52.303 78.8524 53.1158 78.2751 53.055C77.6978 52.9943 77.3104 52.0979 77.4167 51.0421C77.5231 49.9862 78.0776 49.181 78.6549 49.2342C79.2322 49.2874 79.6196 50.1913 79.5133 51.2472Z" fill="#263238"/>
<path d="M89.844 53.1007C89.7376 54.1566 89.1831 54.9618 88.6058 54.9086C88.0285 54.8554 87.6411 53.9439 87.7474 52.888C87.8538 51.8321 88.4083 51.027 88.9856 51.0801C89.5629 51.1333 89.9503 52.0448 89.844 53.1007Z" fill="#263238"/>
<path d="M83.3954 48.9303C83.4223 50.3525 83.0265 51.7507 82.2582 52.9478C81.4898 54.1448 80.3835 55.087 79.0793 55.6548C77.7751 56.2226 76.3317 56.3906 74.9319 56.1375C73.5322 55.8843 72.2391 55.2215 71.2163 54.2328C70.1936 53.2442 69.4873 51.9743 69.1869 50.5839C68.8865 49.1935 69.0054 47.7453 69.5287 46.4226C70.052 45.0999 70.9561 43.9623 72.1265 43.1538C73.2968 42.3453 74.6808 41.9024 76.1031 41.8811C78.0032 41.8546 79.8367 42.5811 81.203 43.9018C82.5693 45.2226 83.3575 47.0303 83.3954 48.9303V48.9303Z" stroke="#263238" stroke-width="0.950299" stroke-linecap="round" stroke-linejoin="round"/>
<path d="M99.3623 51.9766C99.3891 53.3974 98.994 54.7944 98.2269 55.9907C97.4598 57.187 96.3552 58.129 95.0528 58.6977C93.7504 59.2663 92.3086 59.4359 90.9098 59.1852C89.5109 58.9344 88.2178 58.2745 87.194 57.2889C86.1702 56.3033 85.4616 55.0363 85.1578 53.648C84.854 52.2597 84.9687 50.8125 85.4873 49.4894C86.006 48.1663 86.9053 47.0267 88.0716 46.2146C89.2379 45.4026 90.6188 44.9546 92.0396 44.9273C93.945 44.8927 95.7862 45.6156 97.1591 46.9372C98.532 48.2589 99.3244 50.0713 99.3623 51.9766Z" stroke="#263238" stroke-width="0.950299" stroke-linecap="round" stroke-linejoin="round"/>
<path d="M83.4103 49.6975L85.089 50.0849" stroke="#263238" stroke-width="0.950299" stroke-linecap="round" stroke-linejoin="round"/>
<path d="M69.1221 47.0389L66.8812 46.5223" stroke="#263238" stroke-width="0.950299" stroke-linecap="round" stroke-linejoin="round"/>
<path d="M99.3623 51.9764L101.041 52.2879" stroke="#263238" stroke-width="0.950299" stroke-linecap="round" stroke-linejoin="round"/>
<path d="M74.4926 46.1351C75.3079 45.4295 76.2881 44.9411 77.3425 44.7154C78.3969 44.4897 79.4911 44.5338 80.5239 44.8438" stroke="#263238" stroke-width="0.950299" stroke-linecap="round" stroke-linejoin="round"/>
<path d="M94.85 50.6015C94.3394 49.6506 93.5967 48.8442 92.691 48.2573C91.7853 47.6703 90.7459 47.3217 89.6694 47.244" stroke="#263238" stroke-width="0.950299" stroke-linecap="round" stroke-linejoin="round"/>
<path d="M59.6648 51.4524C61.2279 49.2449 62.9572 47.16 64.8378 45.2159C67.5724 42.4737 71.2261 41.2584 71.2261 42.9371C71.2261 44.6158 68.7954 44.9121 67.1166 47.039C65.4379 49.1659 61.4879 54.8023 61.3359 56.3215C61.184 57.8407 61.3359 60.431 64.0782 59.9753C66.8204 59.5195 69.8588 56.9368 71.2261 56.0177C72.5934 55.0985 76.3991 56.0177 75.0242 57.2406C73.6493 58.4636 71.2261 59.0637 69.2435 60.7349C67.2609 62.406 64.0706 65.7559 62.407 66.675C60.7435 67.5942 59.5205 68.1943 59.5205 68.1943C59.5205 68.1943 58.9128 68.802 56.7783 72.4557C54.6437 76.1095 47.9515 86.6073 43.8648 91.1726C39.7781 95.7379 24.3883 110.923 20.5902 112.32C16.7922 113.718 7.50207 112.472 6.15755 107.603C4.81303 102.734 7.98063 97.1052 14.8248 92.2361C21.6689 87.367 41.153 76.1019 45.4144 73.823C49.6759 71.5442 51.347 70.3212 51.4913 69.1058C51.6357 67.8904 53.6183 59.9904 55.4489 56.7773C56.5831 54.8035 58.0038 53.009 59.6648 51.4524Z" fill="white" stroke="#263238" stroke-width="0.950299" stroke-linecap="round" stroke-linejoin="round"/>
<path d="M54.7499 59.2231C54.7499 59.2231 55.5095 53.8071 56.3147 53.0854C57.1199 52.3638 61.9662 52.4853 62.9309 52.9639C63.8956 53.4424 63.888 57.7799 63.531 58.7446C63.174 59.7093 62.5663 60.3018 62.2093 59.9447C61.8523 59.5877 61.123 55.972 61.123 55.972L58.6011 55.6149L57.758 59.2231" fill="white"/>
<path d="M54.7499 59.2231C54.7499 59.2231 55.5095 53.8071 56.3147 53.0854C57.1199 52.3638 61.9662 52.4853 62.9309 52.9639C63.8956 53.4424 63.888 57.7799 63.531 58.7446C63.174 59.7093 62.5663 60.3018 62.2093 59.9447C61.8523 59.5877 61.123 55.972 61.123 55.972L58.6011 55.6149L57.758 59.2231" stroke="#263238" stroke-width="0.950299" stroke-linecap="round" stroke-linejoin="round"/>
<path d="M54.264 60.9094C54.264 60.9094 55.0237 55.4933 55.8288 54.7717C56.634 54.0501 61.488 54.1716 62.4451 54.6502C63.4022 55.1287 63.4098 59.4661 63.0528 60.4232C62.6958 61.3803 62.0881 61.988 61.7235 61.631C61.3588 61.274 60.6448 57.6582 60.6448 57.6582L58.1153 57.2936L57.2721 60.9094" fill="white"/>
<path d="M54.264 60.9094C54.264 60.9094 55.0237 55.4933 55.8288 54.7717C56.634 54.0501 61.488 54.1716 62.4451 54.6502C63.4022 55.1287 63.4098 59.4661 63.0528 60.4232C62.6958 61.3803 62.0881 61.988 61.7235 61.631C61.3588 61.274 60.6448 57.6582 60.6448 57.6582L58.1153 57.2936L57.2721 60.9094" stroke="#263238" stroke-width="0.950299" stroke-linecap="round" stroke-linejoin="round"/>
<path d="M54.0286 63.1123C54.0286 63.1123 54.7122 57.9849 55.5478 57.3013C56.3834 56.6176 60.8651 56.7316 61.8146 57.1873C62.7641 57.6431 62.7262 61.745 62.3843 62.6566C62.0425 63.5681 61.4728 64.1378 61.131 63.796C60.7891 63.4541 60.1055 60.0359 60.1055 60.0359L57.7127 59.6941L56.9531 63.1123" fill="white"/>
<path d="M54.0286 63.1123C54.0286 63.1123 54.7122 57.9849 55.5478 57.3013C56.3834 56.6176 60.8651 56.7316 61.8146 57.1873C62.7641 57.6431 62.7262 61.745 62.3843 62.6566C62.0425 63.5681 61.4728 64.1378 61.131 63.796C60.7891 63.4541 60.1055 60.0359 60.1055 60.0359L57.7127 59.6941L56.9531 63.1123" stroke="#263238" stroke-width="0.950299" stroke-linecap="round" stroke-linejoin="round"/>
<path d="M58.8517 61.069C58.8517 61.069 59.5049 65.5507 58.2972 67.9055C57.0894 70.2603 55.6841 70.2375 55.6841 70.2375" fill="white"/>
<path d="M58.8517 61.069C58.8517 61.069 59.5049 65.5507 58.2972 67.9055C57.0894 70.2603 55.6841 70.2375 55.6841 70.2375" stroke="#263238" stroke-width="0.950299" stroke-linecap="round" stroke-linejoin="round"/>
</g>
<g clip-path="url(#clip0_215_934)">
<path d="M37.9405 159.603C37.9405 159.603 33.6201 169.353 35.7803 184.878C37.9405 200.404 45.1488 220.99 45.1488 220.99C56.3191 223.897 67.8158 225.353 79.3563 225.322C98.8059 225.322 108.159 220.625 108.159 220.625C108.159 220.625 115.36 193.184 115.36 178.016C115.36 162.848 111.396 154.193 111.396 154.193C111.396 154.193 76.8246 161.792 44.7699 150.94L37.9405 159.603Z" fill="#263238" stroke="#263238" stroke-width="0.950299" stroke-linecap="round" stroke-linejoin="round"/>
<path d="M72.8762 81.6121L56.6707 80.5254C56.6707 80.5254 60.6349 106.887 54.8667 123.134C49.0985 139.382 44.7856 150.94 44.7856 150.94L40.8214 158.539C49.2182 161.518 57.9125 163.574 66.7517 164.672C80.0845 166.116 92.3258 166.845 98.8065 165.394C103.212 164.359 107.544 163.034 111.775 161.427C111.775 161.427 99.5266 129.997 99.5266 113.027C99.5564 102.965 98.254 92.9423 95.6533 83.2231L89.4152 82.4632L72.8762 81.6121Z" fill="white" stroke="#263238" stroke-width="0.950299" stroke-linecap="round" stroke-linejoin="round"/>
<path d="M89.0204 100.99L84.033 166.093L88.3989 166.716L89.0204 100.99Z" fill="#263238" stroke="#263238" stroke-width="0.950299" stroke-linecap="round" stroke-linejoin="round"/>
<path d="M71.7994 63.3738C72.5573 64.5973 71.7539 75.5326 71.6402 77.7288C71.5265 79.925 70.5487 81.5284 68.199 80.8901C63.1433 79.4614 64.2348 82.8735 64.2348 82.8735C64.2348 82.8735 63.5147 90.8223 67.4713 97.3121C71.4279 103.802 82.0623 105.071 86.9209 102.008C91.7796 98.9459 92.5072 84.0286 92.5072 84.0286L89.4147 82.5087C88.6164 82.1086 87.9486 81.4886 87.4894 80.7214C87.0302 79.9542 86.7989 79.0716 86.8224 78.1771L87.2848 69.5368C87.2848 69.5368 76.658 70.9578 71.7994 63.3738Z" fill="white" stroke="#263238" stroke-width="0.950299" stroke-linecap="round" stroke-linejoin="round"/>
<path d="M87.2852 69.514C87.2852 69.514 76.6735 70.9578 71.7997 63.3738C72.5122 64.4985 71.8831 73.724 71.6785 76.9841C73.1046 78.1546 74.806 78.9394 76.6205 79.2638C80.2057 79.6742 83.9652 78.1695 86.9289 76.2773L87.2852 69.514Z" fill="#263238" stroke="#263238" stroke-width="0.950299" stroke-linecap="round" stroke-linejoin="round"/>
<path d="M70.185 80.3505C70.185 80.3505 61.1727 79.9933 53.07 79.8109C44.9672 79.6286 41.003 80.3581 37.9105 81.9843C34.8179 83.6106 14.8604 102.198 13.6022 105.268C12.344 108.339 11.0478 111.994 18.7943 112.176C26.5408 112.359 42.5947 107.434 42.5947 107.434C42.5947 107.434 48.5676 123.134 48.0522 130.179C47.5367 137.223 42.8297 147.87 38.8655 154.193C34.9013 160.515 34.9013 163.395 34.9013 163.395C34.9013 163.395 39.2293 170.44 50.5686 173.145C57.2445 174.76 64.0597 175.727 70.9203 176.033L69.1163 135.415L70.185 80.3505Z" fill="#199F84" stroke="#263238" stroke-width="0.950299" stroke-linecap="round" stroke-linejoin="round"/>
<path d="M39.7524 99.2576L42.6251 107.427L38.3425 102.077" stroke="#263238" stroke-width="0.950299" stroke-linecap="round" stroke-linejoin="round"/>
<path d="M35.7807 98.946L13.3446 110.603C14.1556 111.5 15.8004 112.123 18.8248 112.169C21.3162 112.142 23.7999 111.887 26.2453 111.409L35.7807 98.946Z" fill="#263238" stroke="#263238" stroke-width="0.950299" stroke-linecap="round" stroke-linejoin="round"/>
<path d="M62.984 80.3049C62.984 85.6244 62.984 104.668 63.8708 114.106C64.6288 122.04 67.5773 131.836 69.1767 136.707L69.116 135.415L70.1848 80.3505C70.1848 80.3505 67.1377 80.3505 62.984 80.3049Z" fill="#199F84" stroke="#263238" stroke-width="0.950299" stroke-linecap="round" stroke-linejoin="round"/>
<path d="M89.4151 82.486C89.4151 82.486 88.1872 124.039 87.8233 129.997C87.4595 135.954 85.4812 176.572 85.4812 176.572C91.2184 176.566 96.8808 175.267 102.051 172.773C110.691 168.616 115.376 165.546 116.452 163.745C117.528 161.944 115.55 158.509 113.928 153.273C112.306 148.037 109.964 140.088 109.426 137.383C108.887 134.678 109.244 127.998 109.244 127.998C109.244 127.998 117.892 136.479 120.409 135.757C122.925 135.035 139.858 139.914 140.222 138.645C140.586 137.375 126.169 111.386 121.129 100.01C116.088 88.6338 108.887 85.6473 104.021 84.5606C99.1551 83.4739 89.4151 82.486 89.4151 82.486Z" fill="#199F84" stroke="#263238" stroke-width="0.950299" stroke-linecap="round" stroke-linejoin="round"/>
<path d="M95.6528 83.2231C92.2646 82.7823 89.4147 82.4631 89.4147 82.4631C89.4147 82.4631 88.1867 124.016 87.8229 129.974C87.7319 131.448 87.5425 135.05 87.3151 139.64C88.922 134.716 92.6209 122.808 93.7654 114.806C94.9024 106.697 95.4102 89.3937 95.6528 83.2231Z" fill="#199F84" stroke="#263238" stroke-width="0.950299" stroke-linecap="round" stroke-linejoin="round"/>
<path d="M101.33 93.8848L88.3612 134.875L90.5214 136.494L104.029 95.1538L101.33 93.8848Z" fill="#263238" stroke="#263238" stroke-width="0.950299" stroke-linecap="round" stroke-linejoin="round"/>
<path d="M104.029 95.1539L128.701 104.182L114.473 140.833L90.5215 136.494L104.029 95.1539Z" fill="white" stroke="#263238" stroke-width="0.950299" stroke-linecap="round" stroke-linejoin="round"/>
<path d="M102.407 100.025L89.4453 141.008L91.6055 142.634L105.113 101.294L102.407 100.025Z" fill="#263238" stroke="#263238" stroke-width="0.950299" stroke-linecap="round" stroke-linejoin="round"/>
<path d="M105.113 101.294L129.785 110.315L115.557 146.966L91.6055 142.634L105.113 101.294Z" fill="white" stroke="#263238" stroke-width="0.950299" stroke-linecap="round" stroke-linejoin="round"/>
<path d="M101.868 112.663C101.868 112.663 97.0096 109.775 95.3876 109.623C95.0327 109.56 94.6686 109.573 94.3192 109.662C93.9698 109.75 93.643 109.911 93.3602 110.135C93.0774 110.359 92.8451 110.641 92.6785 110.961C92.5119 111.281 92.4148 111.633 92.3936 111.994C92.3636 112.769 92.482 113.543 92.7423 114.274C92.7423 114.274 90.9837 114.745 90.1651 119.411C89.8771 121.052 89.0812 122.299 90.1651 123.568C91.8929 125.489 94.2634 126.708 96.8277 126.995C99.509 127.401 102.157 128.005 104.749 128.804C108.591 132.781 112.693 136.497 117.028 139.929C123.508 144.982 129.269 150.758 134.135 149.854C139.001 148.949 142.056 143.356 140.26 138.66C138.463 133.963 112.707 123.499 111.805 123.135C110.961 122.691 110.174 122.145 109.463 121.508C109.463 121.508 109.463 117.541 108.561 115.733C107.659 113.924 104.771 111.219 104.771 108.696C104.771 106.173 104.953 105.079 103.513 105.443C102.073 105.808 101.148 110.315 101.868 112.663Z" fill="white" stroke="#263238" stroke-width="0.950299" stroke-linecap="round" stroke-linejoin="round"/>
<path d="M67.562 48.1372C67.562 48.1372 65.2881 42.3922 63.613 46.2222C61.5664 50.9642 65.5231 55.6681 66.5463 56.3064C67.5696 56.9448 67.562 48.1372 67.562 48.1372Z" fill="white" stroke="#263238" stroke-width="0.950299" stroke-linecap="round" stroke-linejoin="round"/>
<path d="M100.443 52.2333C100.443 52.2333 103.361 48.6313 104.233 51.785C105.105 54.9387 102.437 58.0924 100.443 59.4451C98.4498 60.7977 97.7449 62.5987 97.7449 60.1214C97.7449 57.644 100.443 52.2333 100.443 52.2333Z" fill="white" stroke="#263238" stroke-width="0.950299" stroke-linecap="round" stroke-linejoin="round"/>
<path d="M83.6086 3.8412C83.6086 3.8412 78.894 0.398731 75.7105 4.35035C72.527 8.30196 75.8393 11.2505 73.5427 12.1396C71.246 13.0287 69.7528 8.9479 65.0154 12.8995C60.2781 16.8511 63.363 20.0504 63.6132 21.4487C63.8633 22.847 62.9765 22.8546 59.414 24.3896C55.8515 25.9247 53.9414 29.6179 58.656 33.4479C63.3706 37.278 65.6597 31.7913 66.2964 34.3446C66.9331 36.898 66.2964 39.0714 69.4799 38.9042C72.6634 38.737 79.0304 33.5391 82.9794 35.9633C86.9285 38.3874 91.2489 44.5201 94.1823 42.605C97.1157 40.69 98.1313 37.3691 100.678 39.0334C103.225 40.6976 106.787 41.4575 108.826 36.2217C110.865 30.9858 106.787 29.1999 107.424 26.3958C108.061 23.5917 111.623 19.8832 108.569 15.5441C105.514 11.2049 102.459 15.7948 99.2759 11.7444C96.0924 7.69402 99.4047 3.44603 95.3268 1.14346C94.348 0.578688 93.2673 0.21376 92.1471 0.0697124C91.0269 -0.0743349 89.8894 0.00534632 88.8 0.304166C87.7107 0.602985 86.6911 1.11503 85.8001 1.81078C84.9091 2.50653 84.1643 3.37222 83.6086 4.35795" fill="#263238"/>
<path d="M72.5804 33.0452C72.5804 33.0452 67.8582 37.1032 67.411 42.2859C66.9638 47.4686 64.94 59.8554 67.1836 64.5897C69.4272 69.3241 75.0362 75.9886 79.9934 76.5282C86.9592 77.3337 94.5996 70.8971 95.7214 68.4198C96.8432 65.9424 102.937 48.3653 101.565 40.4773C99.769 30.1195 82.4644 23.3561 72.5804 33.0452Z" fill="white" stroke="#263238" stroke-width="0.950299" stroke-linecap="round" stroke-linejoin="round"/>
<path d="M101.565 40.4773C99.7689 30.1195 82.4644 23.3561 72.5804 33.0452C72.5804 33.0452 67.8582 37.1032 67.411 42.2859C67.2821 43.7526 67.032 45.7968 66.7819 48.0841C68.1755 46.9118 69.0501 45.2346 69.215 43.4182C69.4727 40.2265 72.1483 36.9056 82.3355 35.4998C92.5227 34.0939 98.253 41.6324 99.1398 44.3073C100.027 46.9822 98.7608 50.5615 99.3975 52.3549C99.4539 52.6099 99.5625 52.8502 99.7165 53.0609C99.8705 53.2715 100.066 53.4477 100.292 53.5784C101.414 48.7225 102.134 43.7602 101.565 40.4773Z" fill="#263238"/>
<path d="M81.1983 20.4303C81.0918 20.5398 80.993 20.6566 80.9027 20.7799C80.0613 21.9806 79.3867 22.0566 77.9997 21.5854C74.9678 20.5671 72.3982 21.973 72.5271 24.5263C72.6559 27.0797 73.8005 26.6921 71.5114 28.3259C69.2223 29.9598 67.3046 31.1377 68.578 34.2002C69.8514 37.2627 73.0652 35.6288 73.0652 37.7946C73.0652 39.9604 72.9364 42.7721 76.0971 42.7721C79.2579 42.7721 81.4484 38.9725 82.3429 40.9863C83.2373 43.0001 84.2529 45.9638 87.0499 45.4471C89.8468 44.9303 91.3779 40.4696 94.1824 42.643C96.9869 44.8163 98.5105 46.7238 100.042 44.9227C101.573 43.1217 99.9127 40.4544 101.952 39.3069C103.991 38.1594 105.893 37.6502 104.749 33.8202C103.604 29.9902 101.952 31.9052 100.678 28.9643C99.4049 26.0234 99.655 22.8393 97.2371 22.3301C94.8191 21.821 93.6746 23.4776 91.3779 23.2268C89.4223 23.0065 88.6492 20.6203 86.9968 19.8224C85.3444 19.0244 82.5778 19.0624 81.1983 20.4303Z" fill="#263238" stroke="#787878" stroke-width="0.950299" stroke-linecap="round" stroke-linejoin="round"/>
<path d="M84.7683 51.3138C84.7683 51.3138 83.6465 54.4675 84.0937 56.4965C84.5409 58.5255 85.6703 60.2962 83.8663 60.5545C82.0623 60.8129 80.7207 59.6502 80.7207 58.5255" stroke="#263238" stroke-width="0.950299" stroke-linecap="round" stroke-linejoin="round"/>
<path d="M76.6429 61.3524C77.3612 62.2917 78.2767 63.0611 79.3246 63.6061C80.3725 64.1511 81.5272 64.4584 82.7067 64.5061C85.0305 64.4891 87.2978 63.7861 89.2253 62.4847" stroke="#263238" stroke-width="0.950299" stroke-linecap="round" stroke-linejoin="round"/>
<path d="M79.5004 51.2682C79.3943 52.3245 78.841 53.1377 78.2649 53.0769C77.6889 53.0161 77.3023 52.1194 77.4084 51.0631C77.5145 50.0068 78.0679 49.2012 78.6439 49.2544C79.22 49.3076 79.6066 50.212 79.5004 51.2682Z" fill="#263238"/>
<path d="M89.8089 53.1225C89.7028 54.1788 89.1495 54.9843 88.5734 54.9311C87.9973 54.878 87.6108 53.966 87.7169 52.9097C87.823 51.8534 88.3763 51.0479 88.9524 51.1011C89.5284 51.1543 89.915 52.0662 89.8089 53.1225Z" fill="#263238"/>
<path d="M83.374 48.9504C83.4009 50.3732 83.0059 51.7719 82.2393 52.9695C81.4726 54.1671 80.3686 55.1096 79.0672 55.6777C77.7658 56.2457 76.3256 56.4138 74.9288 56.1605C73.5321 55.9073 72.2418 55.2442 71.2213 54.2551C70.2007 53.2661 69.496 51.9956 69.1962 50.6047C68.8964 49.2138 69.0151 47.7649 69.5373 46.4417C70.0595 45.1184 70.9616 43.9803 72.1294 43.1715C73.2973 42.3627 74.6782 41.9196 76.0975 41.8983C77.9935 41.8718 79.823 42.5986 81.1863 43.9199C82.5497 45.2412 83.3362 47.0497 83.374 48.9504V48.9504Z" stroke="#263238" stroke-width="0.950299" stroke-linecap="round" stroke-linejoin="round"/>
<path d="M99.3065 51.9978C99.3332 53.4192 98.939 54.8167 98.1735 56.0135C97.4081 57.2104 96.3059 58.1528 95.0063 58.7216C93.7067 59.2905 92.268 59.4602 90.8722 59.2093C89.4764 58.9585 88.1861 58.2983 87.1645 57.3123C86.1429 56.3263 85.4358 55.0588 85.1327 53.6699C84.8295 52.281 84.944 50.8333 85.4615 49.5096C85.979 48.1859 86.8764 47.0459 88.0402 46.2335C89.2039 45.4211 90.5818 44.9729 91.9996 44.9456C93.9009 44.911 95.7381 45.6342 97.1081 46.9564C98.478 48.2786 99.2687 50.0917 99.3065 51.9978Z" stroke="#263238" stroke-width="0.950299" stroke-linecap="round" stroke-linejoin="round"/>
<path d="M83.3889 49.7179L85.064 50.1055" stroke="#263238" stroke-width="0.950299" stroke-linecap="round" stroke-linejoin="round"/>
<path d="M69.1317 47.0583L66.8956 46.5415" stroke="#263238" stroke-width="0.950299" stroke-linecap="round" stroke-linejoin="round"/>
<path d="M99.3063 51.9977L100.981 52.3092" stroke="#263238" stroke-width="0.950299" stroke-linecap="round" stroke-linejoin="round"/>
<path d="M74.4905 46.1541C75.304 45.4481 76.2822 44.9596 77.3343 44.7338C78.3864 44.5079 79.4783 44.5521 80.5088 44.8622" stroke="#263238" stroke-width="0.950299" stroke-linecap="round" stroke-linejoin="round"/>
<path d="M94.804 50.6222C94.2945 49.6709 93.5535 48.8642 92.6497 48.277C91.746 47.6897 90.7088 47.341 89.6346 47.2633" stroke="#263238" stroke-width="0.950299" stroke-linecap="round" stroke-linejoin="round"/>
<path d="M59.6946 51.4735C61.2543 49.2652 62.9799 47.1794 64.8564 45.2345C67.5852 42.4912 71.231 41.2753 71.231 42.9547C71.231 44.6342 68.8055 44.9306 67.1304 47.0584C65.4552 49.1861 61.5138 54.8248 61.3622 56.3447C61.2106 57.8645 61.3622 60.4559 64.0985 59.9999C66.8348 59.5439 69.8667 56.9602 71.231 56.0407C72.5954 55.1212 76.3928 56.0407 75.0209 57.2642C73.649 58.4876 71.231 59.088 69.2527 60.7598C67.2744 62.4317 64.0909 65.7829 62.4309 66.7024C60.771 67.622 59.5506 68.2223 59.5506 68.2223C59.5506 68.2223 58.9442 68.8302 56.8143 72.4855C54.6844 76.1407 48.0067 86.6429 43.9288 91.2101C39.8509 95.7772 24.4943 110.968 20.7044 112.366C16.9145 113.765 7.64451 112.518 6.30289 107.647C4.96128 102.776 8.12203 97.1451 14.9514 92.274C21.7807 87.4028 41.2228 76.1331 45.475 73.8534C49.7273 71.5736 51.3948 70.3501 51.5388 69.1342C51.6828 67.9183 53.6612 60.0151 55.4879 56.8006C56.6196 54.826 58.0373 53.0308 59.6946 51.4735Z" fill="white" stroke="#263238" stroke-width="0.950299" stroke-linecap="round" stroke-linejoin="round"/>
<path d="M54.7903 59.2473C54.7903 59.2473 55.5483 53.829 56.3517 53.1071C57.1552 52.3852 61.991 52.5068 62.9537 52.9855C63.9163 53.4643 63.9087 57.8035 63.5525 58.7686C63.1962 59.7337 62.5898 60.3264 62.2336 59.9693C61.8773 59.6121 61.1497 55.9948 61.1497 55.9948L58.6332 55.6377L57.7919 59.2473" fill="white"/>
<path d="M54.7903 59.2473C54.7903 59.2473 55.5483 53.829 56.3517 53.1071C57.1552 52.3852 61.991 52.5068 62.9537 52.9855C63.9163 53.4643 63.9087 57.8035 63.5525 58.7686C63.1962 59.7337 62.5898 60.3264 62.2336 59.9693C61.8773 59.6121 61.1497 55.9948 61.1497 55.9948L58.6332 55.6377L57.7919 59.2473" stroke="#263238" stroke-width="0.950299" stroke-linecap="round" stroke-linejoin="round"/>
<path d="M54.3055 60.9345C54.3055 60.9345 55.0635 55.5162 55.867 54.7942C56.6704 54.0723 61.5139 54.1939 62.4689 54.6727C63.424 55.1514 63.4316 59.4906 63.0753 60.4481C62.7191 61.4056 62.1127 62.0135 61.7489 61.6564C61.385 61.2992 60.6725 57.682 60.6725 57.682L58.1485 57.3172L57.3071 60.9345" fill="white"/>
<path d="M54.3055 60.9345C54.3055 60.9345 55.0635 55.5162 55.867 54.7942C56.6704 54.0723 61.5139 54.1939 62.4689 54.6727C63.424 55.1514 63.4316 59.4906 63.0753 60.4481C62.7191 61.4056 62.1127 62.0135 61.7489 61.6564C61.385 61.2992 60.6725 57.682 60.6725 57.682L58.1485 57.3172L57.3071 60.9345" stroke="#263238" stroke-width="0.950299" stroke-linecap="round" stroke-linejoin="round"/>
<path d="M54.0704 63.1382C54.0704 63.1382 54.7526 58.0087 55.5864 57.3248C56.4202 56.6408 60.8922 56.7548 61.8397 57.2108C62.7871 57.6668 62.7492 61.7704 62.4082 62.6823C62.0671 63.5942 61.4986 64.1641 61.1575 63.8222C60.8164 63.4802 60.1342 60.0605 60.1342 60.0605L57.7466 59.7186L56.9886 63.1382" fill="white"/>
<path d="M54.0704 63.1382C54.0704 63.1382 54.7526 58.0087 55.5864 57.3248C56.4202 56.6408 60.8922 56.7548 61.8397 57.2108C62.7871 57.6668 62.7492 61.7704 62.4082 62.6823C62.0671 63.5942 61.4986 64.1641 61.1575 63.8222C60.8164 63.4802 60.1342 60.0605 60.1342 60.0605L57.7466 59.7186L56.9886 63.1382" stroke="#263238" stroke-width="0.950299" stroke-linecap="round" stroke-linejoin="round"/>
<path d="M58.8835 61.094C58.8835 61.094 59.5354 65.5776 58.3302 67.9333C57.125 70.2891 55.7228 70.2663 55.7228 70.2663" fill="white"/>
<path d="M58.8835 61.094C58.8835 61.094 59.5354 65.5776 58.3302 67.9333C57.125 70.2891 55.7228 70.2663 55.7228 70.2663" stroke="#263238" stroke-width="0.950299" stroke-linecap="round" stroke-linejoin="round"/>
</g>
<defs>
<clipPath id="clip0_215_934">
<rect width="135" height="151" fill="white" transform="translate(6.00024)"/>
</clipPath>
</defs>
</svg>
