<svg width="53" height="53" fill="none" xmlns="http://www.w3.org/2000/svg"><rect width="53" height="53" rx="15" fill="#C1DFFF"/><path fill-rule="evenodd" clip-rule="evenodd" d="M17.423 20.907c-2.2 5.111-3.409 7.98-3.42 8.116-.026.298.153.68.447.957.749.702 2.42 1.143 4.953 1.308.475.03.868.06.873.064.005.006-.027.17-.072.365-.114.507-.113 1.906.003 2.41.287 1.251.819 2.23 1.68 3.095a6.13 6.13 0 0 0 3.205 1.708c.525.104 1.773.09 2.312-.026A6.152 6.152 0 0 0 31.7 35.49c.12-.254.257-.606.306-.78l.087-.32h.92c3.773-.003 6.345-.68 6.868-1.806l.119-.256v-14.21l-.119-.256c-.442-.952-2.229-1.556-5.188-1.754-2.315-.155-4.99.068-6.502.544-.868.273-1.527.703-1.768 1.154-.111.21-.111.217-.137 3.982l-.025 3.773-2.692-6.28C22.087 15.825 20.864 13 20.85 13c-.014 0-1.557 3.558-3.428 7.907Zm5.587.936 2.148 5.01c.008.02-.128.065-.301.099-.656.13-1.446.477-2.127.936-.485.327-1.282 1.128-1.574 1.582l-.225.352-.84-.034c-1.108-.046-2.169-.16-2.94-.315-.67-.136-1.507-.42-1.507-.512 0-.076 5.173-12.091 5.206-12.091.014 0 .986 2.238 2.16 4.973Zm12.47-4.135c.377.043.937.126 1.245.184.58.11 1.498.388 1.498.455 0 .066-.919.345-1.498.455-2.23.422-5.453.391-7.493-.07-.582-.132-1.117-.316-1.117-.385 0-.068.533-.253 1.113-.385s1.507-.26 2.37-.328c.79-.062 3.073-.019 3.882.074Zm-7.182 2.369c1.36.42 4.168.652 6.268.515 1.462-.095 2.86-.316 3.59-.567.157-.055.294-.1.304-.1.01 0 .017 2.716.017 6.034v6.033l-.322.154c-.824.394-2.46.64-4.66.7l-1.2.032-.034-.419c-.2-2.413-1.721-4.425-3.994-5.283l-.432-.163-.013-3.55c-.01-3.011-.002-3.544.058-3.521.039.015.227.075.418.134Zm-.97 8.402a4.64 4.64 0 0 1 3.283 3.289c.09.33.11.546.11 1.146 0 .6-.02.815-.11 1.146a4.65 4.65 0 0 1-3.284 3.292c-.535.145-1.651.16-2.175.029a4.66 4.66 0 0 1-3.394-3.321c-.09-.331-.11-.547-.11-1.146 0-.6.02-.815.11-1.146a4.637 4.637 0 0 1 3.512-3.343c.568-.124 1.474-.1 2.057.054Z" fill="#2E94FE"/></svg>