<svg width="53" height="53" fill="none" xmlns="http://www.w3.org/2000/svg"><rect width="53" height="53" rx="15" fill="#F9C9CA"/><path fill-rule="evenodd" clip-rule="evenodd" d="M20.887 13.103a.826.826 0 0 0-.395.657c0 .244.17.52.396.648.174.098.277.114.741.114h.54v7.258l-3.479 6.96c-1.913 3.827-3.526 7.1-3.584 7.274-.204.604-.108 1.381.237 1.927.175.277.532.611.825.77.56.305-.007.289 10.012.289 8.076 0 9.207-.01 9.47-.078a2.228 2.228 0 0 0 1.493-1.239c.16-.34.184-.439.201-.866.015-.392 0-.543-.087-.799-.06-.174-1.673-3.449-3.586-7.278l-3.479-6.963v-7.255h.535c.437 0 .573-.02.736-.103a.807.807 0 0 0 .405-.659.806.806 0 0 0-.405-.66c-.197-.1-.287-.102-5.293-.1-4.97.003-5.098.005-5.283.103Zm7.782 5.226v3.807l1.27 2.542c.698 1.398 1.269 2.552 1.269 2.566 0 .014-.623.023-1.384.022l-1.384-.002-.149-.315c-.359-.76-1.242-1.306-2.11-1.306-.866 0-1.755.55-2.112 1.306l-.149.315-1.384.002c-.76.002-1.383-.008-1.383-.022 0-.014.571-1.168 1.27-2.566l1.269-2.542v-7.614h4.977v3.807Zm-2.111 8.939a.87.87 0 0 1 .438 1.032c-.077.234-.404.528-.635.571-.307.058-.539-.017-.771-.25-.341-.34-.363-.782-.056-1.132.287-.327.648-.405 1.024-.221Zm-2.489 1.844c.453.96 1.64 1.502 2.694 1.227.653-.17 1.258-.657 1.532-1.235l.145-.307 1.78-.002 1.78-.003 1.915 3.847c1.694 3.401 1.916 3.874 1.915 4.08a.744.744 0 0 1-.408.668c-.166.084-.713.09-9.242.09-8.529 0-9.075-.006-9.241-.09a.743.743 0 0 1-.409-.667c0-.207.224-.684 1.915-4.08l1.916-3.848 1.78.003 1.78.002.148.315Zm-1.752 1.906c-1.76.46-2.356 2.683-1.066 3.973a2.379 2.379 0 0 0 3.358 0 2.376 2.376 0 0 0 0-3.358 2.346 2.346 0 0 0-2.292-.615Zm5.933.012a.826.826 0 0 0-.394.657c0 .252.18.544.405.66.11.056.27.102.357.102a.973.973 0 0 0 .357-.103.806.806 0 0 0 .405-.66.806.806 0 0 0-.405-.659.729.729 0 0 0-.725.003Zm-4.942 1.52a.87.87 0 0 1 .438 1.032c-.077.233-.404.527-.635.57-.308.058-.539-.017-.772-.25-.34-.34-.362-.782-.055-1.132.287-.326.648-.404 1.024-.22Zm7.38.105a.826.826 0 0 0-.394.657.97.97 0 0 0 .102.357.806.806 0 0 0 .66.405c.252 0 .544-.18.66-.405.131-.26.127-.486-.014-.733-.208-.363-.634-.482-1.014-.281Zm-3.25 1.625a.826.826 0 0 0-.394.657c0 .252.18.545.405.66.11.056.27.102.356.102a.973.973 0 0 0 .357-.102.806.806 0 0 0 .405-.66.806.806 0 0 0-.405-.66.729.729 0 0 0-.724.003Z" fill="#EB4B4D"/></svg>