<svg width="53" height="53" fill="none" xmlns="http://www.w3.org/2000/svg"><rect width="53" height="53" rx="15" fill="#EDD2E2"/><path fill-rule="evenodd" clip-rule="evenodd" d="M19.327 13.032c-1.055.194-2.026.776-2.647 1.589a4.272 4.272 0 0 0-.282 4.8c.094.157.35.475.567.707l.397.422-.244.125c-.644.329-1.423 1.008-1.935 1.688-.39.516-.798 1.379-.988 2.087l-.16.602-.018 3.265L14 31.58h12.238v2.846h-3.4v1.524h-8.833v1.525h8.832V39h8.325v-1.524h8.832V35.95h-8.832v-1.524h-3.4V31.58H40l-.018-3.264-.017-3.265-.161-.602c-.189-.707-.596-1.57-.985-2.085-.509-.674-1.3-1.364-1.937-1.69l-.245-.125.397-.422c.761-.81 1.107-1.618 1.166-2.724.039-.742-.09-1.355-.434-2.05-.554-1.122-1.469-1.882-2.684-2.23-.566-.162-1.593-.16-2.166.003-1.919.55-3.21 2.327-3.107 4.277.059 1.106.405 1.914 1.166 2.724l.396.422-.244.125c-.644.329-1.423 1.008-1.935 1.688-.391.518-.798 1.379-.987 2.087l-.16.602-.018 2.502-.019 2.503h-2.016l-.02-2.503-.019-2.502-.16-.602c-.187-.707-.594-1.568-.983-2.085-.51-.674-1.3-1.364-1.938-1.69l-.244-.125.397-.422c.76-.81 1.107-1.618 1.165-2.724.104-1.948-1.184-3.728-3.09-4.27-.414-.118-1.383-.174-1.773-.102Zm1.265 1.552c.77.182 1.482.754 1.813 1.456.096.205.191.473.21.595.031.201.025.22-.062.195a3.793 3.793 0 0 0-.4-.06c-1.077-.116-2.848-.699-3.83-1.259l-.275-.157.209-.185a2.663 2.663 0 0 1 2.335-.585Zm14.01 0c.769.182 1.481.754 1.812 1.456.097.205.191.473.21.595.032.201.026.22-.062.195a3.793 3.793 0 0 0-.4-.06c-.803-.087-2.116-.463-3.02-.866-.448-.199-.96-.462-1.032-.53-.058-.055.32-.367.673-.555a2.61 2.61 0 0 1 1.818-.235Zm-16.536 2.5c.35.171.845.392 1.101.49.868.334 2.165.657 2.916.727.192.018.348.05.348.07 0 .021-.092.177-.206.347a2.681 2.681 0 0 1-3.55.858c-.811-.458-1.372-1.43-1.37-2.372.001-.258.047-.474.095-.447.018.01.317.157.666.328Zm14.01 0c.349.171.844.392 1.1.49.868.334 2.165.657 2.917.727.191.018.348.05.348.07 0 .021-.093.177-.206.347a2.681 2.681 0 0 1-3.55.858c-.812-.458-1.373-1.43-1.37-2.372 0-.258.046-.474.095-.447.017.01.317.157.666.328Zm-10.94 4.512c.166.047.448.152.626.232l.324.148-.316.598c-.174.328-.466.826-.649 1.106-.324.496-1.002 1.245-1.126 1.245-.123 0-.8-.748-1.128-1.245-.183-.28-.475-.777-.648-1.106l-.315-.598.325-.148c.289-.131.677-.25 1.055-.326.278-.055 1.552.01 1.851.094Zm13.96-.004c.422.114.837.286.837.346 0 .095-.65.879-1.047 1.264-.384.371-.768.656-.885.656-.107 0-.619-.375-.928-.682-.333-.329-.997-1.154-.997-1.238 0-.09.677-.323 1.268-.437.267-.05 1.453.01 1.752.091ZM31.06 23.16c.8 1.104 1.743 1.902 2.627 2.222l.317.115.375-.137c.207-.075.555-.254.775-.396.469-.306 1.341-1.172 1.744-1.731.153-.214.295-.39.315-.39.087-.004.57.675.776 1.09.446.9.45.936.47 3.698l.018 2.426h-8.945l.018-2.426c.02-2.762.024-2.798.47-3.697.206-.416.689-1.095.776-1.091.02 0 .139.143.264.317ZM17 23.515c.654 1.19 1.358 2.096 1.984 2.556l.25.183V30.056h-3.712l.019-2.45c.02-2.761.018-2.74.444-3.625.162-.337.624-1.038.684-1.038.009 0 .157.257.33.572Zm6.802.09c.276.455.452.907.564 1.447.084.406.095.71.095 2.73v2.275h-3.705V26.25l.216-.15c.253-.175.821-.747 1.071-1.077.28-.372.706-1.051.998-1.593l.27-.502.145.172c.08.095.236.321.346.503Zm9.441 4.165v.762H34.766v-1.524H33.243v.762Zm-3.604 8.943v.763H24.36V35.95h5.28v.762Z" fill="#C2689E"/></svg>