<svg width="53" height="53" fill="none" xmlns="http://www.w3.org/2000/svg"><rect width="53" height="53" rx="15" fill="#F9C9CA"/><path fill-rule="evenodd" clip-rule="evenodd" d="M14.106 17.09c-.55.191-.94.625-1.058 1.179-.043.197-.056 1.999-.044 6.078l.017 5.798.153.31c.173.353.438.61.802.778.238.11.344.116 2.505.131l2.256.016v3.114h-.986c-.882 0-1.01.011-1.203.11a.869.869 0 0 0-.436.71c0 .272.193.587.436.71.211.108.314.11 4.76.11 4.447 0 4.55-.002 4.76-.11a.869.869 0 0 0 .437-.71.869.869 0 0 0-.437-.71c-.192-.099-.321-.11-1.202-.11h-.987V31.38l2.229-.016c2.133-.015 2.24-.02 2.478-.13a1.62 1.62 0 0 0 .802-.778l.152-.31v-5.963c0-5.947 0-5.963-.115-6.211a1.619 1.619 0 0 0-.777-.802l-.311-.153-6.974-.012c-6.584-.012-6.99-.007-7.257.086Zm18.434 0c-.55.192-.94.625-1.058 1.179-.043.198-.056 2.657-.044 8.457l.017 8.178.153.31c.172.353.437.61.801.778.245.114.306.115 3.777.115h3.529l.288-.13c.387-.175.803-.632.914-1.004.073-.245.083-1.29.083-8.41s-.01-8.166-.083-8.412c-.11-.371-.527-.828-.914-1.003l-.288-.13-3.447-.014c-3.197-.011-3.466-.005-3.728.086Zm-4.613 7.093v5.552H14.635V18.63h13.292v5.552Zm11.432-4.622v.93h-6.29v-1.86h6.29v.93Zm0 8.752v6.18h-6.29V22.133h6.29v6.18Zm-3.569-.708a.89.89 0 0 0-.424.708c0 .092.05.265.11.384a.868.868 0 0 0 .71.436c.093 0 .266-.05.385-.11a.869.869 0 0 0 .436-.71.869.869 0 0 0-.436-.71.785.785 0 0 0-.78.002Zm0 3.5a.89.89 0 0 0-.424.708c0 .093.05.266.11.385a.869.869 0 0 0 .71.436c.093 0 .266-.05.385-.11a.869.869 0 0 0 .436-.71.869.869 0 0 0-.436-.711.785.785 0 0 0-.78.003Zm-13.552 1.83v1.559h-1.86V31.376h1.86v1.559Z" fill="#EB4B4D"/></svg>