<svg width="53" height="53" fill="none" xmlns="http://www.w3.org/2000/svg"><rect width="53" height="53" rx="15" fill="#EDD2E2"/><mask id="a" fill="#fff"><path fill-rule="evenodd" clip-rule="evenodd" d="M22.134 15.413c-5.056 2.65-4.868 2.53-4.868 3.074 0 .323.155.602.425.766.157.096.295.116.792.116h.6v8.17l-.31.039c-.539.067-.86.382-.862.842 0 .333.142.622.38.768.19.117.271.118 8.709.118 8.438 0 8.52-.001 8.71-.118.497-.306.5-1.15.006-1.455a1.518 1.518 0 0 0-.492-.155l-.308-.04v-8.169h.601c.497 0 .635-.02.792-.116.528-.32.576-1.11.089-1.448-.09-.061-2.183-1.168-4.652-2.46-3.974-2.077-4.52-2.346-4.75-2.345-.227.001-.833.302-4.862 2.413Zm7.509.815 2.597 1.359-2.62.015c-1.44.008-3.797.008-5.235 0l-2.615-.015 2.571-1.354c1.414-.744 2.601-1.356 2.638-1.359.036-.003 1.235.606 2.664 1.354Zm-7.04 7.233v4.091h-1.76V19.37h1.76v4.09Zm3.517 0v4.091h-1.759V19.37h1.76v4.09Zm3.519 0v4.091h-1.76V19.37h1.76v4.09Zm3.518 0v4.091h-1.76V19.37h1.76v4.09ZM14.23 35.014a1.035 1.035 0 0 0-.323.277c-.125.175-.13.238-.147 1.738l-.018 1.557-.582.023c-.469.02-.613.047-.741.142-.548.408-.56 1.114-.026 1.47l.2.132H41.407l.2-.133c.533-.355.52-1.061-.027-1.469-.128-.095-.272-.123-.741-.142l-.582-.023-.018-1.557c-.016-1.503-.021-1.563-.148-1.74-.279-.39-.03-.372-5.282-.372-5.193 0-5.238.003-6.046.341a4.531 4.531 0 0 0-1.456 1.022l-.307.324-.336-.35a4.31 4.31 0 0 0-2.257-1.244c-.392-.08-1.085-.093-5.22-.091-4.27 0-4.786.01-4.958.095Zm9.89 1.719c.42.096.89.356 1.214.671.287.28.67.91.67 1.106 0 .08-.58.09-5.249.09h-5.248V36.67l4.178.001c2.601 0 4.275.024 4.435.06Zm14.373.902v.964h-5.248c-4.72 0-5.248-.009-5.248-.09 0-.194.335-.764.619-1.054.303-.311.852-.63 1.243-.721.12-.028 2.113-.054 4.427-.058l4.207-.005v.964Z"/></mask><path fill-rule="evenodd" clip-rule="evenodd" d="M22.134 15.413c-5.056 2.65-4.868 2.53-4.868 3.074 0 .323.155.602.425.766.157.096.295.116.792.116h.6v8.17l-.31.039c-.539.067-.86.382-.862.842 0 .333.142.622.38.768.19.117.271.118 8.709.118 8.438 0 8.52-.001 8.71-.118.497-.306.5-1.15.006-1.455a1.518 1.518 0 0 0-.492-.155l-.308-.04v-8.169h.601c.497 0 .635-.02.792-.116.528-.32.576-1.11.089-1.448-.09-.061-2.183-1.168-4.652-2.46-3.974-2.077-4.52-2.346-4.75-2.345-.227.001-.833.302-4.862 2.413Zm7.509.815 2.597 1.359-2.62.015c-1.44.008-3.797.008-5.235 0l-2.615-.015 2.571-1.354c1.414-.744 2.601-1.356 2.638-1.359.036-.003 1.235.606 2.664 1.354Zm-7.04 7.233v4.091h-1.76V19.37h1.76v4.09Zm3.517 0v4.091h-1.759V19.37h1.76v4.09Zm3.519 0v4.091h-1.76V19.37h1.76v4.09Zm3.518 0v4.091h-1.76V19.37h1.76v4.09ZM14.23 35.014a1.035 1.035 0 0 0-.323.277c-.125.175-.13.238-.147 1.738l-.018 1.557-.582.023c-.469.02-.613.047-.741.142-.548.408-.56 1.114-.026 1.47l.2.132H41.407l.2-.133c.533-.355.52-1.061-.027-1.469-.128-.095-.272-.123-.741-.142l-.582-.023-.018-1.557c-.016-1.503-.021-1.563-.148-1.74-.279-.39-.03-.372-5.282-.372-5.193 0-5.238.003-6.046.341a4.531 4.531 0 0 0-1.456 1.022l-.307.324-.336-.35a4.31 4.31 0 0 0-2.257-1.244c-.392-.08-1.085-.093-5.22-.091-4.27 0-4.786.01-4.958.095Zm9.89 1.719c.42.096.89.356 1.214.671.287.28.67.91.67 1.106 0 .08-.58.09-5.249.09h-5.248V36.67l4.178.001c2.601 0 4.275.024 4.435.06Zm14.373.902v.964h-5.248c-4.72 0-5.248-.009-5.248-.09 0-.194.335-.764.619-1.054.303-.311.852-.63 1.243-.721.12-.028 2.113-.054 4.427-.058l4.207-.005v.964Z" fill="#C2689E" stroke="#EDD2E2" stroke-width=".4" mask="url(#a)"/></svg>