<svg width="53" height="53" fill="none" xmlns="http://www.w3.org/2000/svg"><rect width="53" height="53" rx="15" fill="#FFEAD0"/><path d="m37.865 30.155-.098-.021-.168-.037a1.56 1.56 0 0 1-.402-.173 4.997 4.997 0 0 1-.486-.32c-.332-.244-.668-.542-.868-.794l.078-.062-.078.062c-.305-.385-.569-.951-.633-1.368-.072-.474.023-.907.357-1.718.392-.957.59-1.726.601-2.41.012-.681-.16-1.285-.52-1.915a3.397 3.397 0 0 0-.552-.695 2.854 2.854 0 0 0-.664-.505c-.883-.447-2.014-.415-3.07.1-.915.447-1.974 1.394-3.085 2.771l-.078-.062.078.062c-.891 1.105-1.618 1.651-2.527 1.872-.546.133-1.323.088-1.864-.107-.82-.295-1.684-1.034-2.223-1.894l.085-.053-.085.053c-.556-.889-.766-1.613-.841-2.875-.062-1.043-.2-1.67-.504-2.31m17.547 12.399L20.154 17.073a.19.19 0 0 0-.04.124c0 .041.01.086.025.135.03.096.088.232.179.423m17.547 12.4.02-.099.146-.69c.32-1.524.423-2.81.314-3.973-.267-2.821-1.39-5.305-3.291-7.269l-.072.07.072-.07c-1.878-1.94-4.285-3.116-6.948-3.394l-.01.1.01-.1c-2.04-.212-4.2.19-6.05 1.123a14.54 14.54 0 0 0-1.62.988 3.602 3.602 0 0 0-.174.13.763.763 0 0 0-.108.102l17.71 13.082Zm-17.547-12.4.09-.043-.09.043ZM15.86 28.713c.027.09.11.122.185.137.08.016.195.023.355.026.733.012 1.39.33 2.136 1.057.44.428.722.826 1.128 1.603l.089-.047-.089.047c.086.164.183.332.269.471.084.137.164.254.216.309a.549.549 0 0 0 .23.166c.086.029.192.03.342.028.358-.006.547-.064 1.755-.51.454-.167.651-.21 1.06-.23.288-.015.632.003.782.036.7.155 1.444.724 1.837 1.411.63 1.104.807 2.903.445 4.7l-.039.19-.025.127.128-.006.782-.037a10.272 10.272 0 0 0 2.437-.378c2.751-.754 5.223-2.626 6.774-5.129.132-.213.256-.431.344-.6a3.12 3.12 0 0 0 .103-.21.615.615 0 0 0 .027-.075.188.188 0 0 0 .007-.04c0-.008 0-.021-.004-.036a.106.106 0 0 0-.039-.057.127.127 0 0 0-.015-.01l-.01-.005-.029-.015a6.01 6.01 0 0 1-2.123-1.473c-.831-.866-1.243-1.768-1.29-2.804-.031-.704.09-1.232.495-2.111.358-.778.551-1.35.57-1.814.02-.474-.141-.83-.467-1.173l-.073.069.073-.07c-.202-.211-.392-.362-.602-.458a1.662 1.662 0 0 0-.704-.138c-.514-.003-1.023.187-1.58.594-.555.407-1.162 1.033-1.873 1.912-1.12 1.387-2.072 2.059-3.338 2.378-.286.072-.688.103-1.104.094a5.11 5.11 0 0 1-1.156-.147c-1.031-.28-1.98-.872-2.772-1.732-1.163-1.264-1.714-2.652-1.813-4.58-.033-.652-.078-1.016-.164-1.301a3.738 3.738 0 0 0-.098-.283 1.254 1.254 0 0 0-.064-.136.144.144 0 0 0-.042-.043c-.053-.034-.107-.011-.123-.004a.33.33 0 0 0-.067.043 1.468 1.468 0 0 0-.15.143 7.52 7.52 0 0 0-.411.492c-.31.398-.666.904-.905 1.307-1.127 1.904-1.715 4.202-1.632 6.38.013.348.047.75.09 1.104.041.351.092.664.142.828Zm0 0 .096-.029-.096.03Zm7.586 8.806-.033.094a11.443 11.443 0 0 1-6.713-6.245 16.336 16.336 0 0 1-.249-.613 1.08 1.08 0 0 1-.023-.073c-.001-.005-.004-.018-.004-.031a.149.149 0 0 1 .098-.145.27.27 0 0 1 .151-.002c.097.022.225.081.37.167.468.278.916.841 1.3 1.61.378.754.64 1.136.925 1.37.652.535 1.744.521 3.464-.126.527-.199.914-.292 1.224-.242.322.051.542.252.746.579.4.64.594 1.619.538 2.654a9.562 9.562 0 0 1-.203 1.375.61.61 0 0 1-.017.049.189.189 0 0 1-.026.049l-1.548-.47Zm0 0-.033.094m.033-.094-.033.094m0 0c.158.056.524.163.851.253m-.851-.253.851.253m0 0c.164.046.32.087.435.116m-.435-.116.435.116m0 0c.057.015.106.026.141.034m-.141-.034.141.034m0 0a.712.712 0 0 0 .046.008m-.046-.008.046.008m0 0 .023.002m-.023-.002.023.002m0 0 .022-.001m-.022.001.022-.001m0 0a.107.107 0 0 0 .023-.007m-.023.007.023-.007m0 0a.101.101 0 0 0 .04-.03l-.04.03Zm7.83-23.639-.046.09c3.386 1.715 5.904 4.948 6.807 8.74.28 1.178.354 1.84.355 3.175 0 1.355-.075 2.002-.374 3.202-.664 2.664-1.716 4.584-3.524 6.434a12.38 12.38 0 0 1-4.927 3.109c-1.54.522-2.81.71-4.447.66-2.2-.07-4.252-.67-6.106-1.788-3.41-2.057-5.71-5.589-6.323-9.724l-.1.015.1-.015c-.133-.893-.132-2.784.003-3.702a14.703 14.703 0 0 1 1.815-5.27c2.072-3.582 5.43-5.744 9.584-6.17l-.01-.099.01.1c.353-.037 1.004-.044 1.655-.028.652.015 1.294.054 1.63.107a12.63 12.63 0 0 1 3.852 1.254l.046-.09Z" fill="#FFB762" stroke="#FFEAD0" stroke-width=".2"/></svg>