<svg width="53" height="53" fill="none" xmlns="http://www.w3.org/2000/svg"><rect width="53" height="53" rx="15" fill="#D7D5ED"/><path fill-rule="evenodd" clip-rule="evenodd" d="M13.473 13.06c-.205.09-.418.349-.455.553-.016.09-.023 5.729-.015 12.53l.015 12.366.105.14c.057.078.168.188.245.246l.14.105h25.006l.14-.105c.077-.058.188-.168.245-.245l.105-.14V13.503l-.105-.14a1.452 1.452 0 0 0-.245-.245l-.14-.105-12.443-.011c-10.267-.01-12.47 0-12.598.057Zm11.724 6.844v5.29H14.62V14.615h10.578v5.288Zm12.205 0v5.29H26.825V14.615h10.578v5.288ZM19.578 16.82a.872.872 0 0 0-.429.456c-.03.08-.054.51-.054.976v.832l-.912.016c-.996.018-1.048.032-1.297.366-.147.197-.147.68 0 .877.25.334.3.348 1.294.366l.909.015.015.91c.018.992.032 1.044.366 1.293.197.147.68.147.877 0 .334-.25.348-.301.366-1.294l.015-.909.91-.015c.992-.018 1.044-.032 1.293-.366.147-.197.147-.68 0-.877-.25-.334-.3-.348-1.294-.366l-.909-.016-.015-.908c-.018-.99-.033-1.045-.359-1.289-.168-.125-.573-.16-.776-.067Zm9.863 2.342c-.337.148-.53.537-.458.922.044.237.298.518.529.585.124.037 1.028.05 2.712.04 2.46-.016 2.53-.02 2.667-.121.267-.2.35-.362.35-.684 0-.321-.083-.484-.35-.683-.137-.102-.203-.105-2.718-.116-2.065-.01-2.608.002-2.732.057Zm-4.244 12.947v5.29H14.62V26.82h10.578v5.288Zm12.205 0v5.29H26.825V26.82h10.578v5.288Zm-7.963-2.446c-.309.14-.453.372-.453.726 0 .324.095.496.38.69l.169.115h5.157l.168-.114c.286-.195.38-.367.38-.69 0-.355-.144-.586-.452-.727-.194-.088-.378-.094-2.675-.094-2.296 0-2.48.006-2.674.095Zm-11.603.107a.763.763 0 0 0-.368.677c0 .135.025.295.056.356.03.061.322.38.648.709l.59.597-.59.598c-.326.328-.617.647-.648.709a1.014 1.014 0 0 0-.056.355c0 .459.32.779.778.78.135 0 .295-.026.356-.057.061-.031.38-.322.708-.647l.597-.59.624.616c.487.481.668.628.829.671a.81.81 0 0 0 .983-.989c-.042-.153-.2-.347-.671-.824l-.616-.623.59-.597c.325-.328.616-.647.647-.708.031-.06.056-.221.056-.356 0-.458-.32-.778-.778-.778-.135 0-.295.025-.356.056-.061.03-.38.322-.709.647l-.598.591-.597-.59c-.329-.326-.648-.617-.709-.648-.18-.092-.58-.068-.766.045Zm11.53 3.37c-.285.194-.38.365-.38.69 0 .354.144.585.453.725.194.088.378.095 2.674.095 2.297 0 2.481-.007 2.675-.095.309-.14.453-.371.453-.726 0-.324-.095-.495-.381-.69l-.168-.114h-5.157l-.168.114Z" fill="#7770C0"/></svg>