<svg width="53" height="53" fill="none" xmlns="http://www.w3.org/2000/svg"><rect width="53" height="53" rx="15" fill="#C1DFFF"/><path fill-rule="evenodd" clip-rule="evenodd" d="M19.837 13.035c-1.171.388-2.154 2.368-2.949 5.939-.2.904-.2 1.06.004 1.363l.121.18-.114.096a.506.506 0 0 1-.15.098c-.02 0-.093.098-.162.217-.3.517-.464 2.81-.267 3.747.448 2.142 1.571 4.004 2.82 4.674l.29.155.014 1.646c.014 1.57.02 1.652.119 1.785.197.266.36.35.673.35.238 0 .323-.025.469-.137.295-.226.343-.393.343-1.179v-.69H22.663v.174c0 .25.057.366.373.762 1.183 1.485 1.096 3.485-.213 4.867l-.276.292h-4.615l-.33-.351a3.74 3.74 0 0 1-.834-1.418c-.113-.341-.13-.475-.13-1.075s.017-.735.13-1.076c.159-.479.42-.958.694-1.27.233-.267.357-.526.357-.746 0-.13.022-.152.18-.182.238-.045.56-.37.605-.61a.763.763 0 0 0-.23-.74c-.238-.239-.369-.268-1.102-.245-.466.014-.579.034-.696.122-.293.22-.346.347-.365.875-.017.486-.02.492-.239.802a5.349 5.349 0 0 0-.553 5.154c.293.698.81 1.406 1.404 1.922.569.492.34.462 3.415.463 3.127.001 2.858.045 3.519-.575.465-.436.908-1.023 1.136-1.504l.167-.353 3.525-.002c3.026-.003 3.548-.014 3.685-.08.227-.108 6.074-6.013 6.111-6.172.017-.07.024-3.605.016-7.857-.014-7.718-.014-7.73-.118-7.87a1.45 1.45 0 0 0-.244-.246c-.139-.104-.148-.105-7.096-.105-6.947 0-6.956 0-7.096.105-.264.2-.347.361-.347.683 0 .321.082.483.347.682.14.105.165.105 6.545.118l6.405.014v13.407l-2.57.014c-2.505.014-2.573.017-2.71.119a1.45 1.45 0 0 0-.242.245c-.102.136-.105.205-.119 2.727l-.013 2.587H25.464l-.01-.597a4.317 4.317 0 0 0-.137-1.105c-.143-.565-.52-1.384-.82-1.778-.189-.247-.194-.267-.22-.766-.022-.457-.04-.532-.16-.692-.25-.33-.332-.345-1.777-.345-1.197 0-1.292-.007-1.291-.089 0-.052.116-.162.283-.267.643-.405 1.326-1.328 1.96-2.65.496-1.035.734-1.645.734-1.882 0-.246-.101-.487-.27-.644l-.13-.121.198-.1a.908.908 0 0 0 .313-.284c.146-.238.141-.491-.034-1.71-.71-4.938-1.855-8.047-3.222-8.746-.279-.142-.802-.205-1.044-.125Zm.564 1.772c.473.511 1.148 2.422 1.656 4.681.176.784.437 2.264.484 2.748l.033.33-.416.087c-.744.155-1.047.38-1.096.813-.034.312.11.576.499.913.172.148.4.35.509.448l.197.179-.229.508c-.636 1.417-1.307 2.388-1.722 2.493-.329.083-.904-.352-1.339-1.013-.291-.442-.675-1.255-.856-1.813-.314-.966-.36-1.623-.199-2.873l.06-.461.394-.264c.457-.303.607-.489.64-.79.03-.253-.049-.43-.372-.846-.12-.155-.22-.328-.22-.384 0-.198.45-1.9.705-2.67.367-1.107.923-2.226 1.107-2.226.02 0 .095.063.165.14Zm6.373 3.538c-.473.208-.622.856-.288 1.255.255.306.184.3 3.447.3 3.322 0 3.198.012 3.47-.347.11-.146.135-.233.135-.466 0-.234-.025-.321-.136-.467-.272-.359-.145-.346-3.48-.344-2.375.001-3.026.016-3.148.07Zm0 3.658c-.485.212-.624.867-.27 1.273.507.582 1.48.153 1.394-.615a.815.815 0 0 0-1.124-.658Zm2.422 0c-.473.207-.622.855-.288 1.255.245.293.293.299 2.237.299 1.976 0 1.998-.003 2.257-.346.11-.146.136-.233.136-.467 0-.233-.025-.32-.136-.466-.26-.344-.279-.347-2.268-.345-1.37.002-1.82.018-1.938.07Zm.404 3.657c-.473.208-.622.856-.288 1.255.241.29.31.3 2.034.3 1.754 0 1.8-.008 2.056-.346.11-.146.136-.234.136-.467 0-.234-.025-.321-.136-.467-.256-.339-.3-.346-2.067-.344-1.2.002-1.619.018-1.735.07Zm5.376 5.85c-.347.352-.988.983-1.425 1.403l-.795.765v-2.806h2.85l-.63.639Z" fill="#2E94FE"/></svg>