<svg width="53" height="53" fill="none" xmlns="http://www.w3.org/2000/svg"><rect width="53" height="53" rx="15" fill="#BAE3DB"/><path fill-rule="evenodd" clip-rule="evenodd" d="M15.835 14.05c-.872.171-1.613.927-1.781 1.818-.072.377-.072 17.253 0 17.63.173.912.909 1.648 1.82 1.821.17.032 1.537.052 3.558.052h3.284l.116 1.003c.198 1.707.24 1.93.436 2.33.193.394.631.85.993 1.035.5.255.378.25 7.213.252 4.129 0 6.474-.018 6.651-.051a2.312 2.312 0 0 0 1.821-1.822c.072-.377.072-17.253 0-17.63-.15-.793-.674-1.412-1.466-1.732l-.284-.115-5.737-.026-5.736-.025-.164-1.32c-.09-.726-.189-1.42-.22-1.542-.135-.547-.62-1.18-1.108-1.444-.528-.288-.528-.288-5.035-.283-2.276.003-4.238.025-4.36.049Zm8.716 1.612a.937.937 0 0 1 .246.273c.056.108.412 2.829 1.166 8.894.597 4.807 1.097 8.802 1.11 8.879l.026.14h-5.484c-5.397 0-5.488-.002-5.685-.103a.7.7 0 0 1-.303-.302c-.101-.199-.102-.282-.102-8.76 0-8.475.001-8.562.102-8.76a.743.743 0 0 1 .292-.3c.185-.099.288-.101 4.328-.09l4.138.01.166.119Zm-4.71 3.794c-.37.155-.353.095-1.2 4.324-.43 2.142-.78 3.947-.78 4.012 0 .35.393.724.761.724.248 0 .545-.18.652-.394.052-.104.204-.744.338-1.42l.243-1.232h2.104l.243 1.231c.134.677.286 1.317.338 1.421.107.215.404.394.652.394.368 0 .761-.373.761-.724 0-.065-.35-1.87-.78-4.012-.851-4.251-.829-4.172-1.213-4.326-.268-.108-1.86-.106-2.12.002Zm18.23.785a.7.7 0 0 1 .302.302c.101.199.102.282.102 8.76 0 8.479-.001 8.562-.102 8.76a.7.7 0 0 1-.303.303c-.199.101-.27.102-6.314.09l-6.112-.013 1.491-1.725c1.007-1.165 1.507-1.782 1.54-1.9.037-.136-.148-1.75-.838-7.313-.488-3.926-.895-7.19-.905-7.252l-.02-.114h5.48c5.39 0 5.481.001 5.678.102Zm-16.722 2.182.305 1.524H20.16l.304-1.524.305-1.523h.274l.305 1.523Zm11.376 1.628c-.291.154-.394.403-.394.96v.459h-1.22c-1.123 0-1.237.008-1.421.102a.806.806 0 0 0-.405.66c0 .39.375.761.773.761.16 0 .172.014.289.343a10.08 10.08 0 0 0 1.41 2.627l.271.356-.242.22c-.133.121-.54.46-.906.752-.436.348-.694.591-.75.708-.303.637.378 1.323.998 1.003.174-.09.809-.586 1.506-1.177.236-.2.443-.364.459-.364.016 0 .223.164.46.364.696.59 1.33 1.087 1.505 1.177.47.243 1.081-.138 1.081-.674 0-.305-.15-.491-.833-1.038-.365-.292-.773-.63-.906-.75l-.242-.221.271-.356a10.077 10.077 0 0 0 1.41-2.627c.117-.33.128-.343.29-.343.396 0 .772-.37.772-.761a.806.806 0 0 0-.405-.66c-.184-.094-.298-.102-1.42-.102h-1.221v-.46c0-.565-.102-.807-.405-.961a.73.73 0 0 0-.725.002Zm1.586 3.006c-.003.234-1.086 2.12-1.218 2.12-.132 0-1.215-1.886-1.218-2.12 0-.05.276-.064 1.218-.064.941 0 1.218.015 1.218.064Zm-8.872 9.295c-.468.54-.874.987-.902.992-.042.009-.263-1.482-.275-1.859l-.004-.114H26.29l-.85.981Z" fill="#199F84"/></svg>