<svg width="53" height="53" fill="none" xmlns="http://www.w3.org/2000/svg"><rect width="53" height="53" rx="15" fill="#FFEAD0"/><path fill-rule="evenodd" clip-rule="evenodd" d="M26.846 13.055c-3.896.409-7.24 3.196-8.387 6.99-.314 1.037-.393 1.613-.393 2.855 0 1.246.08 1.819.396 2.866.475 1.573 1.273 2.904 2.454 4.097 3.001 3.03 7.506 3.797 11.317 1.927 2.839-1.394 4.826-4.047 5.403-7.214.152-.838.152-2.513 0-3.352-.943-5.178-5.61-8.712-10.79-8.169Zm1.942 1.518c.65.075 1.14.183 1.761.39l.545.18v.2c0 .413-.424.628-1.34.68-1.01.057-1.437.213-1.93.705-.479.478-.678 1.004-.68 1.795-.003.733-.082.882-.642 1.21-.43.253-.978.836-1.2 1.276-.21.42-.278.663-.324 1.158l-.036.379-.871-.584c-1.134-.76-1.19-.857-.906-1.587.301-.776.289-1.35-.044-2.027-.21-.427-.694-.915-1.058-1.065-.129-.053-.234-.11-.234-.129 0-.018.176-.191.392-.385 1.46-1.312 2.96-1.984 4.949-2.216.34-.039 1.192-.028 1.618.02Zm-11.79 1.405c-.366.572-.984 1.825-1.221 2.475a16.1 16.1 0 0 0-.377 1.27 12.879 12.879 0 0 0 1.04 9.11 12.409 12.409 0 0 0 2.35 3.21 12.383 12.383 0 0 0 3.469 2.488c.922.451 1.535.675 2.544.93l.823.209v1.806h-4.557V39h13.67v-1.524h-4.557v-1.818l.393-.085a15.788 15.788 0 0 0 2.1-.64c1.026-.408 2.604-1.307 2.548-1.452a20.31 20.31 0 0 0-.787-1.149c-.02-.022-.238.09-.486.246-1.283.813-2.81 1.38-4.401 1.631-.787.125-2.525.124-3.29-.002-2-.33-3.654-1.022-5.164-2.163-3.945-2.98-5.542-8.077-3.995-12.744.258-.78.733-1.792 1.156-2.464.157-.25.268-.47.246-.49a19.786 19.786 0 0 0-1.149-.79c-.044-.016-.17.132-.355.422Zm15.884.204c.541.414.891.737 1.275 1.178l.371.427-.384.487a40.91 40.91 0 0 1-1.64 1.97c-.387.42-.556.736-.702 1.31-.13.508-.141 1.38-.025 1.829.246.948.89 1.6 1.723 1.745.166.029.735.078 1.264.11.53.031 1.001.068 1.048.082.08.022.076.055-.042.39-.255.72-.793 1.715-1.227 2.266l-.098.125-.177-.136c-.097-.074-.408-.384-.691-.69l-.515-.553-.44-.024c-.856-.047-1.299-.341-1.836-1.218-.53-.866-1.137-1.367-1.996-1.648-.342-.113-.524-.137-1.173-.158l-.769-.024-.104-.243c-.259-.603-.314-1.083-.173-1.519.115-.358.399-.663.9-.966.231-.14.506-.35.61-.466.368-.408.58-1.088.582-1.862.001-.797.212-.99 1.14-1.044.945-.055 1.622-.262 2.101-.643.216-.17.532-.62.584-.829.019-.074.045-.135.058-.135.013 0 .164.107.336.239Zm-11.68 2.399c.277.071.467.229.581.481.128.282.12.384-.058.804-.376.888-.236 1.848.365 2.505.138.15.865.672 1.955 1.402l1.736 1.162.454.917c.396.802.454.951.454 1.182 0 .411-.188.726-.829 1.39l-.555.575.812.823c.793.803.925.973.998 1.275l.035.147-.291-.034c-1.2-.142-2.539-.643-3.572-1.336a8.376 8.376 0 0 1-3.194-9.92c.321-.865.673-1.493.814-1.452l.295.079Zm14.45 1.214c.427 1.068.645 2.326.593 3.422-.014.303-.036.562-.048.574-.023.023-2.107-.115-2.406-.16-.365-.053-.582-.472-.582-1.121 0-.67.063-.818.637-1.482.282-.326.739-.874 1.015-1.216.276-.343.52-.605.541-.583.022.022.134.277.25.566Zm-7.17 5.546c.37.139.744.486 1.003.93.664 1.14 1.528 1.764 2.674 1.932.208.03.28.083.725.53l.494.498-.218.18c-1.128.923-2.81 1.65-4.152 1.793l-.327.035-.063-.355c-.104-.587-.41-1.129-.95-1.69l-.226-.235.124-.147c.186-.222.471-.772.562-1.083.103-.355.102-1.026 0-1.375a6.733 6.733 0 0 0-.28-.702 6.358 6.358 0 0 1-.197-.455c0-.053.568.045.832.144Zm.181 11.323v.812H27.144v-1.625h1.52v.813Z" fill="#FFB762"/></svg>