<svg width="53" height="53" fill="none" xmlns="http://www.w3.org/2000/svg"><rect width="53" height="53" rx="15" fill="#BAE3DB"/><path fill-rule="evenodd" clip-rule="evenodd" d="M25.822 12.082c-.527.141-.934.399-1.46.923a6.988 6.988 0 0 0-.757.897c-.559.86-1.157 2.249-1.512 3.51-.097.346-.183.637-.19.646-.009.01-.32-.057-.691-.148-1.975-.485-3.842-.575-5.026-.242-.546.154-1.119.491-1.47.867-.758.81-.911 1.817-.474 3.124l.196.585-.095.247c-.144.377-.125.9.046 1.268.27.578.774.928 1.416.982l.36.03.454.492c.25.271.51.544.578.606l.122.114-.6.652c-.76.827-1.178 1.345-1.588 1.966-1.124 1.706-1.406 3.137-.845 4.293.186.382.82.984 1.259 1.195.708.34 1.182.42 2.447.418 1.228-.002 1.896-.087 3.22-.412.372-.092.682-.159.69-.15.008.01.094.301.191.647.354 1.258.958 2.657 1.523 3.526.138.212.474.61.747.884.386.388.587.543.914.703 1.101.54 2.232.334 3.2-.586a6.38 6.38 0 0 0 .595-.643c.166-.225.22-.262.441-.292a1.681 1.681 0 0 0 1.446-1.65c0-.309-.15-.79-.296-.952-.075-.082-.067-.142.074-.596.086-.278.186-.628.222-.778.036-.15.08-.272.096-.272s.328.073.692.162c1.31.322 1.98.407 3.206.41.982 0 1.181-.014 1.599-.12.729-.185 1.158-.416 1.602-.861.607-.608.83-1.206.777-2.08-.083-1.37-.958-2.925-2.71-4.815-.306-.33-.557-.614-.557-.63 0-.016.25-.3.557-.63 2.405-2.596 3.212-4.667 2.438-6.261-.186-.383-.82-.985-1.259-1.195-.374-.18-1.145-.394-1.421-.394a.384.384 0 0 1-.246-.104l-.287-.31c-.285-.305-.69-.472-1.152-.475-.32-.002-.436.025-.734.172-.351.173-.626.438-.755.728a.306.306 0 0 1-.231.183c-.09.018-.47.106-.841.196-.372.09-.683.156-.69.146-.008-.01-.094-.3-.192-.646-.353-1.258-.957-2.657-1.522-3.526-.347-.533-1.159-1.332-1.575-1.55-.636-.331-1.313-.42-1.932-.254Zm1.076 1.663c.628.286 1.37 1.364 1.948 2.835.183.464.655 1.988.622 2.006-.008.004-.358.14-.78.3a37.7 37.7 0 0 0-1.49.615l-.726.322-.725-.322a37.637 37.637 0 0 0-1.49-.614 88.979 88.979 0 0 1-.78-.3c-.03-.017.427-1.505.606-1.972.415-1.084 1.03-2.128 1.499-2.54.49-.432.878-.529 1.316-.33Zm-7.72 5.447c.664.086 2.25.43 2.323.504.023.023-.017.41-.088.862a31.514 31.514 0 0 0-.19 1.422c-.103 1.012-.047.901-.675 1.35-.308.218-.875.651-1.26.96-.386.31-.722.563-.747.563-.025 0-.284-.25-.574-.555-.381-.401-.517-.58-.49-.643.072-.163.088-.8.027-1.028-.152-.564-.695-1.046-1.323-1.176l-.31-.064-.093-.297c-.344-1.093-.02-1.653 1.097-1.892.5-.107 1.504-.11 2.304-.006Zm17.2.078c.559.161.924.583.927 1.071.004.736-.58 1.897-1.551 3.087-.395.483-1.287 1.425-1.35 1.425-.025 0-.38-.268-.788-.595-.409-.328-.976-.76-1.261-.962-.434-.308-.522-.395-.544-.54a45.347 45.347 0 0 1-.115-.964 35.057 35.057 0 0 0-.192-1.422c-.056-.348-.085-.65-.064-.671.04-.04 1.351-.372 1.468-.372.035 0 .146.077.247.172.298.28.677.429 1.09.43.523 0 .836-.126 1.168-.468.267-.276.29-.287.525-.268.135.011.333.046.44.077ZM24 20.54c.312.122.546.241.52.265-.128.122-1.58.914-1.596.87-.019-.052.14-1.214.188-1.375.023-.077.053-.083.175-.037l.713.277Zm5.947.471c.052.37.085.682.074.693-.02.02-1.512-.818-1.596-.897-.025-.023.27-.166.656-.319.49-.193.711-.258.736-.213.02.035.078.367.13.736Zm-3.16.8a51.94 51.94 0 0 1 2.727 1.556l.716.447.035.615c.046.79.046 2.357 0 3.148l-.035.618-.717.446c-.838.521-2.796 1.618-2.97 1.663-.145.037-1.36-.606-2.835-1.503l-.985-.598-.035-.485c-.048-.66-.054-2.537-.01-3.29l.035-.615.83-.514c.931-.577 2.808-1.62 2.916-1.62.039 0 .187.06.329.132Zm-.845 2.648c-1.372.49-1.492 2.366-.192 3.004.443.218 1 .218 1.443 0 .587-.288.89-.786.89-1.461 0-.466-.113-.778-.404-1.108-.392-.447-1.163-.64-1.737-.435Zm-4.942 1.543c0 .512-.014.93-.031.93-.043 0-1.17-.896-1.17-.93 0-.037 1.109-.924 1.16-.927.022-.002.04.415.04.927Zm11.565-.487c.305.244.554.463.554.487 0 .047-1.085.93-1.143.93-.018 0-.033-.418-.033-.93s.015-.93.033-.93c.019 0 .284.2.589.443Zm-13.278 2.199c.385.309.952.742 1.26.961.628.448.572.337.674 1.348.034.332.12.972.19 1.423.072.451.112.84.09.862-.08.08-1.664.42-2.377.51-.834.106-1.97.082-2.441-.051-.923-.262-1.22-.826-.93-1.767.215-.694.645-1.432 1.342-2.302.438-.546 1.373-1.547 1.446-1.547.025 0 .36.253.746.563Zm15.646-.054c1.487 1.555 2.372 3.05 2.372 4.005 0 .51-.384.914-1.045 1.102-.472.133-1.607.157-2.441.051-.714-.09-2.297-.43-2.377-.51-.023-.023.007-.34.066-.706.06-.365.155-1.08.213-1.586.101-.892.11-.926.256-1.032a51.152 51.152 0 0 0 1.99-1.525c.196-.167.384-.304.418-.306.034 0 .28.227.548.507Zm-11.197 3.074c.406.232.759.441.784.465.026.024-.27.167-.656.318-.486.19-.714.255-.738.211-.035-.064-.211-1.211-.211-1.376 0-.049.018-.078.041-.064l.78.446Zm6.211.259c-.052.37-.11.7-.13.736-.025.045-.238-.016-.716-.206-.374-.148-.689-.279-.7-.29-.01-.01.345-.23.79-.487.445-.257.818-.458.83-.447.011.012-.022.324-.074.694Zm-2.747 1.512c.397.175 1.066.451 1.487.612l.78.3c.024.013-.381 1.365-.426 1.422-.025.03-.158.089-.296.13-.15.043-.364.174-.527.321-.532.478-.71 1.112-.492 1.753l.116.345-.2.245c-.378.46-.822.736-1.183.733-.75-.005-1.645-1.12-2.362-2.942-.182-.464-.654-1.988-.621-2.006.007-.004.358-.14.78-.3a35.392 35.392 0 0 0 1.477-.611c.39-.175.719-.32.728-.32.01-.001.342.142.739.318Z" fill="#199F84"/></svg>