<svg width="53" height="53" fill="none" xmlns="http://www.w3.org/2000/svg"><rect width="53" height="53" rx="15" fill="#BAE3DB"/><path fill-rule="evenodd" clip-rule="evenodd" d="M26.18 12.875v.875h-1.65l.02 1.49c.021 1.648.04 1.754.403 2.322l.184.287-.34.408c-.26.31-.375.41-.483.412-.274.006-.99.22-1.325.398-.505.267-1.124.903-1.371 1.41-.291.595-.361 1.01-.362 2.146l-.001.97h1.641v2.38c0 1.308-.013 2.379-.029 2.379-.096 0-.611-.309-.802-.48-.504-.454-.742-1.003-.814-1.878-.056-.672-.24-1.317-.493-1.717-.465-.737-.89-1.081-1.993-1.613-.36-.175-1.801-.886-3.2-1.582l-2.545-1.265-.016 2.476c-.017 2.592.02 3.324.212 4.281.205 1.017.733 2.404 1.148 3.018.91 1.346 2.123 2.186 3.68 2.546.652.152 2.04.165 2.649.025.73-.167 1.445-.449 1.97-.775l.233-.144v2.193h-.166c-.267 0-.983.162-1.326.3-.892.357-1.382.802-2.456 2.228l-.812 1.079.655.494.655.494.817-1.086c.45-.597.908-1.16 1.02-1.252a2.569 2.569 0 0 1 2.172-.556c.458.096 1.522.651 1.247.651-.112 0-.935.844-1.14 1.169-.47.744-.608 1.226-.65 2.263l-.03.779h8.238l-.032-.78c-.04-1.008-.191-1.538-.64-2.249-.213-.335-1.035-1.182-1.149-1.182-.152 0-.01-.11.424-.325.791-.395 1.298-.473 1.954-.302.772.201 1.05.442 2.06 1.784l.817 1.086.655-.494.655-.494-.811-1.079c-.983-1.306-1.413-1.726-2.113-2.064-.536-.258-.982-.39-1.503-.444l-.333-.035v-2.174l.287.168c2.423 1.418 5.545 1.063 7.45-.847.725-.727 1.2-1.552 1.623-2.819.478-1.433.554-2.211.533-5.455l-.016-2.474-3.338 1.658c-3.697 1.837-3.795 1.897-4.288 2.633-.35.523-.537 1.104-.608 1.877-.06.669-.093.801-.3 1.208-.202.4-.569.778-.955.983a2.853 2.853 0 0 1-.355.172c-.018 0-.033-1.07-.033-2.38v-2.378h1.642l-.001-.971c-.001-1.132-.072-1.553-.357-2.133-.464-.941-1.382-1.605-2.453-1.774l-.39-.061-.34-.403-.341-.403.183-.287c.364-.568.383-.674.404-2.322l.02-1.49h-1.65V12h-1.642v.875Zm1.641 3.014c0 .415-.02.535-.123.717a.778.778 0 0 1-1.093.303c-.325-.183-.425-.424-.425-1.024v-.494h1.641v.498Zm-.218 3.011.184.228-.134.086c-.073.048-.25.195-.393.327l-.26.24-.26-.24a4.12 4.12 0 0 0-.393-.327l-.133-.086.183-.228.184-.228h.839l.183.228Zm-2.33 1.6c.34.166.597.434.764.794.102.22.117.37.133 1.274l.018 1.026h-1.65v-1.64h-.82c-.933 0-.889.027-.74-.474.288-.97 1.371-1.432 2.295-.98Zm4.925 0c.475.232.796.677.883 1.223l.037.23H29.463v1.64H27.82v-.919c0-1.025.057-1.322.323-1.69.46-.634 1.329-.839 2.054-.484ZM19.14 24.854c.304.338.448.766.497 1.474a3.95 3.95 0 0 0 1.242 2.66c.328.311.825.666 1.046.747.181.066.095.144-.465.421-.762.378-1.42.516-2.257.474-1.235-.062-2.242-.52-3.021-1.374-.528-.577-.878-1.27-1.191-2.353-.268-.928-.315-1.33-.343-2.943l-.027-1.521 2.132 1.065c1.97.985 2.15 1.087 2.387 1.35Zm20.173.462c-.133 1.334-.602 2.752-1.175 3.555-.974 1.363-2.764 2.032-4.49 1.676a4.262 4.262 0 0 1-1.108-.39c-.308-.154-.56-.296-.559-.317.001-.022.187-.15.413-.284.728-.433 1.392-1.221 1.706-2.025.176-.45.224-.68.283-1.342.062-.707.173-1.007.507-1.37.204-.22.504-.388 2.342-1.307l2.107-1.053.017 1.128c.01.62-.01 1.398-.043 1.73Zm-9.85 2.38v2.46H24.538V25.234H29.463v2.461Zm-3.284 0v.82h1.642v-1.641h-1.642v.82Zm3.284 5.082v.98l-.801.387c-.44.212-.81.386-.821.386-.011 0-.02-.246-.02-.547v-.547h-1.642v.547c0 .301-.008.547-.02.547-.01 0-.38-.174-.82-.386l-.801-.387V31.797H29.463v.98Zm-1.875 4.018c.421.112.744.284 1.047.556.27.242.565.654.634.884l.037.123H24.695l.037-.123c.068-.227.363-.64.624-.875.61-.548 1.474-.766 2.232-.565Z" fill="#199F84"/></svg>