<svg width="53" height="53" fill="none" xmlns="http://www.w3.org/2000/svg"><rect width="53" height="53" rx="15" fill="#D7D5ED"/><path fill-rule="evenodd" clip-rule="evenodd" d="M26.083 12.059c-2.151.41-3.822 1.84-4.516 3.867-.693 2.023-.176 4.302 1.329 5.856.212.22.38.404.372.409-.008.005-.175.067-.37.137-.829.298-1.812.871-2.39 1.392l-.285.257-.618-.109c-1.077-.189-2.71-.335-3.751-.335-.683 0-.932.098-1.105.436-.101.2-.11.322-.11 1.601v1.385l-.356.184c-.593.307-1.079.957-1.223 1.639-.08.376-.08 2.274 0 2.65.144.682.63 1.332 1.223 1.639l.356.184v1.385c0 1.995.002 1.997 1.532 2.058 3.94.156 6.844.993 9.79 2.822.346.214.721.418.834.452.289.088.495.012 1.244-.452 2.946-1.83 5.85-2.666 9.79-2.822 1.05-.042 1.241-.103 1.422-.458.102-.2.11-.32.11-1.6V33.25l.356-.184c.593-.307 1.079-.957 1.223-1.639.08-.376.08-2.274 0-2.65-.144-.682-.63-1.332-1.223-1.639l-.356-.184V25.57c0-1.28-.008-1.401-.11-1.6-.173-.339-.422-.437-1.105-.437-1.041 0-2.674.146-3.751.335l-.618.109-.285-.257c-.578-.52-1.561-1.094-2.39-1.392-.195-.07-.362-.132-.37-.137-.007-.005.16-.19.372-.409 1.506-1.556 2.023-3.831 1.33-5.856-.788-2.3-2.865-3.845-5.27-3.921-.443-.015-.823.004-1.08.054Zm2.093 1.751c2.346.754 3.544 3.322 2.596 5.562-.495 1.169-1.587 2.097-2.842 2.414-.39.098-1.47.098-1.86 0-1.255-.317-2.347-1.245-2.842-2.414-.198-.468-.274-.805-.311-1.37-.133-2.048 1.364-3.957 3.392-4.323.491-.089 1.376-.027 1.867.131Zm1.34 9.799c.257.041.697.153.979.247.494.166 1.209.521 1.209.601 0 .021-.216.108-.479.193-1.015.326-2.66 1.085-3.72 1.716l-.505.301-.506-.301c-1.058-.63-2.704-1.39-3.72-1.716-.262-.085-.478-.172-.478-.193 0-.08.715-.435 1.21-.601.847-.285 1.134-.312 3.44-.317 1.552-.004 2.227.014 2.57.07Zm-11.431 1.709c2.837.285 5.111 1.026 7.589 2.47l.506.296v9.622l-.946-.478a19.938 19.938 0 0 0-5.7-1.866c-.825-.135-2.112-.276-2.527-.277-.174 0-.41-.016-.522-.035l-.205-.034V33.251l.356-.184c.593-.307 1.079-.957 1.223-1.639.08-.376.08-2.274 0-2.65-.144-.682-.63-1.332-1.223-1.639l-.356-.184v-1.772l.506.027c.278.015.863.064 1.299.108Zm19.635.747v.89l-.356.184c-.593.307-1.079.957-1.223 1.639-.08.376-.08 2.274 0 2.65.144.682.63 1.332 1.223 1.639l.356.184V35.016l-.205.034a4.044 4.044 0 0 1-.522.035c-.415 0-1.702.142-2.527.277-1.946.319-3.91.962-5.7 1.866l-.946.478v-9.622l.506-.296c2.064-1.203 3.784-1.846 6.03-2.252a26.727 26.727 0 0 1 3.241-.35c.123-.01.123-.01.123.88Zm-21.876 2.506c.383.196.436.38.436 1.532 0 .884-.012 1.013-.11 1.206a.868.868 0 0 1-.71.436.868.868 0 0 1-.71-.436c-.1-.193-.11-.322-.11-1.206 0-.884.01-1.013.11-1.206.201-.396.678-.539 1.094-.326Zm23.08 0c.384.196.437.38.437 1.532 0 .884-.012 1.013-.11 1.206a.868.868 0 0 1-.71.436.868.868 0 0 1-.71-.436c-.1-.193-.11-.322-.11-1.206 0-.884.01-1.013.11-1.206.201-.396.678-.539 1.094-.326Z" fill="#7770C0"/></svg>