<svg width="53" height="53" fill="none" xmlns="http://www.w3.org/2000/svg"><rect width="53" height="53" rx="15" fill="#EDD2E2"/><path d="M14.964 14.099c-.499.156-.776.322-1.15.69-1.091 1.072-1.084 2.682.016 3.733.573.548 1.252.785 2.242.785h.59v8.882c0 7.803.01 8.919.084 9.193.242.898.945 1.604 1.88 1.888.342.103.52.105 9.407.105h9.06V37.636l-.172-.033a.92.92 0 0 1-.646-.477c-.112-.224-.114-.284-.114-4.679v-4.452l1.797-1.756c1.203-1.176 1.88-1.88 2.052-2.131a6.3 6.3 0 0 0 .844-1.801c.13-.47.146-.627.146-1.38 0-.753-.017-.91-.146-1.38a5.674 5.674 0 0 0-1.509-2.564c-.917-.894-2-1.419-3.362-1.63-.149-.023-.226-.071-.282-.176-.118-.22-.692-.726-.994-.874-.08-.04-.141-.074-.204-.104-.453-.216-1.016-.2-9.95-.198-8.747.003-9.305.009-9.589.098Zm1.079 1.708c.229.084.504.365.565.578.03.104.054.397.054.653v.464h-.58c-.682 0-.892-.072-1.101-.378-.471-.69.268-1.607 1.062-1.317Zm16.503.162c-.226.12-.534.302-.684.406-.151.104-2.474 2.317-5.163 4.918l-4.888 4.73v6.69l-1.15 1.114-1.15 1.114.643.624.642.625 1.18-1.142 1.178-1.141h6.9l2.137-2.07 2.135-2.072.032 3.783c.017 2.08.05 3.849.074 3.93l.044.145H26.86c-5.238 0-7.664-.017-7.77-.056-.23-.084-.504-.365-.566-.579-.034-.12-.054-3.875-.054-10.434-.001-8.604-.014-10.29-.078-10.525l-.076-.279 7.32.001h7.321l-.41.218Zm3.78 1.268c2.667.73 3.741 3.866 2.063 6.026-.09.116-2.175 2.165-4.633 4.552l-4.467 4.34h-4.327l1.012-.982 1.012-.982H30.08V28.386H28.85l1.012-.983 1.013-.982h3.098l-.015-.889-.015-.89-.59-.026-.589-.026 1.561-1.513 1.562-1.512-.643-.625-.643-.625-5.464 5.296-5.464 5.296v-4.194l4.533-4.384c2.492-2.41 4.626-4.45 4.74-4.53.306-.216 1.062-.543 1.408-.61.165-.031.35-.068.41-.082.244-.054 1.17.023 1.561.13Z" fill="#C2689E"/><path d="M14.964 14.099c-.499.156-.776.322-1.15.69-1.091 1.072-1.084 2.682.016 3.733.573.548 1.252.785 2.242.785h.59v8.882c0 7.803.01 8.919.084 9.193.242.898.945 1.604 1.88 1.888.342.103.52.105 9.407.105h9.06V37.636l-.172-.033a.92.92 0 0 1-.646-.477c-.112-.224-.114-.284-.114-4.679v-4.452l1.797-1.756c1.203-1.176 1.88-1.88 2.052-2.131a6.3 6.3 0 0 0 .844-1.801c.13-.47.146-.627.146-1.38 0-.753-.017-.91-.146-1.38a5.674 5.674 0 0 0-1.509-2.564c-.917-.894-2-1.419-3.362-1.63-.149-.023-.226-.071-.282-.176-.118-.22-.692-.726-.994-.874-.08-.04-.141-.074-.204-.104-.453-.216-1.016-.2-9.95-.198-8.747.003-9.305.009-9.589.098Zm1.079 1.708c.229.084.504.365.565.578.03.104.054.397.054.653v.464h-.58c-.682 0-.892-.072-1.101-.378-.471-.69.268-1.607 1.062-1.317Zm16.503.162c-.226.12-.534.302-.684.406-.151.104-2.474 2.317-5.163 4.918l-4.888 4.73v6.69l-1.15 1.114-1.15 1.114.643.624.642.625 1.18-1.142 1.178-1.141h6.9l2.137-2.07 2.135-2.072.032 3.783c.017 2.08.05 3.849.074 3.93l.044.145H26.86c-5.238 0-7.664-.017-7.77-.056-.23-.084-.504-.365-.566-.579-.034-.12-.054-3.875-.054-10.434-.001-8.604-.014-10.29-.078-10.525l-.076-.279 7.32.001h7.321l-.41.218Zm3.78 1.268c2.667.73 3.741 3.866 2.063 6.026-.09.116-2.175 2.165-4.633 4.552l-4.467 4.34h-4.327l1.012-.982 1.012-.982H30.08V28.386H28.85l1.012-.983 1.013-.982h3.098l-.015-.889-.015-.89-.59-.026-.589-.026 1.561-1.513 1.562-1.512-.643-.625-.643-.625-5.464 5.296-5.464 5.296v-4.194l4.533-4.384c2.492-2.41 4.626-4.45 4.74-4.53.306-.216 1.062-.543 1.408-.61.165-.031.35-.068.41-.082.244-.054 1.17.023 1.561.13Z" stroke="#EDD2E2"/></svg>