<svg width="53" height="53" fill="none" xmlns="http://www.w3.org/2000/svg"><rect width="53" height="53" rx="15" fill="#D7D5ED"/><path d="m14.862 31.076-.07-.072a.1.1 0 0 1 .11-.02l.021.01a1.748 1.748 0 0 1 .086.071c.052.047.126.115.219.203.187.176.454.433.782.751.656.636 1.555 1.519 2.539 2.494 1.624 1.608 2.516 2.497 2.987 2.986.234.244.368.393.436.484a.597.597 0 0 1 .043.065c.01.019.02.041.025.066a.124.124 0 0 1-.023.099.128.128 0 0 1-.073.046c-.436.104-.662.143-.87.145h-.061c-.093.001-.154.002-.2.01a.13.13 0 0 0-.047.014.05.05 0 0 0-.018.021.577.577 0 0 0-.035.217c-.004.102-.004.234-.004.409v.825h.098c.39 0 .957-.1 1.529-.255.572-.156 1.138-.365 1.529-.578 1.666-.911 2.918-2.392 3.498-4.133l.013-.039c.156-.468.231-.694.272-1.244.041-.559.047-1.446.057-3.232v-.137l.02-3.456.001-.1h.099l3.48-.018 3.467-.019.616-.166c3.094-.834 5.205-3.334 5.474-6.479l.03-.342h-.829c-.174 0-.305 0-.407.004a.584.584 0 0 0-.218.034.05.05 0 0 0-.022.018.13.13 0 0 0-.015.047 1.385 1.385 0 0 0-.01.198v.065a3.248 3.248 0 0 1-.134.791.54.54 0 0 1-.035.084.19.19 0 0 1-.027.04.117.117 0 0 1-.08.038.102.102 0 0 1-.048-.01.11.11 0 0 1-.025-.015 573.783 573.783 0 0 1-3.601-3.519l-3.555-3.518-.12-.12.163-.047.24-.07c.139-.04.388-.086.558-.103.165-.016.378-.04.473-.055l.092-.014v-1.448l-.157.003a7.318 7.318 0 0 0-.735.08c-1.579.246-3 .987-4.106 2.14l-.072-.069.072.07a7.069 7.069 0 0 0-1.664 2.756c-.167.501-.253.8-.298 1.423-.046.63-.05 1.588-.05 3.407v3.368h-3.365c-1.821 0-2.777.004-3.408.05-.623.047-.923.134-1.433.305-2.778.93-4.694 3.386-4.94 6.333l-.1-.008.1.008-.027.33-.009.1h1.548m.214-1.322a.273.273 0 0 0-.033.094l-.003-.002a.076.076 0 0 1-.009-.004l-.003-.002.008.006a.43.43 0 0 1 .007.006c-.04.162-.093.51-.15.965l-.031.26m.214-1.323a.364.364 0 0 1 .078.062.038.038 0 0 0 .003-.004l.002-.002v-.001.002l-.003.006-.08-.063Zm-.214 1.322v-.1h-.089l-.01.088.099.012Zm17.418-18.542-.04-.039-.07.071.028.096.054-.015 3.473 3.437c1.954 1.934 3.574 3.516 3.6 3.515.013 0 .03-.033.049-.086l.002.001.003.002-.005-.004a3.23 3.23 0 0 0 .13-.768c.004-.196-.002-.31.052-.375.08-.097.287-.09.838-.09h.72l-8.834-5.745Zm0 0 .13-.038c.132-.038.376-.083.54-.1.166-.015.381-.04.479-.055l.177-.027V12.1l-1.326 1.756Zm-4.24 12.97-.02 3.456c-.017 2.89-.018 3.517-.169 4.106-.045.176-.103.349-.179.577-.588 1.766-1.858 3.267-3.545 4.19-.8.437-2.3.845-3.106.845h-.098l7.117-13.174Zm0 0 3.48-.018 3.48-.019-6.96.037Zm-1.571 5.557v.042l-.008.52c-.004.257-.048.611-.106.925a5.335 5.335 0 0 1-.095.428 1.202 1.202 0 0 1-.107.285c0 .003-.003.008-.006.012a.12.12 0 0 1-.06.056.126.126 0 0 1-.096-.001.299.299 0 0 1-.06-.035c-.078-.054-.225-.188-.524-.476-.557-.537-1.66-1.63-3.865-3.815l-.583-.578c-1.176-1.166-1.8-1.787-2.114-2.123a2.187 2.187 0 0 1-.282-.339c-.017-.031-.04-.081-.025-.136l7.93 5.235Zm0 0-.03-.03m.03.03-.03-.03m0 0-2.828-2.802-2.828-2.802-.03-.03m5.685 5.634-5.685-5.634m0 0-.042.001m.042 0h-.042m0 0-.341.007a5.418 5.418 0 0 0-1.74.328l2.08-.335Zm16.65-2.715.068.064.068-.065.336-.32c.176-.167.382-.395.545-.593.08-.099.152-.192.203-.266a1.143 1.143 0 0 0 .085-.147.165.165 0 0 0 .012-.058c0-.025-.01-.044-.011-.045a.125.125 0 0 0-.007-.013l-.004-.005-.006-.007a57.375 57.375 0 0 0-8.019-7.977l-.018-.017-.007-.007-.007-.005a.103.103 0 0 0-.023-.012.177.177 0 0 0-.036-.007c-.03 0-.054.012-.062.016a1.513 1.513 0 0 0-.135.092 9.428 9.428 0 0 0-.85.77l.073.069-.072-.07-.353.371-.067.071.07.07 3.63 3.601a471.322 471.322 0 0 0 4.11 4.047l.476.443Zm-3.698 1.261.032.032.045-.003.497-.034c.474-.033 1.2-.178 1.549-.31a.304.304 0 0 0 .037-.017.152.152 0 0 0 .05-.042c.04-.053.027-.112.01-.151a.61.61 0 0 0-.085-.131 3.758 3.758 0 0 0-.175-.2c-.306-.329-.947-.963-2.206-2.21a17092.75 17092.75 0 0 0-3.76-3.724l-1.207-1.194-.119-.118-.047.16-.118.4.096.029-.096-.029c-.146.494-.245 1.198-.221 1.585l.017.276.002.038.027.027 2.836 2.808 2.836 2.808Zm-2.324.014h.24l-.17-.171-1.638-1.64a416.82 416.82 0 0 0-1.617-1.61l-.028-.026-.01-.008a.093.093 0 0 0-.007-.006l-.009-.006-.003-.002a.1.1 0 0 0-.049-.013.1.1 0 0 0-.1.086 141.185 141.185 0 0 0-.015 1.655v1.74H31.126Zm-5.186 9.304Zm-3.062-7.864h-.241l.17.171 1.638 1.64a416.82 416.82 0 0 0 1.618 1.61c.011.01.02.02.028.026l.01.008a.13.13 0 0 0 .028.018.1.1 0 0 0 .139-.078 145.824 145.824 0 0 0 .015-1.655v-1.74H22.876Zm2.181 9.47.05-.07-.06-.06-4.069-4.027a783.08 783.08 0 0 0-2.886-2.844 182.74 182.74 0 0 0-1.137-1.102 4.41 4.41 0 0 0-.101-.09.125.125 0 0 0-.025-.013.1.1 0 0 0-.034-.006c-.026 0-.046.01-.052.013a.551.551 0 0 0-.068.048 2.54 2.54 0 0 0-.115.103c-.09.085-.204.2-.321.321-.231.24-.482.514-.564.633a1.514 1.514 0 0 0-.121.211.201.201 0 0 0-.017.072c0 .024.009.042.01.045a.108.108 0 0 0 .017.025 644.252 644.252 0 0 0 4.018 4.032l4.015 3.978.061.061.07-.052.204-.154a7.47 7.47 0 0 0 .566-.499c.199-.19.387-.384.457-.482l.102-.144Z" fill="#7770C0" stroke="#D7D5ED" stroke-width=".2"/></svg>