<svg width="116" height="54" viewBox="0 0 116 54" fill="none" xmlns="http://www.w3.org/2000/svg">
<path d="M10.1801 21.035C11.6422 14.7061 15.3778 9.13471 20.6775 5.37893C25.9772 1.62314 32.4717 -0.055372 38.9275 0.662196C45.3833 1.37976 51.3507 4.44343 55.6963 9.27129C60.0418 14.0992 62.4629 20.3549 62.4996 26.8504C62.5363 33.3458 60.186 39.6285 55.8952 44.5052C51.6044 49.3818 45.672 52.5126 39.2247 53.3031C32.7774 54.0935 26.2644 52.4884 20.9226 48.7927C15.5809 45.097 11.7826 39.5681 10.2491 33.2562" stroke="#EEEEEE"/>
<path fill-rule="evenodd" clip-rule="evenodd" d="M35.7574 21.6967L40.5303 26.4697C40.8232 26.7626 40.8232 27.2374 40.5303 27.5303L35.7574 32.3033C35.4645 32.5962 34.9896 32.5962 34.6967 32.3033C34.4038 32.0104 34.4038 31.5355 34.6967 31.2426L38.1893 27.75L5.48401e-07 27.75L4.17266e-07 26.25L38.1893 26.25L34.6967 22.7574C34.4038 22.4645 34.4038 21.9896 34.6967 21.6967C34.9896 21.4038 35.4645 21.4038 35.7574 21.6967Z" fill="#199F84"/>
</svg>
