<svg width="217" height="40" fill="none" xmlns="http://www.w3.org/2000/svg"><path d="M96.061 21.71V7.006h-7.03V21.71H85V3h15.093v18.71h-4.032ZM113.758 20.024C112.465 21.34 110.903 22 109.072 22s-3.394-.659-4.687-1.976c-1.294-1.336-1.94-2.97-1.94-4.902s.646-3.557 1.94-4.875c1.293-1.335 2.856-2.003 4.687-2.003 1.831 0 3.393.668 4.686 2.003 1.294 1.318 1.94 2.943 1.94 4.875 0 1.933-.646 3.566-1.94 4.902Zm-6.702-2.61c.537.58 1.209.87 2.016.87.806 0 1.469-.29 1.99-.87.538-.579.806-1.343.806-2.292 0-.949-.268-1.713-.806-2.293-.521-.58-1.184-.87-1.99-.87-.807 0-1.479.29-2.016.87-.521.58-.781 1.344-.781 2.293 0 .949.26 1.713.781 2.293ZM123.003 22c-1.462 0-2.755-.378-3.881-1.133-1.125-.756-1.831-1.906-2.116-3.452h3.931c.117.439.352.782.705 1.027.37.229.815.334 1.336.317 1.125-.018 1.688-.448 1.688-1.292 0-.79-.462-1.185-1.386-1.185h-1.537v-2.636h1.386c.386 0 .688-.096.907-.29.235-.21.353-.492.353-.843s-.126-.641-.378-.87c-.236-.228-.605-.342-1.109-.342-.941 0-1.529.404-1.764 1.212h-3.83c.286-1.493.958-2.574 2.016-3.241 1.075-.685 2.31-1.028 3.704-1.028 1.646 0 2.881.422 3.704 1.265.84.826 1.26 1.722 1.26 2.688 0 1.124-.361 1.976-1.084 2.556 1.059.685 1.588 1.695 1.588 3.03 0 1.107-.479 2.091-1.437 2.952-.957.843-2.309 1.265-4.056 1.265ZM130.859 21.71V8.534h3.805v4.849h4.737V8.534h3.805V21.71h-3.805v-4.875h-4.737v4.875h-3.805ZM151.426 22c-1.629 0-3.015-.676-4.157-2.03-1.126-1.352-1.688-2.968-1.688-4.848s.562-3.496 1.688-4.849c1.142-1.353 2.528-2.029 4.157-2.029 1.445 0 2.587.536 3.427 1.608V8.534h3.805V21.71h-3.805v-1.318c-.84 1.072-1.982 1.608-3.427 1.608Zm-1.234-4.533c.537.615 1.234.923 2.091.923.857 0 1.545-.308 2.066-.923.538-.614.806-1.396.806-2.345 0-.949-.268-1.73-.806-2.345-.521-.615-1.209-.923-2.066-.923-.857 0-1.554.308-2.091.923-.521.615-.781 1.396-.781 2.345 0 .949.26 1.73.781 2.345ZM161.789 21.71V8.534h6.174c1.579 0 2.771.413 3.578 1.239.806.808 1.209 1.748 1.209 2.82 0 .79-.235 1.492-.705 2.107 1.007.809 1.511 1.792 1.511 2.952 0 1.09-.386 2.038-1.159 2.846-.756.808-1.915 1.212-3.477 1.212h-7.131Zm3.805-3.215h3.049c.319 0 .588-.097.806-.29.219-.21.328-.492.328-.843s-.109-.624-.328-.817a1.172 1.172 0 0 0-.806-.29h-3.049v2.24Zm0-4.849h2.293c.722 0 1.084-.351 1.084-1.054 0-.703-.362-1.054-1.084-1.054h-2.293v2.108ZM180.954 22c-1.629 0-3.015-.676-4.157-2.03-1.126-1.352-1.689-2.968-1.689-4.848s.563-3.496 1.689-4.849c1.142-1.353 2.528-2.029 4.157-2.029 1.445 0 2.587.536 3.427 1.608V8.534h3.805V21.71h-3.805v-1.318c-.84 1.072-1.982 1.608-3.427 1.608Zm-1.235-4.533c.538.615 1.235.923 2.092.923s1.545-.308 2.066-.923c.538-.614.806-1.396.806-2.345 0-.949-.268-1.73-.806-2.345-.521-.615-1.209-.923-2.066-.923-.857 0-1.554.308-2.092.923-.52.615-.781 1.396-.781 2.345 0 .949.261 1.73.781 2.345ZM199.506 21.71l-4.384-5.112v5.112h-3.805V8.534h3.805v5.191l3.906-5.191h4.459l-4.989 6.509 5.821 6.667h-4.813Z" fill="#0F3859"/><path d="M209.768 22c-1.629 0-3.015-.676-4.157-2.03-1.126-1.352-1.688-2.968-1.688-4.848s.562-3.496 1.688-4.849c1.142-1.353 2.528-2.029 4.157-2.029 1.445 0 2.587.536 3.427 1.608V8.534H217V21.71h-3.805v-1.318c-.84 1.072-1.982 1.608-3.427 1.608Zm-1.234-4.533c.537.615 1.234.923 2.091.923.857 0 1.546-.308 2.066-.923.538-.614.807-1.396.807-2.345 0-.949-.269-1.73-.807-2.345-.52-.615-1.209-.923-2.066-.923-.857 0-1.554.308-2.091.923-.521.615-.781 1.396-.781 2.345 0 .949.26 1.73.781 2.345Z" fill="#0F3859"/><path d="M86.727 37.524V32.98H85v-1.107h4.802v1.107h-1.808v4.545h-1.267ZM90.863 37.524v-5.652h2.625c.66 0 1.167.154 1.52.463.353.31.53.693.53 1.153 0 .4-.157.743-.472 1.029.56.294.84.739.84 1.334 0 .475-.172.874-.518 1.198-.345.317-.867.475-1.566.475h-2.96Zm1.266-1.051h1.682c.253 0 .453-.06.598-.181a.642.642 0 0 0 .23-.52c0-.226-.076-.4-.23-.52-.145-.128-.345-.192-.598-.192h-1.682v1.413Zm0-2.318h1.405c.208 0 .38-.049.518-.147.146-.105.22-.271.22-.497 0-.422-.246-.633-.738-.633H92.13v1.277ZM101.938 36.79c-.576.565-1.29.847-2.142.847-.852 0-1.57-.282-2.153-.848a2.84 2.84 0 0 1-.864-2.091c0-.822.288-1.515.864-2.08.583-.573 1.301-.86 2.153-.86.852 0 1.566.287 2.142.86.583.565.875 1.258.875 2.08 0 .821-.292 1.519-.875 2.091Zm-2.142-.306c.499 0 .91-.17 1.232-.509.33-.346.495-.772.495-1.277 0-.505-.165-.927-.495-1.266-.322-.347-.733-.52-1.232-.52-.507 0-.925.173-1.255.52-.322.339-.484.76-.484 1.266 0 .505.162.93.484 1.277.33.34.749.51 1.255.51ZM105.216 37.524h-1.129v-5.652h1.267v3.764l2.936-3.765h1.128v5.653h-1.266V33.76l-2.936 3.764Zm2.982-6.941c-.361.339-.814.509-1.359.509s-1.002-.17-1.37-.51c-.361-.346-.541-.802-.541-1.367v-.17h.898v.17c0 .346.096.622.288.825a.972.972 0 0 0 .725.294.974.974 0 0 0 .726-.294c.191-.203.287-.479.287-.825v-.17h.899v.17c0 .565-.185 1.021-.553 1.368ZM113.837 37.524v-5.652h5.193v5.652h-1.267V32.98h-2.66v4.545h-1.266ZM125.474 36.79c-.576.565-1.29.847-2.142.847-.852 0-1.57-.282-2.153-.848a2.838 2.838 0 0 1-.864-2.091c0-.822.288-1.515.864-2.08.583-.573 1.301-.86 2.153-.86.852 0 1.566.287 2.142.86.583.565.875 1.258.875 2.08 0 .821-.292 1.519-.875 2.091Zm-2.142-.306c.499 0 .91-.17 1.232-.509.33-.346.495-.772.495-1.277 0-.505-.165-.927-.495-1.266-.322-.347-.733-.52-1.232-.52-.506 0-.925.173-1.255.52-.322.339-.484.76-.484 1.266 0 .505.162.93.484 1.277.33.34.749.51 1.255.51ZM127.623 31.872h1.105l2.016 2.577 2.038-2.577h1.105v5.652h-1.266v-3.697l-1.866 2.374-1.865-2.374v3.697h-1.267v-5.652ZM140.34 36.79c-.576.565-1.29.847-2.142.847-.852 0-1.57-.282-2.153-.848a2.838 2.838 0 0 1-.864-2.091c0-.822.288-1.515.864-2.08.583-.573 1.301-.86 2.153-.86.852 0 1.566.287 2.142.86.583.565.875 1.258.875 2.08 0 .821-.292 1.519-.875 2.091Zm-2.142-.306c.499 0 .91-.17 1.232-.509.33-.346.495-.772.495-1.277 0-.505-.165-.927-.495-1.266-.322-.347-.733-.52-1.232-.52-.506 0-.925.173-1.255.52-.322.339-.484.76-.484 1.266 0 .505.162.93.484 1.277.33.34.749.51 1.255.51ZM151.206 36.416v2.521h-1.163v-1.413h-7.554v-5.652h1.267v4.544h2.003v-4.544h1.267v4.544h1.992v-4.544h1.267v4.544h.921ZM152.43 37.524v-5.652h1.266v2.238h2.775v-2.238h1.267v5.652h-1.267v-2.306h-2.775v2.306h-1.266ZM160.575 37.524h-1.128v-5.652h1.266v3.764l2.937-3.765h1.128v5.653h-1.267V33.76l-2.936 3.764ZM170.309 37.524l-2.556-2.408v2.408h-1.267v-5.652h1.267v2.419l2.268-2.42h1.543l-2.614 2.782 3.029 2.871h-1.67ZM175.167 37.524v-5.652h2.626c.66 0 1.167.154 1.52.463.353.31.529.693.529 1.153 0 .4-.157.743-.472 1.029.561.294.841.739.841 1.334 0 .475-.173.874-.518 1.198-.346.317-.868.475-1.566.475h-2.96Zm1.267-1.051h1.681c.253 0 .453-.06.599-.181a.643.643 0 0 0 .23-.52c0-.226-.077-.4-.23-.52-.146-.128-.346-.192-.599-.192h-1.681v1.413Zm0-2.318h1.405c.207 0 .38-.049.518-.147.146-.105.219-.271.219-.497 0-.422-.246-.633-.737-.633h-1.405v1.277ZM189.477 31.872l-2.994 6.523c-.253.565-.549.972-.886 1.22-.33.257-.745.385-1.244.385-.307 0-.541-.019-.702-.056v-1.075c.23.016.418.023.564.023.422 0 .767-.275 1.036-.825l.38-.825-2.487-5.37h1.393l1.808 3.922 1.727-3.922h1.405ZM195.023 37.524h-1.267V35.06c-.146.203-.368.365-.668.486-.299.12-.641.18-1.024.18-.63 0-1.14-.184-1.532-.553-.391-.37-.587-.897-.587-1.583V31.87h1.267v1.583c0 .777.395 1.165 1.186 1.165.353 0 .667-.117.944-.35.276-.234.414-.581.414-1.04v-1.357h1.267v5.652ZM199.269 37.637c-.86 0-1.566-.275-2.119-.825-.553-.558-.829-1.262-.829-2.114 0-.852.273-1.553.818-2.103.545-.558 1.259-.836 2.141-.836.891 0 1.609.305 2.154.915.545.603.787 1.38.725 2.33h-4.583a1.5 1.5 0 0 0 .507 1.096c.322.294.733.44 1.232.44.706 0 1.19-.263 1.451-.79h1.324a2.611 2.611 0 0 1-1.013 1.356c-.499.354-1.102.531-1.808.531Zm-.023-4.838c-.415 0-.772.116-1.071.35-.292.226-.48.55-.564.972h3.189c-.092-.437-.28-.765-.564-.983a1.543 1.543 0 0 0-.99-.34ZM206.247 37.637c-.937 0-1.67-.301-2.2-.904-.529-.603-.794-1.41-.794-2.42v-.452c0-1.402.268-2.445.806-3.131.545-.686 1.393-1.138 2.545-1.357l2.084-.373v1.187l-1.808.317c-.752.135-1.309.376-1.67.723-.353.347-.572.852-.656 1.515.476-.543 1.109-.814 1.9-.814.844 0 1.524.268 2.038.803.514.527.771 1.175.771 1.944 0 .83-.291 1.53-.875 2.103-.575.573-1.289.86-2.141.86Zm-1.256-1.64c.323.325.737.487 1.244.487s.921-.162 1.244-.486c.33-.332.495-.765.495-1.3 0-.475-.165-.87-.495-1.187-.323-.317-.733-.475-1.232-.475-.507 0-.922.162-1.244.486a1.608 1.608 0 0 0-.484 1.176c0 .535.158.968.472 1.3ZM213.1 37.637c-.859 0-1.566-.275-2.118-.825-.553-.558-.829-1.262-.829-2.114 0-.852.272-1.553.817-2.103.545-.558 1.259-.836 2.142-.836.89 0 1.608.305 2.153.915.545.603.787 1.38.726 2.33h-4.583c.015.436.184.802.506 1.096.323.294.733.44 1.232.44.707 0 1.19-.263 1.451-.79h1.325a2.618 2.618 0 0 1-1.014 1.356c-.499.354-1.101.531-1.808.531Zm-.023-4.838c-.414 0-.771.116-1.071.35-.291.226-.479.55-.564.972h3.19c-.092-.437-.28-.765-.564-.983a1.544 1.544 0 0 0-.991-.34Z" fill="#2E94FE"/><path d="M61.043 12.8V5.094c0-2.245-1.82-4.095-4.03-4.095H12.987c-2.21 0-4.03 1.586-4.03 3.831 0 1.145.433 2.07 1.17 2.774.737.66 1.733 1.057 2.86 1.057h44.07a4.144 4.144 0 0 1 3.986 4.14Z" fill="#fff"/><path fill-rule="evenodd" clip-rule="evenodd" d="M7.974 4.83c0-2.883 2.348-4.83 5.013-4.83h44.026c2.753 0 5.014 2.297 5.014 5.094V12.8c0 .552-.44 1-.984 1a.991.991 0 0 1-.983-1 3.151 3.151 0 0 0-3.024-3.14h-44.05c-1.356 0-2.587-.479-3.51-1.306a.973.973 0 0 1-.023-.022c-.927-.886-1.48-2.071-1.48-3.502ZM60.06 8.753V5.094C60.06 3.401 58.68 2 57.013 2H12.987c-1.755 0-3.047 1.223-3.047 2.831 0 .853.31 1.515.85 2.036.549.487 1.307.796 2.197.796h44.07a5.129 5.129 0 0 1 3.003 1.091Z" fill="#0F3859"/><path d="M61.087 12.8v22.986a108.548 108.548 0 0 1-52.087 0V4.83c0 1.145.477 2.07 1.17 2.774.737.66 1.734 1.101 2.86 1.101H57.1c2.167.044 3.987 1.85 3.987 4.095Z" fill="#2E94FE"/><path fill-rule="evenodd" clip-rule="evenodd" d="M9 3.83c.544 0 .984.448.984 1 0 .824.33 1.498.86 2.045a3.3 3.3 0 0 0 2.186.83H57.1l.02.001c2.683.055 4.95 2.286 4.95 5.094v22.986c0 .461-.31.862-.751.971a109.518 109.518 0 0 1-52.55 0 .996.996 0 0 1-.752-.97V4.83c0-.552.44-1 .983-1Zm.984 4.895v26.273a107.575 107.575 0 0 0 50.12 0V12.8c0-1.68-1.369-3.057-3.014-3.096H13.03a5.23 5.23 0 0 1-3.046-.979Z" fill="#0F3859"/><path d="m26.897 19.89-4.767-4.712-4.766 4.712V4.874h9.533V19.89Z" fill="#0F3859"/><path fill-rule="evenodd" clip-rule="evenodd" d="M.05 33.23a.98.98 0 0 1 1.24-.64 101.66 101.66 0 0 0 7.898 2.269h.001a107.577 107.577 0 0 0 51.622 0 101.656 101.656 0 0 0 7.899-2.268.98.98 0 0 1 1.24.638 1.003 1.003 0 0 1-.627 1.261c-2.671.89-5.34 1.645-8.048 2.311a109.516 109.516 0 0 1-52.55 0A103.626 103.626 0 0 1 .677 34.49a1.003 1.003 0 0 1-.628-1.26ZM61.274 36.8l-.232-.97.232.97Z" fill="#0F3859"/></svg>