<svg width="28" height="31" viewBox="0 0 28 31" fill="none" xmlns="http://www.w3.org/2000/svg">
<path d="M16.1968 28.9639L16.2106 28.9754L16.7094 29.3898C18.7567 31.0907 21.5652 31.4288 23.9983 30.2665C25.7247 29.4418 27.163 27.7169 27.6869 25.8416C27.9203 25.0063 27.9754 24.496 27.9404 23.4865C27.9056 22.4851 27.7802 21.8739 27.4324 21.0091C26.549 18.8117 24.4719 17.1352 22.1346 16.733L21.9191 16.6959L21.8778 16.6888L21.8776 16.6469L21.8556 12.1793C21.8449 9.99974 21.8387 8.88079 21.8197 8.24898C21.8007 7.61865 21.7692 7.47737 21.7087 7.25192C21.5609 6.70043 21.3163 6.15125 21.0425 5.75336C20.9736 5.65338 20.685 5.32432 20.2797 4.87752C19.8761 4.43252 19.3603 3.87452 18.8408 3.31935C18.3213 2.76418 17.7982 2.21201 17.3798 1.77864C16.9599 1.34361 16.649 1.03199 16.5516 0.95437C16.1744 0.653911 15.5398 0.327526 15.0277 0.171354C14.8733 0.124268 14.6764 0.0970238 13.7937 0.080871C12.9133 0.0647595 11.3562 0.0595318 8.48678 0.0535921C5.84043 0.0481071 4.27816 0.0481544 3.34381 0.059028C2.87655 0.0644658 2.56704 0.0726054 2.35777 0.0840621C2.14748 0.0955746 2.04198 0.11031 1.98044 0.127604L16.1968 28.9639ZM16.1968 28.9639H16.1787M16.1968 28.9639H16.1787M16.1787 28.9639H9.25761C6.24286 28.9639 4.50187 28.9609 3.47704 28.9478C2.96454 28.9412 2.63187 28.9322 2.40883 28.9197C2.18511 28.9072 2.07476 28.8915 2.0051 28.8727C1.13955 28.6393 0.500249 28.0227 0.181067 27.1083L0.05 26.7328V14.4991V2.26552L0.181066 1.88996C0.181066 1.88996 0.181066 1.88996 0.181067 1.88996C0.34864 1.40984 0.512265 1.14282 0.847884 0.800196C1.16215 0.479373 1.55164 0.248125 1.98044 0.127604L16.1787 28.9639ZM14.7711 27.1399C14.771 27.1397 14.7709 27.1395 14.7708 27.1392C14.7709 27.1395 14.771 27.1397 14.7711 27.1399ZM14.7711 27.1399L14.774 27.1387L19.8857 16.6833C17.7176 17.0603 15.7765 18.5427 14.7839 20.5795C14.5152 21.1308 14.2128 22.1148 14.1314 22.7024C14.0307 23.4293 14.0919 24.908 14.2483 25.5231C14.3462 25.9088 14.6005 26.6227 14.817 27.12C14.8199 27.1268 14.8068 27.133 14.7742 27.1387L14.7711 27.14C14.7711 27.14 14.7711 27.1399 14.7711 27.1399ZM15.957 2.70706L15.9211 2.74188L15.957 2.70706C15.4946 2.2307 15.1109 1.98894 14.585 1.84714C14.4283 1.80489 14.1382 1.78192 13.2581 1.76881C12.375 1.75565 10.8919 1.75257 8.3429 1.75264C7.95545 1.75264 7.59232 1.75254 7.25194 1.75246C4.70997 1.7518 3.43626 1.75147 2.77323 1.7946C2.39952 1.8189 2.20932 1.85725 2.09483 1.92406C2.03543 1.95873 1.99781 2.00008 1.96612 2.04642C1.95068 2.06899 1.9365 2.09298 1.92234 2.11709L1.91999 2.12109C1.90636 2.1443 1.89238 2.1681 1.87602 2.19346L1.74316 2.39939L1.73517 2.41177V2.4265V14.4991V26.5718V26.5865L1.74316 26.5989L1.87602 26.8048C1.89291 26.831 1.90714 26.8555 1.92103 26.8795L1.92199 26.8811C1.93596 26.9052 1.94997 26.9293 1.96528 26.9519C1.99681 26.9986 2.03454 27.0401 2.09519 27.0749C2.21171 27.1416 2.40821 27.1799 2.79881 27.2041C3.4889 27.2469 4.81778 27.2465 7.47036 27.2458C7.8388 27.2458 8.23277 27.2456 8.65411 27.2456C11.1217 27.2457 12.6693 27.2419 13.5967 27.2305C14.0603 27.2248 14.3697 27.2172 14.5617 27.2072C14.6574 27.2023 14.7256 27.1966 14.7695 27.1901C14.7908 27.1869 14.8099 27.183 14.8242 27.1775C14.8306 27.1751 14.842 27.1702 14.8514 27.1604C14.8567 27.1551 14.863 27.1465 14.8659 27.1346C14.8689 27.1221 14.8671 27.11 14.8629 27.1001L14.8628 27.1001C14.6471 26.6044 14.3938 25.8932 14.2967 25.5108C14.2199 25.2085 14.1656 24.6893 14.1434 24.1526C14.1212 23.6163 14.1312 23.0684 14.1809 22.7092C14.2616 22.1271 14.5624 21.1481 14.8288 20.6014C15.8147 18.5785 17.7426 17.1067 19.8942 16.7325L20.1137 16.6943L20.1551 16.6871V16.6451V12.2521C20.1551 10.1228 20.1542 9.02096 20.1389 8.40713C20.1235 7.79258 20.0935 7.6618 20.0335 7.4772C19.967 7.27305 19.8437 6.99247 19.7578 6.85155C19.7388 6.82042 19.6829 6.75159 19.6021 6.65679C19.5198 6.56027 19.4082 6.43302 19.2745 6.28272C19.007 5.98209 18.6501 5.58858 18.2596 5.16292C17.4787 4.31167 16.5627 3.33117 15.957 2.70706ZM13.6325 8.92256L13.6325 8.92256C13.777 8.84736 13.959 8.82221 14.457 8.82221C14.955 8.82221 15.1369 8.84736 15.2814 8.92256L15.2814 8.92256C15.7067 9.14378 15.8617 9.7378 15.599 10.145C15.4944 10.3072 15.3909 10.4028 15.2276 10.4604C15.06 10.5195 14.8262 10.54 14.457 10.54C13.959 10.54 13.777 10.5148 13.6325 10.4396L13.6325 10.4396C13.0419 10.1324 13.0419 9.22982 13.6325 8.92256ZM4.26769 8.92256L4.24461 8.8782L4.26769 8.92256C4.34896 8.88027 4.44886 8.85368 4.82121 8.83917C5.19213 8.82472 5.82495 8.82221 6.9651 8.82221C8.10525 8.82221 8.73807 8.82472 9.10899 8.83917C9.48134 8.85368 9.58124 8.88027 9.66251 8.92256L9.68559 8.8782L9.66251 8.92256C10.2532 9.22982 10.2532 10.1324 9.66251 10.4396L9.68559 10.484L9.66251 10.4396C9.58124 10.4819 9.48134 10.5085 9.10899 10.523C8.73807 10.5375 8.10525 10.54 6.9651 10.54C5.82495 10.54 5.19213 10.5375 4.82121 10.523C4.44886 10.5085 4.34896 10.4819 4.26769 10.4396L4.24461 10.484L4.26769 10.4396C3.67702 10.1324 3.67702 9.22982 4.26769 8.92256ZM13.6325 13.7709L13.6325 13.7709C13.777 13.6957 13.959 13.6706 14.457 13.6706C14.955 13.6706 15.1369 13.6957 15.2814 13.7709L15.2814 13.7709C15.7067 13.9921 15.8617 14.5862 15.599 14.9934C15.4944 15.1555 15.3909 15.2511 15.2276 15.3087C15.06 15.3679 14.8262 15.3883 14.457 15.3883C13.959 15.3883 13.777 15.3632 13.6325 15.288L13.6325 15.288C13.0419 14.9807 13.0419 14.0782 13.6325 13.7709ZM13.6095 8.8782C12.9829 9.20413 12.9829 10.158 13.6095 10.484L14.457 8.77221C13.9607 8.77221 13.7664 8.79651 13.6095 8.8782ZM4.26769 15.288L4.24461 15.3323L4.26769 15.288C3.67702 14.9807 3.67702 14.0782 4.26769 13.7709L4.24461 13.7266L4.26769 13.7709C4.34896 13.7286 4.44886 13.702 4.82121 13.6875C5.19213 13.6731 5.82495 13.6706 6.9651 13.6706C8.10525 13.6706 8.73807 13.6731 9.10899 13.6875C9.48134 13.702 9.58124 13.7286 9.66251 13.7709L9.68559 13.7266L9.66251 13.7709C10.2532 14.0782 10.2532 14.9807 9.66251 15.288L9.68559 15.3323L9.66251 15.288C9.58124 15.3303 9.48134 15.3569 9.10899 15.3714C8.73807 15.3858 8.10525 15.3883 6.9651 15.3883C5.82495 15.3883 5.19213 15.3858 4.82121 15.3714C4.44886 15.3569 4.34896 15.3303 4.26769 15.288ZM19.4478 22.5097L19.4627 22.4619L19.4478 22.5097C19.6864 22.5836 19.8951 22.8106 20.1085 23.2613L20.1537 23.2399L20.1085 23.2613C20.1509 23.3508 20.1942 23.4311 20.2302 23.4885C20.2479 23.5169 20.2648 23.5413 20.2796 23.5585C20.2868 23.5668 20.2953 23.5757 20.3046 23.5824C20.3093 23.5857 20.3162 23.59 20.325 23.5928C20.334 23.5956 20.3482 23.5977 20.3636 23.5914C20.3721 23.5879 20.3783 23.5826 20.3795 23.5815C20.3823 23.5793 20.385 23.5768 20.3874 23.5744C20.3923 23.5697 20.3982 23.5635 20.4049 23.5563C20.4183 23.5418 20.4365 23.5214 20.4586 23.4959C20.5029 23.4449 20.5642 23.3724 20.6379 23.2838C20.7855 23.1067 20.9837 22.8646 21.1967 22.6004C21.4391 22.2997 21.6491 22.0529 21.8126 21.875C21.8943 21.786 21.964 21.7148 22.0199 21.6629C22.0776 21.6094 22.1161 21.5808 22.1366 21.5716C22.6819 21.3259 23.2743 21.7235 23.2743 22.346C23.2743 22.4362 23.2701 22.5054 23.2436 22.587C23.2168 22.6696 23.1661 22.7678 23.0687 22.9128C22.8733 23.2037 22.4983 23.6703 21.7779 24.5583C21.1477 25.3349 20.8089 25.7411 20.5689 25.9431C20.4502 26.043 20.3597 26.0893 20.2738 26.1071C20.1872 26.1251 20.0995 26.1156 19.9819 26.0928C19.8912 26.0751 19.8165 26.0499 19.7462 26.006C19.6758 25.9619 19.607 25.8974 19.5309 25.7975C19.3772 25.5959 19.1996 25.2591 18.9196 24.6797C18.7054 24.2365 18.575 23.9538 18.498 23.7546C18.4213 23.5559 18.3992 23.444 18.3992 23.3415C18.3992 23.0313 18.5246 22.7809 18.7162 22.6295C18.9074 22.4784 19.1685 22.423 19.4478 22.5097ZM14.457 15.4383C15.1953 15.4383 15.4234 15.3578 15.641 15.0205L14.457 13.6206C13.9607 13.6206 13.7664 13.6449 13.6095 13.7266C12.9829 14.0525 12.9829 15.0064 13.6095 15.3323C13.7664 15.414 13.9607 15.4383 14.457 15.4383ZM26.2168 22.6996C25.8074 20.6999 24.2834 19.0578 22.3478 18.5325C22.0913 18.4628 21.6675 18.4129 21.2531 18.3909C20.8392 18.369 20.4266 18.3744 20.193 18.4184C18.1828 18.7969 16.6256 20.2007 15.9832 22.211C15.9054 22.4546 15.8629 22.6025 15.8406 22.816C15.8185 23.0273 15.8163 23.3028 15.8163 23.8019C15.8163 24.3021 15.8185 24.5773 15.8406 24.7883C15.863 25.0015 15.9057 25.1489 15.9841 25.3929C16.5737 27.2278 17.8131 28.477 19.6054 29.0409C19.8321 29.1123 19.9899 29.1538 20.1855 29.1777C20.38 29.2013 20.6106 29.2073 20.9828 29.2092C21.6923 29.2127 21.92 29.1905 22.3333 29.0744C24.3091 28.5191 25.8057 26.9122 26.2168 24.9043C26.2699 24.6451 26.2959 24.2219 26.2959 23.8019C26.2959 23.382 26.2699 22.9588 26.2168 22.6996ZM4.26769 20.1363C3.67702 19.8291 3.67702 18.9265 4.26769 18.6193C4.34896 18.577 4.44886 18.5504 4.82121 18.5359C5.19213 18.5214 5.82495 18.5189 6.9651 18.5189C8.10525 18.5189 8.73807 18.5214 9.10899 18.5359C9.48134 18.5504 9.58124 18.577 9.66251 18.6193C10.2532 18.9265 10.2532 19.8291 9.66251 20.1363C9.58124 20.1786 9.48134 20.2052 9.10899 20.2197C8.73807 20.2342 8.10525 20.2367 6.9651 20.2367C5.82495 20.2367 5.19213 20.2342 4.82121 20.2197C4.44886 20.2052 4.34896 20.1786 4.26769 20.1363Z" fill="#9BA2AC" stroke="white" stroke-width="0.1"/>
</svg>
