<svg width="30" height="27" viewBox="0 0 30 27" fill="none" xmlns="http://www.w3.org/2000/svg">
<mask id="path-1-inside-1_215_609" fill="white">
<path fill-rule="evenodd" clip-rule="evenodd" d="M0 10.751V21.502H3.36211H6.72422L6.95941 21.9731C8.24994 24.5583 10.7036 26.4033 13.5059 26.896C14.2968 27.0351 15.7082 27.0346 16.4941 26.8949C19.3133 26.3942 21.7536 24.5613 23.0206 21.9933L23.263 21.502H26.6315H30V10.751V0L23.3936 0.0172704C17.1449 0.0335283 16.7696 0.0404364 16.4648 0.144713C16.0078 0.301099 15.655 0.492383 15.3042 0.774246L15 1.01865L14.6958 0.774246C14.345 0.492383 13.9922 0.301099 13.5352 0.144713C13.2304 0.0404364 12.8551 0.0335283 6.60645 0.0172704L0 0V10.751ZM13.2715 1.94857C13.583 2.11972 13.8534 2.41481 13.9993 2.74288C14.1138 3.00033 14.1186 3.12361 14.1198 5.88162L14.1211 8.7523L13.9014 8.78714C12.5701 8.9979 11.5849 9.33288 10.5403 9.92996L10.0905 10.187H7.12535H4.16016V11.0795V11.972L6.1265 11.9877L8.09285 12.0033L7.81957 12.3607C7.54148 12.7243 7.00236 13.6134 6.90955 13.8616L6.8584 13.9984H5.50928H4.16016V14.8917V15.785H5.18555C5.96754 15.785 6.21059 15.8026 6.20953 15.8594C6.20877 15.9004 6.18322 16.041 6.1527 16.172C6.12223 16.3031 6.06844 16.7498 6.03316 17.1647C5.9727 17.8769 6.00943 18.7494 6.13107 19.4921L6.1677 19.7154H3.96275H1.75781V10.7513V1.78718L7.39746 1.8035L13.0371 1.81982L13.2715 1.94857ZM28.2422 10.7527V19.7154H26.0372H23.8323L23.8693 19.4921C24.0349 18.4907 24.0245 16.9362 23.8471 16.172C23.8167 16.041 23.7912 15.9004 23.7905 15.8594C23.7894 15.8026 24.0325 15.785 24.8145 15.785H25.8398V14.8917V13.9984H24.4981H23.1564L22.9669 13.6262C22.7419 13.1843 22.3559 12.5729 22.0927 12.2416L21.9035 12.0033L23.8717 11.9877L25.8398 11.972V11.0795V10.187H22.8742H19.9086L19.4026 9.89911C18.3606 9.30644 17.4563 9.00206 16.0986 8.78714L15.8789 8.7523V5.9183C15.8789 3.91834 15.8992 3.01546 15.9478 2.8505C16.0754 2.41778 16.5663 1.95834 17.0215 1.84572C17.1182 1.82178 19.6824 1.79951 22.7197 1.79611L28.2422 1.79004V10.7527ZM4.16016 7.2689V8.16219H7.93945H11.7188V7.2689V6.37561H7.93945H4.16016V7.2689ZM18.2812 7.2689V8.16219H22.0605H25.8398V7.2689V6.37561H22.0605H18.2812V7.2689ZM16.3463 10.6369C18.4977 11.0517 20.4091 12.4996 21.4128 14.4747C21.9822 15.5953 22.2257 16.612 22.2257 17.8693C22.2257 18.3721 22.1895 18.8638 22.1289 19.182C21.6998 21.4358 20.3008 23.3577 18.3399 24.3871C17.2232 24.9733 16.234 25.2153 14.9707 25.2115C13.7971 25.208 12.8179 24.9763 11.8071 24.4633C9.74865 23.4185 8.31041 21.4914 7.87295 19.192C7.74164 18.5018 7.74164 17.2369 7.87295 16.5466C8.38535 13.8532 10.2782 11.6809 12.832 10.8552C13.3159 10.6987 13.6231 10.6347 14.4434 10.5193C14.756 10.4753 15.863 10.5438 16.3463 10.6369ZM12.4512 13.9034L11.8066 14.2822L11.7915 17.8595L11.7764 21.4367L12.2017 21.6866C12.4356 21.824 12.7342 21.9992 12.8654 22.0759L13.1038 22.2153L16.1613 20.4232L19.2188 18.631V17.8695V17.108L16.1905 15.3299C14.525 14.3519 13.1473 13.5456 13.129 13.5381C13.1107 13.5307 12.8057 13.6951 12.4512 13.9034ZM15.3662 16.9176C16.2282 17.4224 16.9336 17.8507 16.9336 17.8693C16.9336 17.8879 16.2282 18.3162 15.3662 18.821C14.5041 19.3257 13.7395 19.7768 13.667 19.8233L13.5352 19.9078V17.8693V15.8308L13.667 15.9153C13.7395 15.9618 14.5041 16.4129 15.3662 16.9176Z"/>
</mask>
<path fill-rule="evenodd" clip-rule="evenodd" d="M0 10.751V21.502H3.36211H6.72422L6.95941 21.9731C8.24994 24.5583 10.7036 26.4033 13.5059 26.896C14.2968 27.0351 15.7082 27.0346 16.4941 26.8949C19.3133 26.3942 21.7536 24.5613 23.0206 21.9933L23.263 21.502H26.6315H30V10.751V0L23.3936 0.0172704C17.1449 0.0335283 16.7696 0.0404364 16.4648 0.144713C16.0078 0.301099 15.655 0.492383 15.3042 0.774246L15 1.01865L14.6958 0.774246C14.345 0.492383 13.9922 0.301099 13.5352 0.144713C13.2304 0.0404364 12.8551 0.0335283 6.60645 0.0172704L0 0V10.751ZM13.2715 1.94857C13.583 2.11972 13.8534 2.41481 13.9993 2.74288C14.1138 3.00033 14.1186 3.12361 14.1198 5.88162L14.1211 8.7523L13.9014 8.78714C12.5701 8.9979 11.5849 9.33288 10.5403 9.92996L10.0905 10.187H7.12535H4.16016V11.0795V11.972L6.1265 11.9877L8.09285 12.0033L7.81957 12.3607C7.54148 12.7243 7.00236 13.6134 6.90955 13.8616L6.8584 13.9984H5.50928H4.16016V14.8917V15.785H5.18555C5.96754 15.785 6.21059 15.8026 6.20953 15.8594C6.20877 15.9004 6.18322 16.041 6.1527 16.172C6.12223 16.3031 6.06844 16.7498 6.03316 17.1647C5.9727 17.8769 6.00943 18.7494 6.13107 19.4921L6.1677 19.7154H3.96275H1.75781V10.7513V1.78718L7.39746 1.8035L13.0371 1.81982L13.2715 1.94857ZM28.2422 10.7527V19.7154H26.0372H23.8323L23.8693 19.4921C24.0349 18.4907 24.0245 16.9362 23.8471 16.172C23.8167 16.041 23.7912 15.9004 23.7905 15.8594C23.7894 15.8026 24.0325 15.785 24.8145 15.785H25.8398V14.8917V13.9984H24.4981H23.1564L22.9669 13.6262C22.7419 13.1843 22.3559 12.5729 22.0927 12.2416L21.9035 12.0033L23.8717 11.9877L25.8398 11.972V11.0795V10.187H22.8742H19.9086L19.4026 9.89911C18.3606 9.30644 17.4563 9.00206 16.0986 8.78714L15.8789 8.7523V5.9183C15.8789 3.91834 15.8992 3.01546 15.9478 2.8505C16.0754 2.41778 16.5663 1.95834 17.0215 1.84572C17.1182 1.82178 19.6824 1.79951 22.7197 1.79611L28.2422 1.79004V10.7527ZM4.16016 7.2689V8.16219H7.93945H11.7188V7.2689V6.37561H7.93945H4.16016V7.2689ZM18.2812 7.2689V8.16219H22.0605H25.8398V7.2689V6.37561H22.0605H18.2812V7.2689ZM16.3463 10.6369C18.4977 11.0517 20.4091 12.4996 21.4128 14.4747C21.9822 15.5953 22.2257 16.612 22.2257 17.8693C22.2257 18.3721 22.1895 18.8638 22.1289 19.182C21.6998 21.4358 20.3008 23.3577 18.3399 24.3871C17.2232 24.9733 16.234 25.2153 14.9707 25.2115C13.7971 25.208 12.8179 24.9763 11.8071 24.4633C9.74865 23.4185 8.31041 21.4914 7.87295 19.192C7.74164 18.5018 7.74164 17.2369 7.87295 16.5466C8.38535 13.8532 10.2782 11.6809 12.832 10.8552C13.3159 10.6987 13.6231 10.6347 14.4434 10.5193C14.756 10.4753 15.863 10.5438 16.3463 10.6369ZM12.4512 13.9034L11.8066 14.2822L11.7915 17.8595L11.7764 21.4367L12.2017 21.6866C12.4356 21.824 12.7342 21.9992 12.8654 22.0759L13.1038 22.2153L16.1613 20.4232L19.2188 18.631V17.8695V17.108L16.1905 15.3299C14.525 14.3519 13.1473 13.5456 13.129 13.5381C13.1107 13.5307 12.8057 13.6951 12.4512 13.9034ZM15.3662 16.9176C16.2282 17.4224 16.9336 17.8507 16.9336 17.8693C16.9336 17.8879 16.2282 18.3162 15.3662 18.821C14.5041 19.3257 13.7395 19.7768 13.667 19.8233L13.5352 19.9078V17.8693V15.8308L13.667 15.9153C13.7395 15.9618 14.5041 16.4129 15.3662 16.9176Z" fill="#9BA2AC" stroke="white" stroke-width="0.2" mask="url(#path-1-inside-1_215_609)"/>
</svg>
