<svg width="32" height="23" viewBox="0 0 32 23" fill="none" xmlns="http://www.w3.org/2000/svg">
<path d="M7.09215 0.953572L7.09216 0.953571C7.52695 0.92927 7.94902 0.905857 8.02989 0.901674L7.09215 0.953572ZM7.09215 0.953572C6.20359 1.00337 5.09064 1.16681 4.29593 1.36448L4.29592 1.36448L7.09215 0.953572ZM2.44849 2.66266H2.4485L3.41637 2.66152L3.43354 2.33112L3.43354 2.3311L3.5334 2.33629L2.44849 2.66266ZM2.44849 2.66266C1.88392 2.66334 1.56457 2.66756 1.36851 2.71353C1.26542 2.7377 1.18779 2.77498 1.12428 2.83437C1.06337 2.89132 1.0221 2.96285 0.981958 3.03931L0.98195 3.03932M2.44849 2.66266L0.98195 3.03932M0.98195 3.03932C0.974293 3.05391 0.971296 3.06826 0.970342 3.07284M0.98195 3.03932L0.970342 3.07284M1.58076 22.1095L1.5405 22.0902L1.32492 21.9874C1.25662 21.9548 1.18733 21.9079 1.12955 21.8587C1.07364 21.8111 1.01947 21.7537 0.990573 21.6971L1.58076 22.1095ZM1.58076 22.1095L1.62196 22.0923M1.58076 22.1095L1.62196 22.0923M1.62196 22.0923L2.37253 21.7803C6.32471 20.1376 10.6854 19.7771 15.1732 20.7245L15.1939 20.6267M1.62196 22.0923L15.1939 20.6267M15.1939 20.6267L15.1732 20.7245L15.9757 20.8939L15.9965 20.8983M15.1939 20.6267L15.9965 20.8983M15.9965 20.8983L16.0172 20.8939M15.9965 20.8983L16.0172 20.8939M16.0172 20.8939L16.7964 20.7282C17.7521 20.5251 18.9316 20.346 19.819 20.2691C21.1577 20.1531 23.6129 20.2249 24.7692 20.4132C26.7113 20.7296 28.1539 21.1344 29.6762 21.7892C30.0469 21.9486 30.2901 22.0402 30.4729 22.0494C30.5699 22.0542 30.6532 22.0365 30.7305 21.9938C30.805 21.9527 30.868 21.8914 30.9297 21.82L30.854 21.7546M16.0172 20.8939L30.854 21.7546M30.854 21.7546L30.9297 21.82L31.0755 21.6512L31.0998 21.623M30.854 21.7546L31.0998 21.623M31.0998 21.623V21.5858V21.623ZM16.444 3.43923L16.3794 3.36293C18.4915 1.57367 21.3622 0.755709 24.7872 0.953296C25.4625 0.992258 26.2009 1.07688 26.8238 1.17806C27.1352 1.22865 27.4187 1.28354 27.6516 1.33921C27.8822 1.3943 28.0704 1.45181 28.1866 1.5095C28.3153 1.57345 28.4085 1.65052 28.4617 1.78934C28.5105 1.91656 28.5221 2.08835 28.5221 2.32962V2.66141H29.4739C29.82 2.66141 30.0982 2.66726 30.3034 2.67887C30.4058 2.68466 30.4914 2.69196 30.5587 2.70093C30.6226 2.70944 30.6802 2.72061 30.7198 2.7382C30.7198 2.73821 30.7198 2.73821 30.7198 2.73821L16.444 3.43923ZM16.444 3.43923L16.3794 3.36293L15.9799 3.70133M16.444 3.43923L15.9799 3.70133M15.9799 3.70133L15.624 3.37753C15.624 3.37753 15.624 3.37753 15.624 3.37752C14.3629 2.23027 12.5353 1.42269 10.4819 1.09789C10.2029 1.05375 9.67277 1.00052 9.17406 0.960492C8.67792 0.920674 8.20006 0.892838 8.02991 0.901672L15.9799 3.70133ZM10.3187 2.45338L10.3187 2.45337C9.82996 2.36224 9.4154 2.33337 8.35597 2.31935C8.35597 2.31935 8.35597 2.31935 8.35596 2.31935L8.35729 2.21936L10.3187 2.45338ZM10.3187 2.45338C12.2471 2.81283 13.6869 3.48352 14.851 4.55695L14.9188 4.48344L14.851 4.55695L15.3166 4.98632V11.9844C15.3166 13.9209 15.3132 15.6812 15.3076 16.9574C15.3049 17.5955 15.3016 18.1124 15.298 18.4697C15.2962 18.6401 15.2944 18.7739 15.2925 18.8672C15.2528 18.8444 15.2074 18.8174 15.1603 18.7884C14.1833 18.1858 12.5141 17.6383 10.9153 17.3908C9.12529 17.1136 7.50876 17.0897 5.14085 17.3035L4.79582 17.3347V9.99646V2.63172L10.3187 2.45338ZM0.970342 3.07284L0.970295 3.07306M0.970342 3.07284L0.970295 3.07306M0.970295 3.07306C0.968792 3.08024 0.967648 3.0878 0.966729 3.09489M0.970295 3.07306L0.966729 3.09489M0.966729 3.09489C0.964869 3.10924 0.96323 3.12725 0.961724 3.14797M0.966729 3.09489L0.961724 3.14797M0.961724 3.14797C0.958691 3.18971 0.955839 3.24753 0.95313 3.31972M0.961724 3.14797L0.95313 3.31972M0.95313 3.31972C0.947701 3.46437 0.942717 3.6703 0.938159 3.92832M0.95313 3.31972L0.938159 3.92832M0.938159 3.92832C0.92904 4.44456 0.921592 5.1715 0.915775 6.03868M0.938159 3.92832L0.915775 6.03868M0.915775 6.03868C0.90414 7.77316 0.899025 10.0698 0.900153 12.3666M0.915775 6.03868L0.900153 12.3666M0.900153 12.3666C0.90128 14.6633 0.908651 16.9604 0.921993 18.6956M0.900153 12.3666L0.921993 18.6956M0.921993 18.6956C0.928663 19.5631 0.936827 20.2905 0.946457 20.8073M0.921993 18.6956L0.946457 20.8073M0.946457 20.8073C0.95127 21.0656 0.956458 21.2718 0.962031 21.4167M0.946457 20.8073L0.962031 21.4167M0.962031 21.4167C0.964812 21.4891 0.967722 21.5471 0.970796 21.589M0.962031 21.4167L0.970796 21.589M0.970796 21.589C0.972323 21.6098 0.973978 21.6278 0.975845 21.6422M0.970796 21.589L0.975845 21.6422M0.975845 21.6422C0.976769 21.6494 0.977911 21.6569 0.979398 21.6641M0.975845 21.6422L0.979398 21.6641M0.979398 21.6641L0.979428 21.6642M0.979398 21.6641L0.979428 21.6642M0.979428 21.6642C0.980386 21.6688 0.98328 21.6828 0.990548 21.697L0.979428 21.6642ZM26.9676 2.58949L26.9676 2.5895L27.1799 2.64051L27.1946 10.0031L27.2092 17.3349L26.8641 17.3042C25.5311 17.1858 25.0269 17.159 24.1099 17.1581C21.4098 17.1556 19.0248 17.6558 17.143 18.6249L16.6883 18.859V11.9839V4.98756L17.0529 4.6386C18.402 3.34723 19.9786 2.68541 22.6067 2.32402C22.7029 2.3108 22.9255 2.30444 23.2232 2.30463C23.5178 2.30483 23.8786 2.31136 24.2459 2.32246C24.9831 2.34473 25.7382 2.38514 26.0394 2.42848L26.0537 2.3295L26.0394 2.42848C26.3958 2.47974 26.8136 2.55243 26.9676 2.58949ZM3.48273 18.32V18.3601L3.51046 18.3891L3.63325 18.5175L3.63326 18.5175C3.73626 18.6252 3.84103 18.6969 3.98176 18.7291C4.11702 18.76 4.2767 18.7522 4.48463 18.7223C5.36246 18.596 6.86448 18.4992 7.94718 18.4994C9.37103 18.4996 10.5931 18.6344 11.7382 18.9183C10.6471 18.8807 8.61974 18.9064 7.99484 18.9752C6.16719 19.1764 4.19322 19.6422 2.53706 20.2631L2.27673 20.3608V12.2039V4.00281H2.87973H3.48273V11.1114V18.32ZM23.3676 18.9235C22.7409 18.8734 21.2734 18.8737 20.2817 18.9129C20.9301 18.7581 21.7777 18.6122 22.4249 18.55C23.2994 18.4659 25.884 18.5163 26.8574 18.6367C27.2769 18.6887 27.5733 18.7169 27.7859 18.7214C27.9953 18.7257 28.1394 18.7078 28.2428 18.6539C28.2476 18.6514 28.253 18.6487 28.2589 18.6458C28.2866 18.632 28.3254 18.6127 28.3576 18.5852C28.4025 18.5469 28.4347 18.4957 28.459 18.4228C28.5047 18.2862 28.5309 18.0455 28.5481 17.5893C28.5809 16.7177 28.5808 15.0096 28.5807 11.6004C28.5807 11.409 28.5807 11.2122 28.5807 11.0099V4.00281H29.1544H29.7281V12.2039V20.3614L29.4674 20.2649C27.5501 19.5554 25.423 19.0876 23.3676 18.9235Z" fill="#9BA2AC" stroke="#9BA2AC" stroke-width="0.2"/>
</svg>
