<svg width="27" height="27" viewBox="0 0 27 27" fill="none" xmlns="http://www.w3.org/2000/svg">
<path d="M12.5693 4.59268L12.5693 4.59266C12.555 4.43062 12.5673 4.12301 12.597 3.91176C12.6313 3.66811 12.6631 3.54005 12.7914 3.39702C12.9248 3.24829 13.1624 3.08367 13.6209 2.78093C15.9475 1.24457 18.7804 0.289813 21.6305 0.0818126C22.709 0.00307789 24.1655 0.0731556 25.3792 0.262482C25.6574 0.305863 25.8699 0.34496 26.0359 0.395739C26.2014 0.44634 26.317 0.5075 26.4038 0.592801C26.4905 0.678033 26.5524 0.791268 26.6033 0.953101C26.6544 1.11562 26.6934 1.32358 26.7365 1.59599C27.2944 5.11879 26.757 8.56272 25.1465 11.7858C24.2799 13.5199 23.3106 14.7909 21.3476 16.7632C21.0371 17.0752 20.7458 17.3762 20.5265 17.6098C20.417 17.7266 20.3252 17.8267 20.2579 17.9032C20.2243 17.9413 20.1966 17.9739 20.1757 17.9998C20.1559 18.0244 20.1394 18.0464 20.1313 18.0621L20.1313 18.0621C20.0715 18.1777 20.0069 18.2677 19.9239 18.3388C19.8409 18.4097 19.7369 18.4642 19.5952 18.5051C19.3089 18.5877 18.877 18.6133 18.173 18.6133H17.1256H17.0069L17.0898 18.6982L17.5166 19.1354C17.7424 19.3668 17.8713 19.5232 17.9366 19.6624C18 19.7976 18.0049 19.9196 17.9712 20.0879C17.9519 20.1842 17.8896 20.3041 17.8082 20.4104C17.7264 20.5173 17.6319 20.6018 17.5545 20.6344L17.5545 20.6344C17.5389 20.641 17.5193 20.6541 17.4992 20.6688C17.4777 20.6845 17.4515 20.7051 17.4214 20.7299C17.361 20.7796 17.2834 20.8472 17.194 20.9276C17.0152 21.0886 16.788 21.3022 16.5556 21.5298C16.091 21.9847 15.5631 22.4545 15.3827 22.5754C14.664 23.0568 13.784 23.3892 12.892 23.516C12.841 23.5233 12.6923 23.5305 12.4568 23.5369C12.2229 23.5433 11.9068 23.549 11.5239 23.5537C10.7581 23.5631 9.72541 23.5688 8.54939 23.5691L4.56886 23.5701L4.5482 23.5701L4.53357 23.5847L2.87133 25.2419L2.84973 25.2635C1.96457 26.1459 1.5271 26.5821 1.25287 26.7881C1.11573 26.8911 1.02486 26.9323 0.943498 26.9451C0.861185 26.9581 0.783362 26.9435 0.664782 26.9213L0.662852 26.9209C0.546633 26.8991 0.411514 26.8154 0.298047 26.702C0.18458 26.5885 0.100858 26.4534 0.0790655 26.3372L0.0299223 26.3464L0.0790648 26.3372L0.0787008 26.3353C0.0564547 26.2167 0.0418547 26.1389 0.0548778 26.0566C0.0677501 25.9752 0.108872 25.8844 0.211913 25.7472C0.417969 25.473 0.854143 25.0356 1.73669 24.1505L1.75821 24.1289L3.41555 22.4668L3.43015 22.4522L3.43015 22.4315L3.43036 18.4249C3.43057 14.0829 3.443 13.8762 3.71944 13.0528L3.67204 13.0369L3.71944 13.0528C3.87471 12.5902 4.15353 12.0256 4.43763 11.5986C4.44969 11.5804 4.48585 11.5374 4.54692 11.4694C4.60685 11.4028 4.68823 11.3149 4.78813 11.2088C4.9879 10.9966 5.26102 10.7122 5.58317 10.3801C6.22743 9.71605 7.06729 8.8619 7.90745 8.01461C8.74762 7.16731 9.58797 6.32699 10.2332 5.6906C10.5559 5.37238 10.8296 5.10528 11.0301 4.91384C11.1303 4.81809 11.212 4.74148 11.2723 4.68694C11.3024 4.65964 11.3269 4.63815 11.3455 4.62265C11.3548 4.61489 11.3623 4.60889 11.3681 4.60451L11.375 4.59955C11.3766 4.59847 11.3773 4.59807 11.3773 4.59807C11.6588 4.44882 12.0541 4.5293 12.3048 4.79756L12.3048 4.79757C12.3412 4.83652 12.3791 4.87228 12.4112 4.89868C12.4271 4.91181 12.4425 4.92332 12.4561 4.93184C12.4629 4.93608 12.4701 4.94015 12.4774 4.94332C12.4836 4.94602 12.4947 4.95027 12.5077 4.95027C12.5403 4.95027 12.5554 4.92442 12.5591 4.91746C12.5644 4.90729 12.5675 4.89598 12.5695 4.88667C12.5736 4.86715 12.5759 4.84159 12.577 4.81314C12.5793 4.75548 12.5768 4.67746 12.5693 4.59268ZM25.1834 1.86158L25.1784 1.82377L25.1406 1.81863L24.6659 1.75409C24.3478 1.71083 23.6915 1.67946 23.0384 1.66635C22.3852 1.65325 21.7296 1.65829 21.4129 1.68879L21.4177 1.73856L21.4129 1.68879C18.9832 1.92299 16.589 2.74771 14.5778 4.04347L14.2268 4.26953L14.2042 4.28408L14.2039 4.31094L14.1857 5.75611L14.1676 7.18663L14.0354 7.38629L14.0771 7.4139L14.0354 7.38629C13.8242 7.70536 13.4248 7.83401 13.0674 7.69816L13.0496 7.7449L13.0674 7.69816C13.0627 7.69636 13.0524 7.69102 13.0355 7.67991C13.0194 7.6693 12.9994 7.65496 12.9761 7.63709C12.9294 7.60138 12.8706 7.55283 12.8036 7.49475C12.6698 7.37866 12.5048 7.22582 12.3411 7.06439L12.306 7.09998L12.3411 7.06439L11.7438 6.47511L11.7084 6.44019L11.6733 6.47539L8.75516 9.40096L8.74014 9.41603C7.14833 11.0119 6.34953 11.8127 5.90847 12.3346C5.68662 12.597 5.55369 12.7907 5.45551 12.9809C5.35835 13.1692 5.29608 13.3526 5.21509 13.5911L5.21322 13.5966L5.04705 14.0859L5.04443 14.0936L5.04439 14.1018L5.0292 17.4239L5.01407 20.746L5.01351 20.8674L5.09941 20.7816L12.4975 13.3893C12.998 12.8892 13.4651 12.4223 13.9013 11.9863C16.9745 8.91445 18.5101 7.37954 19.322 6.62471C19.5537 6.40933 19.7257 6.25822 19.8572 6.15329C19.9891 6.048 20.0779 5.99115 20.1437 5.96214C20.207 5.93417 20.2479 5.93251 20.2861 5.93857C20.307 5.94186 20.3278 5.94757 20.3537 5.95475L20.3547 5.95503C20.3796 5.96197 20.4084 5.96996 20.4417 5.97621L20.4509 5.92706L20.4417 5.97621C20.5579 5.998 20.693 6.08172 20.8065 6.19517C20.92 6.30863 21.0037 6.44374 21.0255 6.55994C21.0318 6.59366 21.0399 6.62275 21.0469 6.64797C21.0541 6.67383 21.0598 6.69464 21.0631 6.71547C21.0692 6.75374 21.0675 6.79455 21.0396 6.85792C21.0106 6.92361 20.9537 7.01242 20.8484 7.14433C20.7435 7.27577 20.5924 7.44766 20.377 7.67927C19.6221 8.49095 18.0872 10.0261 15.015 13.0984C14.5791 13.5344 14.1121 14.0014 13.612 14.5017L6.21944 21.8974L6.13412 21.9827H6.2548H9.37451C11.0568 21.9827 11.9411 21.98 12.4954 21.9429C13.0535 21.9055 13.2808 21.8328 13.6481 21.6943L13.6304 21.6475L13.6481 21.6943C14.2349 21.4729 14.63 21.1993 15.2696 20.5763L15.8649 19.9963L15.901 19.9611L15.8655 19.9253L15.0253 19.0789C14.7945 18.8465 14.5783 18.6223 14.4158 18.4485C14.3346 18.3615 14.267 18.2874 14.2178 18.2312C14.1932 18.2031 14.1735 18.1798 14.1592 18.1618C14.152 18.1528 14.1463 18.1455 14.1422 18.1397L14.1374 18.1327C14.1363 18.131 14.1359 18.1302 14.1358 18.1301C14.0973 18.0541 14.0796 17.9267 14.0864 17.7894C14.0932 17.653 14.1237 17.5172 14.1725 17.4261L14.1285 17.4024L14.1725 17.4261C14.1958 17.3827 14.2417 17.3234 14.2988 17.2627C14.3554 17.2025 14.4203 17.1438 14.4793 17.101L14.4793 17.101L14.6923 16.9467L16.7993 16.9319L18.9222 16.9171L18.9429 16.9169L18.9574 16.9022L20.3497 15.4933C21.1152 14.7187 21.9384 13.8316 22.1784 13.522C24.3686 10.6966 25.4811 7.27093 25.3466 3.76462C25.3266 3.24221 25.2817 2.5996 25.2466 2.33617L25.1834 1.86158Z" fill="#9BA2AC" stroke="white" stroke-width="0.1"/>
</svg>
