<svg width="30" height="32" viewBox="0 0 30 32" fill="none" xmlns="http://www.w3.org/2000/svg">
<mask id="path-1-outside-1_215_626" maskUnits="userSpaceOnUse" x="0" y="0" width="30" height="32" fill="black">
<rect fill="white" width="30" height="32"/>
<path fill-rule="evenodd" clip-rule="evenodd" d="M3.14918 1.12114C2.0848 1.47705 1.38276 2.2304 1.11142 3.30784C0.962861 3.89756 0.962861 13.0947 1.11142 13.6844C1.31366 14.4874 1.86579 15.2283 2.54835 15.6124C2.88898 15.8042 3.56324 15.9948 3.90679 15.9964L4.11389 15.9974L4.13344 17.5772L4.15293 19.1571L4.33465 19.3186C4.58384 19.5402 4.8783 19.5295 5.19555 19.2875C5.33446 19.1815 6.29262 18.3979 7.32488 17.5461C8.35706 16.6943 9.22399 15.9974 9.25144 15.9974C9.27884 15.9974 9.30124 17.9802 9.30124 20.4038C9.30124 25.2073 9.30208 25.2198 9.67574 25.9354C9.8967 26.3587 10.419 26.8967 10.8374 27.1323C11.5071 27.5093 11.5931 27.5152 16.4009 27.5163L20.8131 27.5173L22.6238 29.0167C23.6198 29.8414 24.5725 30.625 24.7411 30.7581C25.1137 31.0523 25.3971 31.077 25.6654 30.8385L25.8471 30.6769L25.8666 29.0971L25.8861 27.5173L26.0932 27.5163C26.2072 27.5157 26.4873 27.4697 26.7157 27.4141C27.7798 27.1547 28.6101 26.3103 28.8886 25.2043C29.0371 24.6145 29.0371 15.4174 28.8886 14.8277C28.6126 13.7318 27.8121 12.8987 26.7537 12.6058C26.5067 12.5375 25.7503 12.5161 23.5643 12.5155L20.6988 12.5147V8.13104C20.6988 5.16514 20.6754 3.63267 20.6266 3.39249C20.3985 2.27118 19.5007 1.32234 18.425 1.06589C18.242 1.02222 15.5342 0.998777 10.8231 1.00005C3.98935 1.00192 3.48178 1.00989 3.14918 1.12114ZM18.4492 2.20019C18.8579 2.35832 19.2748 2.76044 19.4828 3.19699L19.6302 3.50642L19.6481 8.35588C19.6688 13.99 19.696 13.6981 19.0913 14.3191C18.471 14.9561 18.7531 14.9258 13.4481 14.9258H8.86736L8.6148 15.1175C8.47589 15.2229 7.64828 15.901 6.77566 16.6244L5.18907 17.9397L5.15669 16.635L5.12431 15.3303L4.94474 15.1448C4.7798 14.9744 4.71323 14.9561 4.12515 14.92C3.14833 14.86 2.62742 14.544 2.22675 13.7686L2.08066 13.4858V8.49612V3.50642L2.23336 3.20503C2.50178 2.67518 2.93534 2.29878 3.47297 2.12906C3.56201 2.10093 6.89035 2.07535 10.8692 2.0722C17.9483 2.06657 18.111 2.06932 18.4492 2.20019ZM9.92344 4.78044C9.30461 4.95618 8.7697 5.28396 8.29554 5.77804C7.50147 6.60539 7.19244 7.43549 7.24619 8.59659C7.28408 9.4159 7.46391 9.96437 7.90349 10.6015C8.91748 12.0711 10.7702 12.567 12.4075 11.8071L12.7926 11.6283L13.0135 11.8706C13.286 12.1694 13.5648 12.1968 13.8049 11.9484C14.0253 11.7205 14.0129 11.4386 13.7699 11.1523L13.576 10.9239L13.8652 10.4779C14.8198 9.00568 14.6211 7.02594 13.3915 5.75748C12.9157 5.26661 12.2423 4.87862 11.6456 4.75157C11.1886 4.65425 10.3162 4.66892 9.92344 4.78044ZM11.9082 6.00054C12.4932 6.28371 12.881 6.67177 13.1579 7.25124C13.4407 7.84304 13.5111 8.46344 13.362 9.04867C13.2625 9.43881 12.9653 10.0366 12.8707 10.0366C12.8423 10.0366 12.563 9.73297 12.25 9.36192C11.5369 8.51655 11.372 8.44047 11.0012 8.78566C10.7152 9.05196 10.7938 9.27566 11.4383 10.0293C11.7588 10.4041 12.0211 10.739 12.0211 10.7736C12.0211 10.8081 11.8136 10.9016 11.5598 10.9813C10.3573 11.3591 9.11441 10.7819 8.53936 9.57845C8.31082 9.10025 8.29748 9.03695 8.29748 8.42915C8.29748 7.8204 8.31057 7.75858 8.54137 7.27562C9.02842 6.25638 9.89365 5.7252 10.99 5.77248C11.3744 5.78903 11.5731 5.83839 11.9082 6.00054ZM26.8508 13.7777C27.2481 13.993 27.5417 14.2923 27.747 14.6914L27.9193 15.0263V20.016V25.0057L27.7732 25.2884C27.3726 26.0639 26.8517 26.3799 25.8748 26.4398C25.2868 26.4759 25.2202 26.4942 25.0553 26.6647L24.8757 26.8502L24.8433 28.1463L24.8109 29.4424L23.3539 28.2437C22.5525 27.5844 21.739 26.9176 21.5461 26.7621L21.1954 26.4791L16.4949 26.4457L11.7944 26.4122L11.4265 26.2253C11.0276 26.0227 10.745 25.732 10.5159 25.2884L10.3698 25.0057L10.3518 20.5015L10.3339 15.9974H14.1475C16.4707 15.9974 18.0974 15.9707 18.3097 15.929C18.8548 15.8221 19.4321 15.5078 19.8199 15.1068C20.1552 14.76 20.5031 14.1584 20.5942 13.7679L20.6377 13.5812L23.5986 13.6005L26.5594 13.6198L26.8508 13.7777ZM18.8309 16.4495C18.693 16.5859 18.3065 17.4708 17.3404 19.8625C16.623 21.6384 16.0361 23.1488 16.0361 23.219C16.0361 23.2893 16.0966 23.4261 16.1704 23.5232C16.2739 23.6593 16.3617 23.6996 16.5542 23.6996C16.8845 23.6996 16.9634 23.5879 17.3996 22.5021L17.7522 21.6239H19.1446H20.5369L20.8895 22.5021C21.3258 23.5879 21.4046 23.6996 21.7349 23.6996C21.9274 23.6996 22.0152 23.6593 22.1187 23.5232C22.1925 23.4261 22.253 23.2893 22.253 23.219C22.253 23.1488 21.6661 21.6384 20.9487 19.8625C19.6166 16.5648 19.4664 16.2653 19.1446 16.2653C19.0744 16.2653 18.9333 16.3482 18.8309 16.4495ZM19.6391 19.4141L20.1013 20.5518H19.1446H18.1878L18.65 19.4141C18.9042 18.7884 19.1267 18.2764 19.1446 18.2764C19.1624 18.2764 19.3849 18.7884 19.6391 19.4141Z"/>
</mask>
<path fill-rule="evenodd" clip-rule="evenodd" d="M3.14918 1.12114C2.0848 1.47705 1.38276 2.2304 1.11142 3.30784C0.962861 3.89756 0.962861 13.0947 1.11142 13.6844C1.31366 14.4874 1.86579 15.2283 2.54835 15.6124C2.88898 15.8042 3.56324 15.9948 3.90679 15.9964L4.11389 15.9974L4.13344 17.5772L4.15293 19.1571L4.33465 19.3186C4.58384 19.5402 4.8783 19.5295 5.19555 19.2875C5.33446 19.1815 6.29262 18.3979 7.32488 17.5461C8.35706 16.6943 9.22399 15.9974 9.25144 15.9974C9.27884 15.9974 9.30124 17.9802 9.30124 20.4038C9.30124 25.2073 9.30208 25.2198 9.67574 25.9354C9.8967 26.3587 10.419 26.8967 10.8374 27.1323C11.5071 27.5093 11.5931 27.5152 16.4009 27.5163L20.8131 27.5173L22.6238 29.0167C23.6198 29.8414 24.5725 30.625 24.7411 30.7581C25.1137 31.0523 25.3971 31.077 25.6654 30.8385L25.8471 30.6769L25.8666 29.0971L25.8861 27.5173L26.0932 27.5163C26.2072 27.5157 26.4873 27.4697 26.7157 27.4141C27.7798 27.1547 28.6101 26.3103 28.8886 25.2043C29.0371 24.6145 29.0371 15.4174 28.8886 14.8277C28.6126 13.7318 27.8121 12.8987 26.7537 12.6058C26.5067 12.5375 25.7503 12.5161 23.5643 12.5155L20.6988 12.5147V8.13104C20.6988 5.16514 20.6754 3.63267 20.6266 3.39249C20.3985 2.27118 19.5007 1.32234 18.425 1.06589C18.242 1.02222 15.5342 0.998777 10.8231 1.00005C3.98935 1.00192 3.48178 1.00989 3.14918 1.12114ZM18.4492 2.20019C18.8579 2.35832 19.2748 2.76044 19.4828 3.19699L19.6302 3.50642L19.6481 8.35588C19.6688 13.99 19.696 13.6981 19.0913 14.3191C18.471 14.9561 18.7531 14.9258 13.4481 14.9258H8.86736L8.6148 15.1175C8.47589 15.2229 7.64828 15.901 6.77566 16.6244L5.18907 17.9397L5.15669 16.635L5.12431 15.3303L4.94474 15.1448C4.7798 14.9744 4.71323 14.9561 4.12515 14.92C3.14833 14.86 2.62742 14.544 2.22675 13.7686L2.08066 13.4858V8.49612V3.50642L2.23336 3.20503C2.50178 2.67518 2.93534 2.29878 3.47297 2.12906C3.56201 2.10093 6.89035 2.07535 10.8692 2.0722C17.9483 2.06657 18.111 2.06932 18.4492 2.20019ZM9.92344 4.78044C9.30461 4.95618 8.7697 5.28396 8.29554 5.77804C7.50147 6.60539 7.19244 7.43549 7.24619 8.59659C7.28408 9.4159 7.46391 9.96437 7.90349 10.6015C8.91748 12.0711 10.7702 12.567 12.4075 11.8071L12.7926 11.6283L13.0135 11.8706C13.286 12.1694 13.5648 12.1968 13.8049 11.9484C14.0253 11.7205 14.0129 11.4386 13.7699 11.1523L13.576 10.9239L13.8652 10.4779C14.8198 9.00568 14.6211 7.02594 13.3915 5.75748C12.9157 5.26661 12.2423 4.87862 11.6456 4.75157C11.1886 4.65425 10.3162 4.66892 9.92344 4.78044ZM11.9082 6.00054C12.4932 6.28371 12.881 6.67177 13.1579 7.25124C13.4407 7.84304 13.5111 8.46344 13.362 9.04867C13.2625 9.43881 12.9653 10.0366 12.8707 10.0366C12.8423 10.0366 12.563 9.73297 12.25 9.36192C11.5369 8.51655 11.372 8.44047 11.0012 8.78566C10.7152 9.05196 10.7938 9.27566 11.4383 10.0293C11.7588 10.4041 12.0211 10.739 12.0211 10.7736C12.0211 10.8081 11.8136 10.9016 11.5598 10.9813C10.3573 11.3591 9.11441 10.7819 8.53936 9.57845C8.31082 9.10025 8.29748 9.03695 8.29748 8.42915C8.29748 7.8204 8.31057 7.75858 8.54137 7.27562C9.02842 6.25638 9.89365 5.7252 10.99 5.77248C11.3744 5.78903 11.5731 5.83839 11.9082 6.00054ZM26.8508 13.7777C27.2481 13.993 27.5417 14.2923 27.747 14.6914L27.9193 15.0263V20.016V25.0057L27.7732 25.2884C27.3726 26.0639 26.8517 26.3799 25.8748 26.4398C25.2868 26.4759 25.2202 26.4942 25.0553 26.6647L24.8757 26.8502L24.8433 28.1463L24.8109 29.4424L23.3539 28.2437C22.5525 27.5844 21.739 26.9176 21.5461 26.7621L21.1954 26.4791L16.4949 26.4457L11.7944 26.4122L11.4265 26.2253C11.0276 26.0227 10.745 25.732 10.5159 25.2884L10.3698 25.0057L10.3518 20.5015L10.3339 15.9974H14.1475C16.4707 15.9974 18.0974 15.9707 18.3097 15.929C18.8548 15.8221 19.4321 15.5078 19.8199 15.1068C20.1552 14.76 20.5031 14.1584 20.5942 13.7679L20.6377 13.5812L23.5986 13.6005L26.5594 13.6198L26.8508 13.7777ZM18.8309 16.4495C18.693 16.5859 18.3065 17.4708 17.3404 19.8625C16.623 21.6384 16.0361 23.1488 16.0361 23.219C16.0361 23.2893 16.0966 23.4261 16.1704 23.5232C16.2739 23.6593 16.3617 23.6996 16.5542 23.6996C16.8845 23.6996 16.9634 23.5879 17.3996 22.5021L17.7522 21.6239H19.1446H20.5369L20.8895 22.5021C21.3258 23.5879 21.4046 23.6996 21.7349 23.6996C21.9274 23.6996 22.0152 23.6593 22.1187 23.5232C22.1925 23.4261 22.253 23.2893 22.253 23.219C22.253 23.1488 21.6661 21.6384 20.9487 19.8625C19.6166 16.5648 19.4664 16.2653 19.1446 16.2653C19.0744 16.2653 18.9333 16.3482 18.8309 16.4495ZM19.6391 19.4141L20.1013 20.5518H19.1446H18.1878L18.65 19.4141C18.9042 18.7884 19.1267 18.2764 19.1446 18.2764C19.1624 18.2764 19.3849 18.7884 19.6391 19.4141Z" fill="#2E94FE"/>
<path fill-rule="evenodd" clip-rule="evenodd" d="M3.14918 1.12114C2.0848 1.47705 1.38276 2.2304 1.11142 3.30784C0.962861 3.89756 0.962861 13.0947 1.11142 13.6844C1.31366 14.4874 1.86579 15.2283 2.54835 15.6124C2.88898 15.8042 3.56324 15.9948 3.90679 15.9964L4.11389 15.9974L4.13344 17.5772L4.15293 19.1571L4.33465 19.3186C4.58384 19.5402 4.8783 19.5295 5.19555 19.2875C5.33446 19.1815 6.29262 18.3979 7.32488 17.5461C8.35706 16.6943 9.22399 15.9974 9.25144 15.9974C9.27884 15.9974 9.30124 17.9802 9.30124 20.4038C9.30124 25.2073 9.30208 25.2198 9.67574 25.9354C9.8967 26.3587 10.419 26.8967 10.8374 27.1323C11.5071 27.5093 11.5931 27.5152 16.4009 27.5163L20.8131 27.5173L22.6238 29.0167C23.6198 29.8414 24.5725 30.625 24.7411 30.7581C25.1137 31.0523 25.3971 31.077 25.6654 30.8385L25.8471 30.6769L25.8666 29.0971L25.8861 27.5173L26.0932 27.5163C26.2072 27.5157 26.4873 27.4697 26.7157 27.4141C27.7798 27.1547 28.6101 26.3103 28.8886 25.2043C29.0371 24.6145 29.0371 15.4174 28.8886 14.8277C28.6126 13.7318 27.8121 12.8987 26.7537 12.6058C26.5067 12.5375 25.7503 12.5161 23.5643 12.5155L20.6988 12.5147V8.13104C20.6988 5.16514 20.6754 3.63267 20.6266 3.39249C20.3985 2.27118 19.5007 1.32234 18.425 1.06589C18.242 1.02222 15.5342 0.998777 10.8231 1.00005C3.98935 1.00192 3.48178 1.00989 3.14918 1.12114ZM18.4492 2.20019C18.8579 2.35832 19.2748 2.76044 19.4828 3.19699L19.6302 3.50642L19.6481 8.35588C19.6688 13.99 19.696 13.6981 19.0913 14.3191C18.471 14.9561 18.7531 14.9258 13.4481 14.9258H8.86736L8.6148 15.1175C8.47589 15.2229 7.64828 15.901 6.77566 16.6244L5.18907 17.9397L5.15669 16.635L5.12431 15.3303L4.94474 15.1448C4.7798 14.9744 4.71323 14.9561 4.12515 14.92C3.14833 14.86 2.62742 14.544 2.22675 13.7686L2.08066 13.4858V8.49612V3.50642L2.23336 3.20503C2.50178 2.67518 2.93534 2.29878 3.47297 2.12906C3.56201 2.10093 6.89035 2.07535 10.8692 2.0722C17.9483 2.06657 18.111 2.06932 18.4492 2.20019ZM9.92344 4.78044C9.30461 4.95618 8.7697 5.28396 8.29554 5.77804C7.50147 6.60539 7.19244 7.43549 7.24619 8.59659C7.28408 9.4159 7.46391 9.96437 7.90349 10.6015C8.91748 12.0711 10.7702 12.567 12.4075 11.8071L12.7926 11.6283L13.0135 11.8706C13.286 12.1694 13.5648 12.1968 13.8049 11.9484C14.0253 11.7205 14.0129 11.4386 13.7699 11.1523L13.576 10.9239L13.8652 10.4779C14.8198 9.00568 14.6211 7.02594 13.3915 5.75748C12.9157 5.26661 12.2423 4.87862 11.6456 4.75157C11.1886 4.65425 10.3162 4.66892 9.92344 4.78044ZM11.9082 6.00054C12.4932 6.28371 12.881 6.67177 13.1579 7.25124C13.4407 7.84304 13.5111 8.46344 13.362 9.04867C13.2625 9.43881 12.9653 10.0366 12.8707 10.0366C12.8423 10.0366 12.563 9.73297 12.25 9.36192C11.5369 8.51655 11.372 8.44047 11.0012 8.78566C10.7152 9.05196 10.7938 9.27566 11.4383 10.0293C11.7588 10.4041 12.0211 10.739 12.0211 10.7736C12.0211 10.8081 11.8136 10.9016 11.5598 10.9813C10.3573 11.3591 9.11441 10.7819 8.53936 9.57845C8.31082 9.10025 8.29748 9.03695 8.29748 8.42915C8.29748 7.8204 8.31057 7.75858 8.54137 7.27562C9.02842 6.25638 9.89365 5.7252 10.99 5.77248C11.3744 5.78903 11.5731 5.83839 11.9082 6.00054ZM26.8508 13.7777C27.2481 13.993 27.5417 14.2923 27.747 14.6914L27.9193 15.0263V20.016V25.0057L27.7732 25.2884C27.3726 26.0639 26.8517 26.3799 25.8748 26.4398C25.2868 26.4759 25.2202 26.4942 25.0553 26.6647L24.8757 26.8502L24.8433 28.1463L24.8109 29.4424L23.3539 28.2437C22.5525 27.5844 21.739 26.9176 21.5461 26.7621L21.1954 26.4791L16.4949 26.4457L11.7944 26.4122L11.4265 26.2253C11.0276 26.0227 10.745 25.732 10.5159 25.2884L10.3698 25.0057L10.3518 20.5015L10.3339 15.9974H14.1475C16.4707 15.9974 18.0974 15.9707 18.3097 15.929C18.8548 15.8221 19.4321 15.5078 19.8199 15.1068C20.1552 14.76 20.5031 14.1584 20.5942 13.7679L20.6377 13.5812L23.5986 13.6005L26.5594 13.6198L26.8508 13.7777ZM18.8309 16.4495C18.693 16.5859 18.3065 17.4708 17.3404 19.8625C16.623 21.6384 16.0361 23.1488 16.0361 23.219C16.0361 23.2893 16.0966 23.4261 16.1704 23.5232C16.2739 23.6593 16.3617 23.6996 16.5542 23.6996C16.8845 23.6996 16.9634 23.5879 17.3996 22.5021L17.7522 21.6239H19.1446H20.5369L20.8895 22.5021C21.3258 23.5879 21.4046 23.6996 21.7349 23.6996C21.9274 23.6996 22.0152 23.6593 22.1187 23.5232C22.1925 23.4261 22.253 23.2893 22.253 23.219C22.253 23.1488 21.6661 21.6384 20.9487 19.8625C19.6166 16.5648 19.4664 16.2653 19.1446 16.2653C19.0744 16.2653 18.9333 16.3482 18.8309 16.4495ZM19.6391 19.4141L20.1013 20.5518H19.1446H18.1878L18.65 19.4141C18.9042 18.7884 19.1267 18.2764 19.1446 18.2764C19.1624 18.2764 19.3849 18.7884 19.6391 19.4141Z" stroke="#2E94FE" stroke-width="0.6" mask="url(#path-1-outside-1_215_626)"/>
</svg>
