<svg width="68" height="68" fill="none" xmlns="http://www.w3.org/2000/svg"><rect width="68" height="68" rx="14" fill="#EB4B4D"/><path d="m26.004 32.048-.15-.004a7.427 7.427 0 1 1 13.369 4.681l3.592 3.592a1.06 1.06 0 0 1 .025 1.523l-16.836-9.792Zm0 0-.15-.004a7.426 7.426 0 0 0 11.871 6.179m-11.721-6.175 11.721 6.175m0 0 3.592 3.592c.097.103.213.186.342.243l-3.934-3.835Zm.454-3.916a5.308 5.308 0 1 1-8.656-5.784 5.307 5.307 0 0 1 8.656 5.784Zm-8.762-5.89a5.457 5.457 0 0 1 8.9 5.947l-8.9-5.947Z" fill="#fff" stroke="#fff" stroke-width=".3"/></svg>